<svg width="22" height="17" viewBox="0 0 22 17" fill="none" xmlns="http://www.w3.org/2000/svg">
<path fill-rule="evenodd" clip-rule="evenodd" d="M0 1.25C0 0.559644 0.559644 0 1.25 0H20.75C21.4404 0 22 0.559644 22 1.25C22 1.94036 21.4404 2.5 20.75 2.5H1.25C0.559644 2.5 0 1.94036 0 1.25ZM0 8.25C0 8.94036 0.559644 9.5 1.25 9.5H20.75C21.4404 9.5 22 8.94036 22 8.25C22 7.55964 21.4404 7 20.75 7H1.25C0.559644 7 0 7.55964 0 8.25ZM0 15.25C0 15.9404 0.559644 16.5 1.25 16.5H20.75C21.4404 16.5 22 15.9404 22 15.25C22 14.5596 21.4404 14 20.75 14H1.25C0.559644 14 0 14.5596 0 15.25Z" fill="black" fill-opacity="0.54"/>
</svg>
