<svg width="24" height="24" viewBox="0 0 24 24" fill="none" xmlns="http://www.w3.org/2000/svg">
<path fill-rule="evenodd" clip-rule="evenodd" d="M0 7C0 3.13401 3.13401 0 7 0H17C20.866 0 24 3.13401 24 7V17C24 20.866 20.866 24 17 24H7C3.13401 24 0 20.866 0 17V7ZM18.5 7C19.3284 7 20 6.32843 20 5.5C20 4.67157 19.3284 4 18.5 4C17.6716 4 17 4.67157 17 5.5C17 6.32843 17.6716 7 18.5 7ZM18 12C18 15.3135 15.3135 18 12 18C8.6865 18 6 15.3135 6 12C6 8.6865 8.6865 6 12 6C15.3135 6 18 8.6865 18 12ZM15.75 12C15.75 9.933 14.067 8.25 12 8.25C9.933 8.25 8.25 9.933 8.25 12C8.25 14.0685 9.933 15.75 12 15.75C14.067 15.75 15.75 14.0685 15.75 12Z" fill="#0191B6"/>
</svg>
