<svg width="19" height="18" viewBox="0 0 19 18" fill="none" xmlns="http://www.w3.org/2000/svg">
<path d="M9.4031 16.9162C8.26102 16.9162 7.1043 16.9018 5.96222 16.9162C5.40582 16.9306 5.17155 16.7285 5.18619 16.1653C5.21547 15.1257 5.23011 14.1004 5.17155 13.0607C5.1569 12.6853 4.99584 12.2665 4.76157 11.9777C3.80984 10.7792 2.77025 9.62404 1.77459 8.43996C1.62817 8.28113 1.48175 8.10785 1.34997 7.93457C0.778934 7.16925 0.852144 6.15845 1.54032 5.58086C2.15529 5.06102 3.10702 5.13322 3.78055 5.79746C4.35159 6.36061 4.89335 6.93821 5.44975 7.51581C7.77783 9.92728 11.1455 9.92728 13.4589 7.54469C14.0153 6.96709 14.5571 6.38949 15.1281 5.82634C15.831 5.13322 16.7973 5.04658 17.4269 5.60974C18.0858 6.20177 18.1737 7.21257 17.5441 7.96345C16.4166 9.3208 15.2453 10.6348 14.1178 12.0066C13.8982 12.281 13.7518 12.6853 13.7371 13.0319C13.6932 14.0571 13.6932 15.0968 13.7225 16.1364C13.7371 16.7429 13.4882 16.9451 12.9025 16.9306C11.7458 16.9018 10.5745 16.9162 9.4031 16.9162Z" fill="white"/>
<path d="M13.298 4.72923C13.2834 6.83746 11.5556 8.51249 9.40324 8.48361C7.29478 8.46917 5.62559 6.76526 5.64023 4.68591C5.64023 2.56324 7.36799 0.902643 9.52038 0.931523C11.6435 0.960403 13.3127 2.63544 13.298 4.72923Z" fill="white"/>
</svg>
