<?xml version="1.0" encoding="iso-8859-1"?>
<!-- Generator: Adobe Illustrator 19.0.0, SVG Export Plug-In . SVG Version: 6.00 Build 0)  -->
<svg version="1.1" id="Capa_1" xmlns="http://www.w3.org/2000/svg" xmlns:xlink="http://www.w3.org/1999/xlink" x="0px" y="0px"
	 viewBox="0 0 512 512" style="enable-background:new 0 0 512 512;" xml:space="preserve">
<g>
	<g>
		<path d="M490.667,153.993V96c0-41.167-33.5-74.667-74.667-74.667h-57.992C326.723,7.68,292.259,0,256,0
			s-70.723,7.68-102.008,21.333H96c-41.167,0-74.667,33.5-74.667,74.667v57.993C7.68,185.279,0,219.742,0,256
			s7.68,70.721,21.333,102.007V416c0,41.167,33.5,74.667,74.667,74.667h57.992C185.277,504.32,219.741,512,256,512
			s70.723-7.68,102.008-21.333H416c41.167,0,74.667-33.5,74.667-74.667v-57.993C504.32,326.721,512,292.258,512,256
			S504.32,185.279,490.667,153.993z M311.771,50.315c72.815,19.776,130.143,77.103,149.915,149.923l-63.384,10.569
			c-14.659-46.042-51.069-82.448-97.108-97.107L311.771,50.315z M200.229,50.315l10.577,63.385
			c-46.039,14.659-82.449,51.065-97.108,97.107l-63.384-10.569C70.086,127.418,127.414,70.091,200.229,50.315z M42.667,96
			c0-29.406,23.917-53.333,53.333-53.333h18.729c-0.109,0.073-0.208,0.16-0.318,0.233c-6.077,4.052-11.906,8.428-17.604,12.97
			c-0.961,0.764-2.001,1.431-2.951,2.208c-13.073,10.729-25.063,22.723-35.79,35.796c-0.719,0.878-1.333,1.837-2.04,2.725
			c-4.6,5.759-9.023,11.66-13.122,17.809c-0.074,0.111-0.163,0.211-0.237,0.322V96z M96,469.333
			c-29.417,0-53.333-23.927-53.333-53.333v-18.729c0.074,0.111,0.163,0.211,0.237,0.322c4.099,6.148,8.522,12.049,13.122,17.809
			c0.707,0.888,1.322,1.848,2.04,2.725c10.728,13.073,22.717,25.066,35.79,35.796c0.949,0.777,1.99,1.444,2.951,2.208
			c5.698,4.542,11.527,8.918,17.604,12.97c0.109,0.073,0.208,0.16,0.318,0.233H96z M200.229,461.685
			c-72.814-19.776-130.143-77.102-149.915-149.921l63.384-10.57c14.659,46.042,51.069,82.447,97.108,97.105L200.229,461.685z
			 M149.333,256c0-58.813,47.854-106.667,106.667-106.667S362.667,197.188,362.667,256S314.813,362.667,256,362.667
			S149.333,314.813,149.333,256z M311.771,461.685l-10.577-63.385c46.039-14.659,82.449-51.064,97.108-97.105l63.384,10.57
			C441.914,384.583,384.585,441.909,311.771,461.685z M469.333,416c0,29.406-23.917,53.333-53.333,53.333h-18.729
			c0.109-0.073,0.208-0.161,0.318-0.234c6.052-4.035,11.855-8.393,17.531-12.915c0.988-0.785,2.055-1.469,3.03-2.267
			c13.068-10.725,25.053-22.714,35.777-35.781c0.747-0.911,1.387-1.913,2.121-2.836c4.572-5.729,8.973-11.594,13.048-17.707
			c0.074-0.111,0.163-0.211,0.237-0.322V416z M469.333,114.729c-0.074-0.111-0.163-0.211-0.237-0.322
			c-4.076-6.113-8.477-11.978-13.048-17.707c-0.734-0.923-1.374-1.924-2.121-2.836c-10.724-13.068-22.71-25.056-35.777-35.781
			c-0.975-0.798-2.042-1.482-3.03-2.267c-5.676-4.522-11.479-8.88-17.531-12.915c-0.109-0.073-0.208-0.161-0.318-0.234H416
			c29.417,0,53.333,23.927,53.333,53.333V114.729z"/>
	</g>
</g>
<g>
</g>
<g>
</g>
<g>
</g>
<g>
</g>
<g>
</g>
<g>
</g>
<g>
</g>
<g>
</g>
<g>
</g>
<g>
</g>
<g>
</g>
<g>
</g>
<g>
</g>
<g>
</g>
<g>
</g>
</svg>
