<svg xmlns="http://www.w3.org/2000/svg" viewBox="0 0 124.47 104.08"><title>Ресурс 4</title><g id="1765cda2-7367-4568-974c-76374fd11b62" data-name="Слой 2"><g id="34e1f8ba-8f6d-4520-b69d-fff15baddfc6" data-name="Слой 2"><path d="M112,17.94c0,2.14-.16,17-5.05,13-4.48-3.65,5.76-10.39,6.2-2.27.47,8.81-11.36,17.47-19,18.37" style="fill:none;stroke:#ed6a00;stroke-miterlimit:22.925600000000003;stroke-width:0.1797px"/><path d="M18.12,46.17c8.35-1.38,4.41-7,12.61-14.31-.65,17.25-5.26,21.38-1.93,42,2.52,8.34,3.53,9,7.59,8.8l.92-28.57c.63,9.61.3,23.07,4.16,28.54,1.52,0,2.45.2,3.17-.7,1.63-2,1.71-6.66,1.72-9.61.05-9.54,1-29.62,7-35.64,11.72,16.85,13.84,15.07,12.53,24-.94,6.4-1.67,22,5.14,21.92L72.4,68.27c3.66,2.92,9.22,18.57,14.18,13.44.83-3.33-5.89-5.61-7.13-24.38,6.9-2.35,13.9-4.49,15.47-11.41-9.35,2.54-16.8,8-26.44-.12-8.05-6.76-7-14.48-15.06-21.44-4.72-4.07-8.32.07-14-2.76C26.43,17.33,18,35.58,18.12,46.17Z" style="fill:#ed6a00;fill-rule:evenodd"/><circle cx="77.87" cy="41.78" r="6.71" style="fill:#ed6a00"/><circle cx="44.1" cy="12.43" r="8.41" style="fill:#ed6a00"/><path d="M13.52,96.61a.88.88,0,0,0,.33-.07,1,1,0,0,0,.24-.15l.19-.16a.34.34,0,0,1,.22-.07.37.37,0,0,1,.28.12.39.39,0,0,1,.11.27.36.36,0,0,1-.1.25,1.83,1.83,0,0,1-.55.43,1.65,1.65,0,0,1-.73.16h0a1,1,0,0,0-.36.07.91.91,0,0,0-.3.2,1,1,0,0,0-.21.3.91.91,0,0,0-.08.39v0a1.77,1.77,0,0,1,1-.3,1.71,1.71,0,0,1,.68.14,1.8,1.8,0,0,1,.56.37,1.66,1.66,0,0,1,.37.55,1.77,1.77,0,0,1,.13.69v1.08a1.75,1.75,0,0,1-.13.68,1.7,1.7,0,0,1-.37.56,1.76,1.76,0,0,1-.56.38,1.71,1.71,0,0,1-.68.14,1.49,1.49,0,0,1-.57-.09l-.3-.15a2,2,0,0,1-.4-.32,1.58,1.58,0,0,1-.29-.42l-.06-.09a1.73,1.73,0,0,1-.13-.68V98.34a1.67,1.67,0,0,1,.14-.68,1.73,1.73,0,0,1,.38-.55,1.83,1.83,0,0,1,.55-.37,1.67,1.67,0,0,1,.68-.14Zm-1,4.29a.94.94,0,0,0,.08.38,1,1,0,0,0,.2.31.92.92,0,0,0,.3.21.94.94,0,0,0,.38.08.9.9,0,0,0,.36-.08,1,1,0,0,0,.31-.21,1,1,0,0,0,.22-.31.9.9,0,0,0,.08-.38V99.81a1,1,0,0,0-.08-.39,1,1,0,0,0-.21-.31.86.86,0,0,0-.3-.2,1,1,0,0,0-.38-.07,1,1,0,0,0-.36.07.91.91,0,0,0-.3.2,1,1,0,0,0-.29.7v1.08Zm6.34-2-.15,0-.21,0-.23,0H18a1.6,1.6,0,0,0-.4,0,1.11,1.11,0,0,0-.35.15.85.85,0,0,0-.25.26.69.69,0,0,0-.1.38v2.59a.39.39,0,0,1-.11.29.37.37,0,0,1-.27.11.38.38,0,0,1-.28-.11.39.39,0,0,1-.11-.29V99.64a1.52,1.52,0,0,1,.14-.66,1.59,1.59,0,0,1,.38-.51,1.72,1.72,0,0,1,.55-.33,1.88,1.88,0,0,1,.66-.12h.52a2.3,2.3,0,0,1,.58.1,1.19,1.19,0,0,1,.47.26.64.64,0,0,1,.19.5v3.37a.36.36,0,0,1-.12.27.39.39,0,0,1-.28.11.38.38,0,0,1-.28-.11.37.37,0,0,1-.11-.27V98.89Zm4.36.6a1.32,1.32,0,0,0-.08-.28A.5.5,0,0,0,23,99a.75.75,0,0,0-.28-.13,1.78,1.78,0,0,0-.44,0,1.23,1.23,0,0,0-.41.1.9.9,0,0,0-.32.25.38.38,0,0,1-.3.15A.37.37,0,0,1,21,99.2a.38.38,0,0,1-.12-.27.44.44,0,0,1,0-.13.28.28,0,0,1,.07-.12,1.87,1.87,0,0,1,.62-.47,1.81,1.81,0,0,1,.76-.16,2,2,0,0,1,.78.13,1.39,1.39,0,0,1,.52.37,1.47,1.47,0,0,1,.3.55,2.3,2.3,0,0,1,.1.68v2a.69.69,0,0,1-.09.37.78.78,0,0,1-.24.25,1.22,1.22,0,0,1-.33.15,2.52,2.52,0,0,1-.39.08l-.38,0h-.34a1.77,1.77,0,0,1-1.19-.46,1.65,1.65,0,0,1-.38-.51,1.47,1.47,0,0,1-.14-.65,1.31,1.31,0,0,1,.15-.61,1.55,1.55,0,0,1,.39-.49,2,2,0,0,1,.56-.33,1.81,1.81,0,0,1,.65-.12Zm0,.78h-1a1.09,1.09,0,0,0-.34.05,1,1,0,0,0-.3.15.93.93,0,0,0-.23.24.62.62,0,0,0-.1.31.71.71,0,0,0,.09.37.84.84,0,0,0,.24.26,1,1,0,0,0,.33.15,1.43,1.43,0,0,0,.37.05l.45,0a2.62,2.62,0,0,0,.44-.07v-1.5Zm2.53-1.44h-.1a0,0,0,0,0,0,0v3.38a.38.38,0,0,1-.11.28.37.37,0,0,1-.27.11.38.38,0,0,1-.39-.39V98.87a2.46,2.46,0,0,1,0-.33.49.49,0,0,1,.12-.26.64.64,0,0,1,.27-.17,1.52,1.52,0,0,1,.49-.06h1.86a.38.38,0,0,1,.28.11.39.39,0,0,1,.11.29.37.37,0,0,1-.11.27.38.38,0,0,1-.28.11Zm2.68,1A1.74,1.74,0,0,1,29,98.57a1.81,1.81,0,0,1,.55-.37,1.68,1.68,0,0,1,.68-.14,1.71,1.71,0,0,1,.68.14,1.8,1.8,0,0,1,.56.37,1.66,1.66,0,0,1,.37.55,1.77,1.77,0,0,1,.13.69v1.08a1.75,1.75,0,0,1-.13.68,1.7,1.7,0,0,1-.37.56,1.76,1.76,0,0,1-.56.38,1.71,1.71,0,0,1-.68.14,1.68,1.68,0,0,1-.68-.14,1.76,1.76,0,0,1-.93-.93,1.71,1.71,0,0,1-.14-.68V99.82Zm.78,1.08a.94.94,0,0,0,.08.38,1,1,0,0,0,.2.31.93.93,0,0,0,.3.21.94.94,0,0,0,.38.08.89.89,0,0,0,.36-.08,1,1,0,0,0,.31-.21,1,1,0,0,0,.22-.31.9.9,0,0,0,.08-.38V99.81a1,1,0,0,0-.08-.39,1,1,0,0,0-.21-.31.86.86,0,0,0-.3-.2,1,1,0,0,0-.38-.07,1,1,0,0,0-.36.07.91.91,0,0,0-.3.2,1,1,0,0,0-.29.7v1.08Zm4.33,1.36a.39.39,0,1,1-.78,0V98.9a.68.68,0,0,1,.09-.35.74.74,0,0,1,.23-.24,1.3,1.3,0,0,1,.33-.15,2.22,2.22,0,0,1,.38-.08l.38,0h.33a1.9,1.9,0,0,1,.6.1,1.73,1.73,0,0,1,.53.29.83.83,0,0,1,.33-.22,1.93,1.93,0,0,1,.42-.11l.43,0h.38a1.89,1.89,0,0,1,.66.12,1.67,1.67,0,0,1,.55.33,1.72,1.72,0,0,1,.38.51,1.44,1.44,0,0,1,.15.65v2.6a.39.39,0,0,1-.11.28.38.38,0,0,1-.29.12.36.36,0,0,1-.27-.12.39.39,0,0,1-.11-.28v-2.6a.82.82,0,0,0-.12-.4A.85.85,0,0,0,37.8,99a1.05,1.05,0,0,0-.37-.14,2.32,2.32,0,0,0-.42,0,2.5,2.5,0,0,0-.39,0l-.35.06v3.36a.39.39,0,1,1-.78,0V99.59a.64.64,0,0,0-.1-.38.79.79,0,0,0-.27-.24,1.22,1.22,0,0,0-.37-.13,2.4,2.4,0,0,0-.43,0l-.4,0-.35.06v3.36Zm6.33-3.81a.4.4,0,0,1,.4-.4h1.35a2,2,0,0,1,.65.1,1.73,1.73,0,0,1,.53.27,1.32,1.32,0,0,1,.36.43,1.15,1.15,0,0,1,.13.55.79.79,0,0,1,0,.27,1.24,1.24,0,0,1-.13.26,1.64,1.64,0,0,1-.18.23,1.06,1.06,0,0,1-.21.17,1.26,1.26,0,0,1,.21.18,1.71,1.71,0,0,1,.18.24,1.3,1.3,0,0,1,.13.27.82.82,0,0,1,0,.28,1.12,1.12,0,0,1-.14.55,1.35,1.35,0,0,1-.37.43,1.79,1.79,0,0,1-.53.27,2,2,0,0,1-.63.1H40.29a.39.39,0,0,1-.28-.13.4.4,0,0,1-.12-.28V98.45Zm.78,2.29v1.11h1a.93.93,0,0,0,.6-.17.49.49,0,0,0,.21-.38.38.38,0,0,0-.08-.25.73.73,0,0,0-.2-.17.94.94,0,0,0-.26-.1l-.26,0Zm1-.82.26,0a1,1,0,0,0,.26-.09.65.65,0,0,0,.2-.16.37.37,0,0,0,.08-.24.49.49,0,0,0-.21-.38.93.93,0,0,0-.6-.17h-1v1.08Zm2.27-.11a1.74,1.74,0,0,1,.51-1.24A1.81,1.81,0,0,1,45,98.2a1.67,1.67,0,0,1,.68-.14,1.71,1.71,0,0,1,.68.14,1.8,1.8,0,0,1,.56.37,1.66,1.66,0,0,1,.37.55,1.77,1.77,0,0,1,.13.69v1.08a1.75,1.75,0,0,1-.13.68,1.71,1.71,0,0,1-.37.56,1.76,1.76,0,0,1-.56.38,1.71,1.71,0,0,1-.68.14,1.68,1.68,0,0,1-.68-.14,1.76,1.76,0,0,1-.93-.93,1.71,1.71,0,0,1-.14-.68V99.82Zm.78,1.08a.94.94,0,0,0,.08.38,1,1,0,0,0,.2.31.93.93,0,0,0,.3.21.94.94,0,0,0,.37.08.89.89,0,0,0,.36-.08,1,1,0,0,0,.31-.21,1,1,0,0,0,.22-.31.9.9,0,0,0,.08-.38V99.81a1,1,0,0,0-.08-.39,1,1,0,0,0-.21-.31.86.86,0,0,0-.3-.2,1,1,0,0,0-.38-.07,1,1,0,0,0-.36.07.91.91,0,0,0-.3.2,1,1,0,0,0-.29.7v1.08Zm6.24-1.27a.71.71,0,0,0-.09-.37.85.85,0,0,0-.24-.26,1,1,0,0,0-.33-.15,1.42,1.42,0,0,0-.37,0l-.45,0a2.43,2.43,0,0,0-.43.07v2.88a.49.49,0,0,0,.16,0l.22,0h.47a1.57,1.57,0,0,0,.42-.05,1,1,0,0,0,.34-.16.73.73,0,0,0,.22-.26.79.79,0,0,0,.08-.36V99.63Zm.78,1.39a1.6,1.6,0,0,1-.12.62,1.47,1.47,0,0,1-.36.52,1.73,1.73,0,0,1-.6.35,2.52,2.52,0,0,1-.85.13,4.12,4.12,0,0,1-.77-.08v1.11a.38.38,0,0,1-.11.28.37.37,0,0,1-.27.11.4.4,0,0,1-.28-.11.36.36,0,0,1-.12-.28V98.89a.65.65,0,0,1,.19-.5,1.17,1.17,0,0,1,.46-.26,2.38,2.38,0,0,1,.57-.1L50,98a1.85,1.85,0,0,1,.65.12,1.77,1.77,0,0,1,.55.33,1.58,1.58,0,0,1,.38.51,1.52,1.52,0,0,1,.14.66V101Zm3.53-2.62a.37.37,0,0,1,.11-.27.38.38,0,0,1,.28-.11.39.39,0,0,1,.28.11.36.36,0,0,1,.12.27v3.37a.64.64,0,0,1-.19.5,1.2,1.2,0,0,1-.47.26,2.3,2.3,0,0,1-.58.1H54.3a1.88,1.88,0,0,1-.66-.12,1.72,1.72,0,0,1-.55-.33,1.59,1.59,0,0,1-.38-.51,1.52,1.52,0,0,1-.14-.66V98.43a.39.39,0,0,1,.11-.29A.38.38,0,0,1,53,98a.37.37,0,0,1,.27.11.39.39,0,0,1,.11.29V101a.69.69,0,0,0,.1.38.85.85,0,0,0,.25.26,1.11,1.11,0,0,0,.35.15,1.6,1.6,0,0,0,.4,0h.23l.23,0,.21,0,.15,0V98.41Zm2.61,3.85a.39.39,0,1,1-.78,0V98.9a.68.68,0,0,1,.09-.35.74.74,0,0,1,.23-.24,1.3,1.3,0,0,1,.33-.15,2.22,2.22,0,0,1,.38-.08l.38,0h.33a1.9,1.9,0,0,1,.6.1,1.73,1.73,0,0,1,.53.29.83.83,0,0,1,.33-.22,1.93,1.93,0,0,1,.42-.11l.43,0h.38a1.89,1.89,0,0,1,.66.12,1.67,1.67,0,0,1,.55.33,1.72,1.72,0,0,1,.38.51,1.44,1.44,0,0,1,.15.65v2.6a.39.39,0,0,1-.11.28.38.38,0,0,1-.29.12.36.36,0,0,1-.27-.12.39.39,0,0,1-.11-.28v-2.6a.82.82,0,0,0-.12-.4A.85.85,0,0,0,62.1,99a1.05,1.05,0,0,0-.37-.14,2.32,2.32,0,0,0-.42,0,2.5,2.5,0,0,0-.39,0l-.35.06v3.36a.39.39,0,1,1-.78,0V99.59a.64.64,0,0,0-.1-.38.79.79,0,0,0-.27-.24,1.22,1.22,0,0,0-.37-.13,2.4,2.4,0,0,0-.43,0l-.4,0-.35.06v3.36ZM65,100h1.92a1.29,1.29,0,0,0-.07-.43,1.18,1.18,0,0,0-.19-.35.87.87,0,0,0-.3-.24.89.89,0,0,0-.4-.09.93.93,0,0,0-.38.08,1,1,0,0,0-.3.2.88.88,0,0,0-.2.3,1,1,0,0,0-.07.38V100Zm1.67,1.59a.38.38,0,0,1,.29-.13.37.37,0,0,1,.28.12.39.39,0,0,1,.11.27.5.5,0,0,1,0,.13.25.25,0,0,1-.07.12,2,2,0,0,1-.62.45,1.65,1.65,0,0,1-.68.15,1.71,1.71,0,0,1-.68-.13,1.77,1.77,0,0,1-.55-.37,1.74,1.74,0,0,1-.38-.55,1.68,1.68,0,0,1-.14-.68V99.81a1.68,1.68,0,0,1,.14-.68,1.74,1.74,0,0,1,.38-.55,1.84,1.84,0,0,1,.55-.37,1.73,1.73,0,0,1,1.36,0,1.7,1.7,0,0,1,.55.4,1.83,1.83,0,0,1,.37.6,2.05,2.05,0,0,1,.13.75.77.77,0,0,1-.22.58.83.83,0,0,1-.6.21H65v.17a.94.94,0,0,0,.28.67,1,1,0,0,0,.3.2.91.91,0,0,0,.37.08.87.87,0,0,0,.45-.11.9.9,0,0,0,.25-.21Zm4.46-2.66-.15,0-.21,0-.23,0h-.23a1.6,1.6,0,0,0-.4,0,1.11,1.11,0,0,0-.35.15.85.85,0,0,0-.25.26.69.69,0,0,0-.1.38v2.59a.39.39,0,0,1-.11.29.37.37,0,0,1-.27.11.38.38,0,0,1-.28-.11.39.39,0,0,1-.11-.29V99.64a1.52,1.52,0,0,1,.14-.66,1.59,1.59,0,0,1,.38-.51,1.72,1.72,0,0,1,.55-.33,1.88,1.88,0,0,1,.66-.12h.52a2.3,2.3,0,0,1,.58.1,1.19,1.19,0,0,1,.47.26.64.64,0,0,1,.19.5v3.37a.36.36,0,0,1-.12.27.39.39,0,0,1-.28.11.38.38,0,0,1-.28-.11.37.37,0,0,1-.11-.27V98.89ZM76.44,101a1.52,1.52,0,0,1-.15.7,1.49,1.49,0,0,1-.42.51,1.86,1.86,0,0,1-.6.31,2.35,2.35,0,0,1-.7.1l-.51,0a2,2,0,0,1-.53-.11,1,1,0,0,1-.41-.26.67.67,0,0,1-.17-.48V98.42a.36.36,0,0,1,.12-.27.38.38,0,0,1,.28-.11.38.38,0,0,1,.39.39V99a3.08,3.08,0,0,1,.51-.06h.45a1.87,1.87,0,0,1,.65.12,1.8,1.8,0,0,1,.56.33,1.52,1.52,0,0,1,.53,1.17V101Zm-.78-.43a.72.72,0,0,0-.34-.64,1.1,1.1,0,0,0-.35-.15,1.64,1.64,0,0,0-.38,0l-.43,0-.42.06v1.93a2.43,2.43,0,0,0,.43.07l.45,0a1.41,1.41,0,0,0,.38-.05,1,1,0,0,0,.33-.15.84.84,0,0,0,.24-.26.71.71,0,0,0,.09-.37v-.43Zm1.52-2.18a.38.38,0,0,1,.11-.27.36.36,0,0,1,.27-.12.37.37,0,0,1,.28.12.38.38,0,0,1,.11.27v1.36h1.91V98.42a.38.38,0,0,1,.11-.27.36.36,0,0,1,.27-.12.37.37,0,0,1,.28.12.38.38,0,0,1,.11.27v3.83a.38.38,0,0,1-.39.39.37.37,0,0,1-.27-.11.38.38,0,0,1-.11-.28v-1.69H78v1.69a.38.38,0,0,1-.39.39.37.37,0,0,1-.27-.11.38.38,0,0,1-.11-.28Z" style="fill:#575656;fill-rule:evenodd"/><path d="M85.19,101a1.52,1.52,0,0,1-.15.7,1.48,1.48,0,0,1-.42.51,1.86,1.86,0,0,1-.6.31,2.35,2.35,0,0,1-.7.1l-.51,0a2,2,0,0,1-.53-.11,1,1,0,0,1-.41-.26.67.67,0,0,1-.17-.48V98.42a.36.36,0,0,1,.12-.27.38.38,0,0,1,.28-.11.38.38,0,0,1,.39.39V99A3.08,3.08,0,0,1,83,99h.45a1.87,1.87,0,0,1,.65.12,1.8,1.8,0,0,1,.56.33,1.52,1.52,0,0,1,.53,1.17V101Zm-.78-.43a.72.72,0,0,0-.34-.64,1.1,1.1,0,0,0-.35-.15,1.64,1.64,0,0,0-.38,0l-.43,0-.42.06v1.93a2.43,2.43,0,0,0,.43.07l.45,0a1.41,1.41,0,0,0,.37-.05,1,1,0,0,0,.33-.15.85.85,0,0,0,.24-.26.71.71,0,0,0,.09-.37v-.43Zm1.18-2.15a.37.37,0,0,1,.12-.28.38.38,0,0,1,.28-.11.38.38,0,0,1,.39.39v3.81a.39.39,0,0,1-.67.28.37.37,0,0,1-.12-.28V98.45Zm3.56-1.35a1,1,0,0,0,.37-.07.55.55,0,0,0,.27-.23.33.33,0,0,1,.27-.12.37.37,0,0,1,.23.08.33.33,0,0,1,.12.27.37.37,0,0,1-.09.24,1.39,1.39,0,0,1-.5.38,1.57,1.57,0,0,1-.65.14,1.51,1.51,0,0,1-.63-.14,1.46,1.46,0,0,1-.51-.38.36.36,0,0,1-.09-.24.33.33,0,0,1,.12-.27.42.42,0,0,1,.22-.08.38.38,0,0,1,.28.12.51.51,0,0,0,.26.23,1,1,0,0,0,.35.07Zm.92,1.31a.37.37,0,0,1,.11-.27.38.38,0,0,1,.28-.11.39.39,0,0,1,.28.11.36.36,0,0,1,.12.27v3.37a.64.64,0,0,1-.19.5,1.2,1.2,0,0,1-.47.26,2.3,2.3,0,0,1-.58.1h-.52a1.88,1.88,0,0,1-.66-.12,1.72,1.72,0,0,1-.55-.33,1.59,1.59,0,0,1-.38-.51,1.52,1.52,0,0,1-.14-.66V98.43a.39.39,0,0,1,.11-.29.38.38,0,0,1,.28-.11.37.37,0,0,1,.27.11.39.39,0,0,1,.11.29V101a.69.69,0,0,0,.1.38.85.85,0,0,0,.25.26,1.11,1.11,0,0,0,.35.15,1.6,1.6,0,0,0,.4,0h.23l.23,0,.21,0,.15,0V98.41Zm6.9-.15a1.62,1.62,0,0,1,.28-.12,2,2,0,0,1,.53-.08,1.85,1.85,0,0,1,.65.12,1.77,1.77,0,0,1,.55.33,1.56,1.56,0,0,1,.38.51,1.52,1.52,0,0,1,.14.66v1.39a1.64,1.64,0,0,1-.1.55,1.5,1.5,0,0,1-.3.5,1.54,1.54,0,0,1-.52.37,1.77,1.77,0,0,1-.74.14h-.25l-.27,0v1.07a.38.38,0,0,1-.11.28.37.37,0,0,1-.27.11.38.38,0,0,1-.39-.39V102.6l-.27,0H96a1.81,1.81,0,0,1-.75-.14,1.5,1.5,0,0,1-.51-.37,1.42,1.42,0,0,1-.29-.5,1.77,1.77,0,0,1-.09-.55V99.67a1.52,1.52,0,0,1,.14-.66,1.57,1.57,0,0,1,.38-.51,1.77,1.77,0,0,1,.55-.33,1.85,1.85,0,0,1,.65-.12,2,2,0,0,1,.53.08l.31.12Zm-1.79,2.81a.77.77,0,0,0,.08.35.73.73,0,0,0,.2.25,1,1,0,0,0,.28.15.88.88,0,0,0,.3.05h.28l.16,0,.07,0,0,0V98.93l-.28-.06-.25,0a.85.85,0,0,0-.65.23.83.83,0,0,0-.22.58v1.39Zm3.56-1.39a.82.82,0,0,0-.22-.58.84.84,0,0,0-.65-.23l-.25,0-.28.06v2.88l0,0,.08,0,.16,0h.28a.88.88,0,0,0,.3-.05,1,1,0,0,0,.28-.15.74.74,0,0,0,.2-.25.77.77,0,0,0,.08-.35V99.67Zm1.44.14a1.73,1.73,0,0,1,.51-1.24,1.81,1.81,0,0,1,.55-.37,1.68,1.68,0,0,1,.68-.14,1.71,1.71,0,0,1,.68.14,1.8,1.8,0,0,1,.56.37,1.66,1.66,0,0,1,.37.55,1.77,1.77,0,0,1,.13.69v1.08a1.75,1.75,0,0,1-.13.68,1.7,1.7,0,0,1-.37.56,1.76,1.76,0,0,1-.56.38,1.71,1.71,0,0,1-.68.14,1.68,1.68,0,0,1-.68-.14,1.76,1.76,0,0,1-.93-.93,1.71,1.71,0,0,1-.14-.68V99.82Zm.78,1.08a.94.94,0,0,0,.08.38,1,1,0,0,0,.2.31.93.93,0,0,0,.3.21.94.94,0,0,0,.38.08.89.89,0,0,0,.36-.08,1,1,0,0,0,.31-.21,1,1,0,0,0,.22-.31.9.9,0,0,0,.08-.38V99.81a1,1,0,0,0-.08-.39,1,1,0,0,0-.21-.31.86.86,0,0,0-.3-.2,1,1,0,0,0-.38-.07,1,1,0,0,0-.36.07.91.91,0,0,0-.3.2,1,1,0,0,0-.29.7v1.08Zm3.56-2.48a.38.38,0,0,1,.11-.27.36.36,0,0,1,.27-.12.37.37,0,0,1,.28.12.38.38,0,0,1,.11.27v1.36h1.91V98.42a.38.38,0,0,1,.11-.27.36.36,0,0,1,.27-.12.37.37,0,0,1,.28.12.38.38,0,0,1,.11.27v3.83a.38.38,0,0,1-.39.39.37.37,0,0,1-.27-.11.38.38,0,0,1-.11-.28v-1.69h-1.91v1.69a.38.38,0,0,1-.39.39.37.37,0,0,1-.27-.11.38.38,0,0,1-.11-.28V98.42Zm7,3.35V98.9l-.42-.06-.44,0h-.1a1.09,1.09,0,0,0-.35.06,1,1,0,0,0-.3.17.81.81,0,0,0-.21.26.72.72,0,0,0-.08.34V101a.76.76,0,0,0,.08.35.81.81,0,0,0,.21.26.91.91,0,0,0,.3.16,1.16,1.16,0,0,0,.35.05h.08l.45,0a2.42,2.42,0,0,0,.43-.07Zm.78.57a2.8,2.8,0,0,1-.07.64,1.38,1.38,0,0,1-.27.55,1.44,1.44,0,0,1-.54.4,2.16,2.16,0,0,1-.86.15,1.59,1.59,0,0,1-.42-.05,1.91,1.91,0,0,1-.37-.14,1.71,1.71,0,0,1-.31-.2,1.87,1.87,0,0,1-.24-.23.42.42,0,0,1-.07-.12.36.36,0,0,1,0-.12.36.36,0,0,1,.15-.3.28.28,0,0,1,.12-.07l.13,0a.38.38,0,0,1,.3.13l.1.11.16.11.22.09a.85.85,0,0,0,.25,0,1.55,1.55,0,0,0,.5-.07.66.66,0,0,0,.29-.18.54.54,0,0,0,.11-.2,1.1,1.1,0,0,0,0-.26,2.58,2.58,0,0,1-.5.07h-.45a1.85,1.85,0,0,1-.65-.12,1.76,1.76,0,0,1-.55-.33,1.57,1.57,0,0,1-.38-.51,1.52,1.52,0,0,1-.14-.66V99.64a1.5,1.5,0,0,1,.53-1.18,1.75,1.75,0,0,1,.55-.32,1.92,1.92,0,0,1,.65-.11h.33l.38,0,.38.08a1.13,1.13,0,0,1,.33.15.75.75,0,0,1,.23.24.66.66,0,0,1,.09.35Z" style="fill:#575656;fill-rule:evenodd"/><path d="M115.31,0a5.06,5.06,0,0,0-3.89,1.35A6,6,0,0,0,110,3.63c-.1.26-.16.56-.29.82A13.67,13.67,0,0,0,108.37,3a5.65,5.65,0,0,0-1.49-.93,5.78,5.78,0,0,0-.85-.25,4.43,4.43,0,0,0-.88-.11,5.06,5.06,0,0,0-2,.37C100.39,3.21,99.9,6,100.86,8.7a12.81,12.81,0,0,0,2.2,3.77,17.15,17.15,0,0,0,5,3.79c.45.24,1.62.85,2,1,.7.28,1.2.57,2,.84a14.1,14.1,0,0,0,1.46-1.33,28.3,28.3,0,0,0,3.64-4.2,12.49,12.49,0,0,0,2.27-6.69C119.54,3.1,118.36.31,115.31,0Zm-8.12,11.1c-1.24.36-1.78-.89-2.09-1.88a.45.45,0,0,0-.24.07l.39,2a0,0,0,0,1,0,0l-1.4.24a0,0,0,0,1,0,0c-.55-3.12-.62-3.54-.62-3.54-.21-.76-.57-.52-.55-.7a1.09,1.09,0,0,1,.81-.63.94.94,0,0,1,1.15.88l.15,1s.15-.05.19-.08A1.85,1.85,0,0,1,106,6.22c.56-.17,1.1.08,1.12.65,0,1-1.14.88-1.15.79s0-.34-.25-.3-.32.49-.23,1c.44-.08.66.22,1,.63s.77,1.13,1.31,1.2C107.86,10.2,107.8,10.94,107.19,11.12Zm4.82.28c-.08,0-.35,0-.36,0l-.19-1.11-2.11.37,0,.24c.1.59-.25,1.05-1,1.18-.08,0-.31,0-.33-.05L107.75,10a0,0,0,0,1,0,0c.06-.08.93-.69.33-3.93h0a0,0,0,0,1,0,0,7.05,7.05,0,0,1,3.37-.59,0,0,0,0,1,0,0l.63,3.64.61-.11s0,0,0,0l.18,1A1,1,0,0,1,112,11.4Zm5.41-2.2-1.35.24a0,0,0,0,1,0,0l-.67-3.85-.72.13c.14,1.15.73,4-.73,4.27a.88.88,0,0,1-1-.49c0-.18.9-.66.28-4.3h0a0,0,0,0,1,0,0,7,7,0,0,1,3.37-.59,0,0,0,0,1,0,0l.8,4.6A0,0,0,0,1,117.42,9.2Z" style="fill:#ed6a00;fill-rule:evenodd"/><path d="M109.51,6.58c.19,1.12.34,2.5-.15,3,0,0,0,0,0,0l1.37-.24-.51-2.9Z" style="fill:#ed6a00;fill-rule:evenodd"/><path d="M12,87.24H10.9L9.67,92.65a2.12,2.12,0,0,1-.19.54,1.92,1.92,0,0,1-.32.46,1.5,1.5,0,0,1-.45.32,1.34,1.34,0,0,1-.57.12,1.31,1.31,0,0,1-.81-.24A.85.85,0,0,1,7,93.11a.59.59,0,0,1,.14-.42,2.52,2.52,0,0,1,.32-.28,2.51,2.51,0,0,0,.36-.33,1.32,1.32,0,0,0,.27-.57l1.16-4.92A2.2,2.2,0,0,1,9.46,86a1.06,1.06,0,0,1,.31-.35,1.08,1.08,0,0,1,.43-.18,3.19,3.19,0,0,1,.59,0h1.79q1.36,0,1.36.9V92.6q0,1.36-1,1.36T12,92.6V87.24Zm5.24,3.94L14.83,87l-.21-.38a.92.92,0,0,1-.1-.43.74.74,0,0,1,.28-.6,1,1,0,0,1,.65-.23.81.81,0,0,1,.6.24,2.58,2.58,0,0,1,.41.53l1.79,3.21,1.52-3.21a1.79,1.79,0,0,1,.38-.54.83.83,0,0,1,.6-.23.91.91,0,0,1,.35.07,1,1,0,0,1,.29.18.89.89,0,0,1,.2.27.73.73,0,0,1,.08.33,1,1,0,0,1-.09.4l-.2.4-3.16,6.25a2.26,2.26,0,0,1-.39.53.81.81,0,0,1-.6.22.93.93,0,0,1-.34-.06.89.89,0,0,1-.29-.18,1,1,0,0,1-.2-.27.67.67,0,0,1-.08-.31.92.92,0,0,1,.11-.44l.21-.4.62-1.18Zm6.25,2.68a2.84,2.84,0,0,1-.63-.06.84.84,0,0,1-.4-.2.77.77,0,0,1-.21-.37,2.34,2.34,0,0,1-.06-.57V86.81a2.71,2.71,0,0,1,.06-.61.93.93,0,0,1,.21-.42.86.86,0,0,1,.4-.24,2.32,2.32,0,0,1,.65-.08h2.9q1.27,0,1.27.84t-1.27.83H24.12V88.7h1.27a3.18,3.18,0,0,1,2.23.7,2.71,2.71,0,0,1,0,3.76,3.16,3.16,0,0,1-2.23.7Zm2.87-2.58a.81.81,0,0,0-.33-.72,1.8,1.8,0,0,0-1-.22h-.92v1.89h1A1.59,1.59,0,0,0,26,92a.83.83,0,0,0,.32-.7Zm5.94,2.17q0-1.36,1-1.36h0q.41-1.46.75-2.84t.62-2.65a1.93,1.93,0,0,1,.19-.55,1,1,0,0,1,.31-.35,1.13,1.13,0,0,1,.44-.18,3.19,3.19,0,0,1,.59,0h1.67q1.36,0,1.36.9v5.72h0q1,0,1,1.36v.73q0,1.36-1,1.36t-1-1.36v-.32H34.23v.32q0,1.36-1,1.36t-1-1.36v-.73Zm5-1.36V87.24H36.2l-.52,2.43q-.26,1.21-.58,2.42Zm3-2.42a5.2,5.2,0,0,1,.3-1.82,4.12,4.12,0,0,1,.84-1.4,3.73,3.73,0,0,1,1.3-.9,4.56,4.56,0,0,1,3.35,0,3.78,3.78,0,0,1,1.3.9,4.07,4.07,0,0,1,.85,1.4,5.21,5.21,0,0,1,.3,1.82,5.32,5.32,0,0,1-.29,1.81,4,4,0,0,1-.84,1.4,3.71,3.71,0,0,1-1.3.9,4.65,4.65,0,0,1-3.38,0,3.65,3.65,0,0,1-1.3-.9,4.09,4.09,0,0,1-.83-1.4,5.32,5.32,0,0,1-.29-1.81Zm2.08,0a3.65,3.65,0,0,0,.15,1.08,2.42,2.42,0,0,0,.42.81,1.82,1.82,0,0,0,.65.51,2,2,0,0,0,1.65,0,1.82,1.82,0,0,0,.65-.51,2.42,2.42,0,0,0,.42-.81,3.65,3.65,0,0,0,.15-1.08,3.86,3.86,0,0,0-.15-1.11,2.47,2.47,0,0,0-.42-.83,1.81,1.81,0,0,0-.64-.52,2,2,0,0,0-1.66,0,1.81,1.81,0,0,0-.64.52,2.47,2.47,0,0,0-.42.83,3.86,3.86,0,0,0-.15,1.11Zm8.54,4.16a2.84,2.84,0,0,1-.63-.06.84.84,0,0,1-.4-.2.77.77,0,0,1-.21-.37,2.34,2.34,0,0,1-.06-.57V86.81a2.71,2.71,0,0,1,.06-.61.93.93,0,0,1,.21-.42.86.86,0,0,1,.4-.24,2.32,2.32,0,0,1,.65-.08h2.9q1.27,0,1.27.84t-1.27.83H51.53V88.7H52.8a3.18,3.18,0,0,1,2.23.7,2.71,2.71,0,0,1,0,3.76,3.17,3.17,0,0,1-2.23.7Zm2.87-2.58a.81.81,0,0,0-.33-.72,1.8,1.8,0,0,0-1-.22h-.92v1.89h1a1.59,1.59,0,0,0,1-.25.83.83,0,0,0,.32-.7Zm5.84-1.84q1.31,0,1.31-1.1a1,1,0,0,0-.32-.83,1.54,1.54,0,0,0-1-.26h-.83v2.19Zm-2.74-2.62a2.71,2.71,0,0,1,.06-.61.93.93,0,0,1,.21-.42.86.86,0,0,1,.4-.24,2.32,2.32,0,0,1,.65-.08h1.72a3.89,3.89,0,0,1,1.29.2,2.69,2.69,0,0,1,1,.57,2.43,2.43,0,0,1,.6.9A3.23,3.23,0,0,1,63,88.32a2.81,2.81,0,0,1-.76,2.08,2.91,2.91,0,0,1-2.15.76H58.79V92.6q0,1.36-1,1.36t-1-1.36V86.81Zm8.44,7a2.84,2.84,0,0,1-.63-.06.84.84,0,0,1-.4-.2.77.77,0,0,1-.21-.37,2.34,2.34,0,0,1-.06-.57V86.72q0-1.36,1-1.36t1,1.36v2h1.21a3.18,3.18,0,0,1,2.23.7,2.71,2.71,0,0,1,0,3.76,3.17,3.17,0,0,1-2.23.7Zm2.81-2.58a.81.81,0,0,0-.33-.72,1.8,1.8,0,0,0-1-.22h-.86v1.89h.9a1.59,1.59,0,0,0,1-.25.83.83,0,0,0,.32-.7Zm4.74,1.33q0,1.36-1,1.36T71,92.6V86.72q0-1.36,1-1.36t1,1.36V92.6ZM77,90.86l-1.69,2.37a2.86,2.86,0,0,1-.5.54.8.8,0,0,1-.51.19.78.78,0,0,1-.33-.07.94.94,0,0,1-.46-.46.73.73,0,0,1-.07-.31,1,1,0,0,1,.12-.48,5.19,5.19,0,0,1,.31-.49l2-2.84-1.53-2.15a4.33,4.33,0,0,1-.31-.48,1,1,0,0,1-.12-.47.84.84,0,0,1,.26-.61.91.91,0,0,1,.67-.26.76.76,0,0,1,.49.19,2.85,2.85,0,0,1,.49.55L77,87.74l1.2-1.67q.52-.72,1-.72a.73.73,0,0,1,.31.07.93.93,0,0,1,.27.19,1,1,0,0,1,.19.27.69.69,0,0,1,.07.3,1,1,0,0,1-.12.5,5.31,5.31,0,0,1-.3.47l-1.54,2.15,2,2.88q.18.26.31.48a.94.94,0,0,1,.13.49.78.78,0,0,1-.26.57.85.85,0,0,1-.61.25.87.87,0,0,1-.54-.18,2.59,2.59,0,0,1-.5-.54L77,90.86Zm12-3.62H87.91l-1.23,5.41a2.12,2.12,0,0,1-.19.54,1.93,1.93,0,0,1-.32.46,1.5,1.5,0,0,1-.45.32,1.34,1.34,0,0,1-.57.12,1.31,1.31,0,0,1-.81-.24.85.85,0,0,1-.32-.73.59.59,0,0,1,.14-.42,2.53,2.53,0,0,1,.32-.28,2.51,2.51,0,0,0,.36-.33,1.32,1.32,0,0,0,.27-.57l1.16-4.92a2.2,2.2,0,0,1,.21-.55,1.06,1.06,0,0,1,.31-.35,1.08,1.08,0,0,1,.43-.18,3.19,3.19,0,0,1,.59,0h1.79q1.36,0,1.36.9V92.6q0,1.36-1,1.36T89,92.6V87.24Zm3.4-.52q0-1.36,1-1.36t1,1.36v2h.9a4.61,4.61,0,0,1,.45-1.43,3.87,3.87,0,0,1,.83-1.1,3.5,3.5,0,0,1,1.13-.7A3.89,3.89,0,0,1,99,85.23a3.82,3.82,0,0,1,1.57.32,3.53,3.53,0,0,1,1.23.9,4.16,4.16,0,0,1,.8,1.4,5.51,5.51,0,0,1,.28,1.82,5.62,5.62,0,0,1-.28,1.81,4.07,4.07,0,0,1-.79,1.4,3.52,3.52,0,0,1-1.23.9,4.1,4.1,0,0,1-3,.06,3.48,3.48,0,0,1-1.14-.73,3.78,3.78,0,0,1-.8-1.14,5.07,5.07,0,0,1-.42-1.5h-.9V92.6q0,1.36-1,1.36t-1-1.36V86.72Zm8.4,3a3.31,3.31,0,0,0-.5-1.95,1.56,1.56,0,0,0-2.59,0,3.31,3.31,0,0,0-.5,1.95,3.19,3.19,0,0,0,.5,1.89,1.56,1.56,0,0,0,2.59,0,3.19,3.19,0,0,0,.5-1.89Zm2,3.75v.73q0,1.36,1,1.36t1-1.36v-.32h4.07v.32q0,1.36,1,1.36t1-1.36v-.73q0-1.36-1-1.36h0V86.36q0-.9-1.36-.9h-1.67a3.19,3.19,0,0,0-.59,0,1.13,1.13,0,0,0-.44.18,1,1,0,0,0-.31.35,1.93,1.93,0,0,0-.19.55q-.28,1.27-.62,2.65t-.75,2.84h0q-1,0-1,1.36Zm5-1.36h-2.22q.32-1.21.58-2.42l.52-2.43h1.12v4.85Zm4.69,1.77a2.84,2.84,0,0,1-.63-.06.84.84,0,0,1-.4-.2.77.77,0,0,1-.21-.37,2.34,2.34,0,0,1-.06-.57V86.81a2.71,2.71,0,0,1,.06-.61.93.93,0,0,1,.21-.42.86.86,0,0,1,.4-.24,2.32,2.32,0,0,1,.65-.08h2.15q1.36,0,1.36.89t-1.36.88h-1.56v1.51h1.34q1.36,0,1.36.88t-1.36.88h-1.34v1.57h1.62q1.36,0,1.36.88t-1.36.88Zm4.66-7.13q0-1.36,1-1.36t1,1.36v3.93L122.57,86a2.17,2.17,0,0,1,.47-.47.94.94,0,0,1,.55-.16.75.75,0,0,1,.67.32,1.77,1.77,0,0,1,.21,1v6q0,1.36-1,1.36t-1-1.36V88.75l-3.46,4.56a2.09,2.09,0,0,1-.53.53A1,1,0,0,1,118,94a.76.76,0,0,1-.67-.29,1.57,1.57,0,0,1-.21-.9v-6.1Zm3.67-2a2.44,2.44,0,0,1-.8-.12,2,2,0,0,1-.61-.33,1.6,1.6,0,0,1-.4-.46,1.06,1.06,0,0,1-.14-.52.67.67,0,0,1,.16-.48.59.59,0,0,1,.45-.17.49.49,0,0,1,.4.14l.22.29a.7.7,0,0,0,.29.27,1.08,1.08,0,0,0,.43.07,1.14,1.14,0,0,0,.4-.06.66.66,0,0,0,.29-.22l.11-.17.12-.15a.54.54,0,0,1,.16-.12.56.56,0,0,1,.25,0,.61.61,0,0,1,.46.17.66.66,0,0,1,.16.48,1.09,1.09,0,0,1-.14.53,1.48,1.48,0,0,1-.4.46,2.15,2.15,0,0,1-.62.32A2.4,2.4,0,0,1,120.8,84.68ZM0,92.72q0,1.36,1,1.36t1-1.36V90.24q.79.74,1.5,1.52T4.78,93.4a5,5,0,0,0,.39.46.73.73,0,0,0,.55.21A.79.79,0,0,0,6.07,94a1.12,1.12,0,0,0,.31-.22,1,1,0,0,0,.21-.31.88.88,0,0,0,.08-.35.94.94,0,0,0-.12-.45,3.24,3.24,0,0,0-.26-.41A17.52,17.52,0,0,0,5,90.8q-.67-.69-1.38-1.34l2.06-2.15a1.44,1.44,0,0,0,.48-.94.84.84,0,0,0-.26-.61.83.83,0,0,0-.6-.26.79.79,0,0,0-.49.18,3.72,3.72,0,0,0-.5.48L1.91,88.91V86.84q0-1.36-1-1.36T0,86.84Z" style="fill:#575656;fill-rule:evenodd"/></g></g></svg>