<svg width="26" height="21" viewBox="0 0 26 21" fill="none" xmlns="http://www.w3.org/2000/svg">
<path d="M24.741 9.48163L15.661 0.401464C15.4018 0.14227 15.0563 -6.36582e-07 14.688 -6.21008e-07C14.3192 -6.05417e-07 13.974 0.142474 13.7148 0.401464L12.8904 1.22606C12.6314 1.48485 12.4887 1.83051 12.4887 2.19906C12.4887 2.56741 12.6314 2.92472 12.8904 3.18351L18.1875 8.49228L1.35832 8.49228C0.599539 8.49228 -1.72695e-07 9.0863 -1.8712e-07 9.84528L-2.09276e-07 11.011C-2.23702e-07 11.77 0.599539 12.4239 1.35832 12.4239L18.2476 12.4239L12.8906 17.7623C12.6316 18.0215 12.4889 18.3578 12.4889 18.7264C12.4889 19.0945 12.6316 19.4357 12.8906 19.6947L13.715 20.5166C13.9742 20.7758 14.3194 20.917 14.6882 20.917C15.0566 20.917 15.402 20.7739 15.6612 20.5148L24.7412 11.4348C25.001 11.1748 25.1439 10.8277 25.1428 10.4587C25.1437 10.0885 25.001 9.74124 24.741 9.48163Z" fill="black" fill-opacity="0.5"/>
</svg>
