<svg width="24" height="19" viewBox="0 0 24 19" fill="none" xmlns="http://www.w3.org/2000/svg">
<path fill-rule="evenodd" clip-rule="evenodd" d="M13 0H11V5H13V0ZM19.75 2.85L21.16 4.26C21.05 4.29 17.6 7.81 17.6 7.81L16.19 6.4L19.75 2.85ZM12 10C16.54 10 20.66 11.78 23.71 14.67C23.89 14.85 24 15.1 24 15.37C24 15.65 23.89 15.9 23.71 16.08L21.23 18.56C21.05 18.74 20.8 18.85 20.52 18.85C20.25 18.85 20 18.75 19.82 18.57C19.03 17.84 18.14 17.21 17.16 16.72C16.83 16.56 16.6 16.21 16.6 15.82V12.72C15.15 12.25 13.6 12 12 12C10.4 12 8.85 12.25 7.4 12.73V15.83C7.4 16.23 7.17 16.57 6.84 16.73C5.87 17.22 4.97 17.84 4.18 18.58C4 18.75 3.75 18.86 3.48 18.86C3.2 18.86 2.95 18.75 2.77 18.57L0.29 16.09C0.11 15.91 0 15.66 0 15.38C0 15.1 0.11 14.85 0.29 14.67C3.34 11.78 7.46 10 12 10ZM7.81 6.4L6.4 7.81C6.4 7.81 2.95 4.29 2.84 4.26L4.26 2.84L7.81 6.4Z" fill="#FF7B17"/>
</svg>
