<svg width="26" height="21" viewBox="0 0 26 21" fill="none" xmlns="http://www.w3.org/2000/svg">
<path d="M0.401615 11.4354L9.48158 20.5155C9.74078 20.7747 10.0862 20.917 10.4546 20.917C10.8233 20.917 11.1686 20.7745 11.4278 20.5155L12.2522 19.6909C12.5112 19.4321 12.6538 19.0865 12.6538 18.7179C12.6538 18.3496 12.5112 17.9923 12.2522 17.7335L6.95505 12.4247L23.7843 12.4247C24.543 12.4247 25.1426 11.8307 25.1426 11.0717L25.1426 9.90595C25.1426 9.14697 24.543 8.49306 23.7843 8.49306L6.89496 8.49306L12.252 3.15465C12.511 2.89545 12.6536 2.55919 12.6536 2.19064C12.6536 1.82249 12.511 1.48133 12.252 1.22234L11.4276 0.400404C11.1684 0.14121 10.8231 -3.83229e-05 10.4544 -3.82783e-05C10.086 -3.82337e-05 9.74057 0.143049 9.48138 0.402243L0.40141 9.48221C0.141603 9.74222 -0.00128052 10.0893 -0.000258153 10.4583C-0.00107638 10.8285 0.141603 11.1758 0.401615 11.4354Z" fill="black" fill-opacity="0.5"/>
</svg>
