<svg width="120" height="121" viewBox="0 0 120 121" fill="none" xmlns="http://www.w3.org/2000/svg">
<g filter="url(#filter0_dd)">
<mask id="path-1-outside-1" maskUnits="userSpaceOnUse" x="17" y="16" width="82" height="82" fill="black">
<rect fill="white" x="17" y="16" width="82" height="82"/>
<path fill-rule="evenodd" clip-rule="evenodd" d="M70.6984 17C74.6422 17 78.2458 18.6089 80.8453 21.5305C83.3122 24.303 84.6708 28.0094 84.6708 31.967C84.6708 38.9297 80.1811 44.1258 75.3291 48.7036C72.8315 51.06 69.9537 53.4891 66.6216 56.3016L66.6155 56.3067C64.6967 57.9259 62.7128 59.6005 60.6047 61.4275C60.1642 61.8092 59.6169 62.0002 59.0697 62.0002C58.5223 62.0002 57.9752 61.8092 57.5347 61.4275C55.4307 59.604 53.4505 57.9326 51.5355 56.3162L51.5233 56.3059L51.5219 56.3048C46.3303 51.9228 41.8466 48.1383 38.7205 44.4566C35.1377 40.2362 33.4688 36.2677 33.4688 31.9669C33.4688 28.0092 34.8275 24.3028 37.2944 21.5303C39.8937 18.6089 43.4973 17 47.4411 17C51.843 17 55.6587 19.0814 58.4758 23.0191C58.687 23.3142 58.8847 23.6094 59.0697 23.9017C59.2548 23.6095 59.4525 23.3142 59.6637 23.0191C62.4808 19.0814 66.2966 17 70.6984 17ZM97.2968 68.7343C97.0155 68.2657 96.6407 67.8906 96.2188 67.5624C94.493 66.0527 91.5854 66.1954 89.8909 68.0313L79.2501 80.3126L78.922 80.6874C77.6096 82.1406 75.7345 82.9376 73.7659 82.9376H55.5784C54.2657 82.9376 53.2346 81.9062 53.2346 80.5938C53.2346 79.2812 54.2657 78.2501 55.5784 78.2501H69.8752C72.4534 78.2501 74.5627 76.1407 74.5627 73.5626V73.5157C74.5159 70.9376 72.4534 68.8751 69.8752 68.8751H61.3909C59.9852 68.8751 58.479 68.359 57.2659 67.3281C51.5473 62.3124 43.2034 61.9843 37.0627 66.2501V95.0781C41.7034 96.3438 46.4846 97.0001 51.3126 97.0001H72.219C77.3751 97.0001 82.2502 94.5624 85.344 90.4374L96.5941 75.4374C98.2352 73.2829 98.359 70.3282 97.2968 68.7343ZM25.3437 64.1875H20.3437C19.0483 64.1875 18 65.2358 18 66.5312V94.6562C18 95.9517 19.0483 97 20.3437 97H25.3437C29.2209 97 32.375 93.8459 32.375 89.9688V71.2188C32.375 67.3416 29.2211 64.1875 25.3437 64.1875Z"/>
</mask>
<path fill-rule="evenodd" clip-rule="evenodd" d="M70.6984 17C74.6422 17 78.2458 18.6089 80.8453 21.5305C83.3122 24.303 84.6708 28.0094 84.6708 31.967C84.6708 38.9297 80.1811 44.1258 75.3291 48.7036C72.8315 51.06 69.9537 53.4891 66.6216 56.3016L66.6155 56.3067C64.6967 57.9259 62.7128 59.6005 60.6047 61.4275C60.1642 61.8092 59.6169 62.0002 59.0697 62.0002C58.5223 62.0002 57.9752 61.8092 57.5347 61.4275C55.4307 59.604 53.4505 57.9326 51.5355 56.3162L51.5233 56.3059L51.5219 56.3048C46.3303 51.9228 41.8466 48.1383 38.7205 44.4566C35.1377 40.2362 33.4688 36.2677 33.4688 31.9669C33.4688 28.0092 34.8275 24.3028 37.2944 21.5303C39.8937 18.6089 43.4973 17 47.4411 17C51.843 17 55.6587 19.0814 58.4758 23.0191C58.687 23.3142 58.8847 23.6094 59.0697 23.9017C59.2548 23.6095 59.4525 23.3142 59.6637 23.0191C62.4808 19.0814 66.2966 17 70.6984 17ZM97.2968 68.7343C97.0155 68.2657 96.6407 67.8906 96.2188 67.5624C94.493 66.0527 91.5854 66.1954 89.8909 68.0313L79.2501 80.3126L78.922 80.6874C77.6096 82.1406 75.7345 82.9376 73.7659 82.9376H55.5784C54.2657 82.9376 53.2346 81.9062 53.2346 80.5938C53.2346 79.2812 54.2657 78.2501 55.5784 78.2501H69.8752C72.4534 78.2501 74.5627 76.1407 74.5627 73.5626V73.5157C74.5159 70.9376 72.4534 68.8751 69.8752 68.8751H61.3909C59.9852 68.8751 58.479 68.359 57.2659 67.3281C51.5473 62.3124 43.2034 61.9843 37.0627 66.2501V95.0781C41.7034 96.3438 46.4846 97.0001 51.3126 97.0001H72.219C77.3751 97.0001 82.2502 94.5624 85.344 90.4374L96.5941 75.4374C98.2352 73.2829 98.359 70.3282 97.2968 68.7343ZM25.3437 64.1875H20.3437C19.0483 64.1875 18 65.2358 18 66.5312V94.6562C18 95.9517 19.0483 97 20.3437 97H25.3437C29.2209 97 32.375 93.8459 32.375 89.9688V71.2188C32.375 67.3416 29.2211 64.1875 25.3437 64.1875Z" fill="url(#paint0_linear)"/>
<path d="M80.8453 21.5305L81.5924 20.8657L81.5924 20.8657L80.8453 21.5305ZM75.3291 48.7036L76.0153 49.431L76.0153 49.431L75.3291 48.7036ZM66.6216 56.3016L67.2665 57.0658L67.2666 57.0658L66.6216 56.3016ZM66.6155 56.3067L67.2604 57.071L67.2604 57.0709L66.6155 56.3067ZM60.6047 61.4275L61.2596 62.1832L61.2596 62.1832L60.6047 61.4275ZM57.5347 61.4275L56.8797 62.1832L56.8798 62.1832L57.5347 61.4275ZM51.5355 56.3162L52.1805 55.5521L52.1803 55.5519L51.5355 56.3162ZM51.5233 56.3059L52.1681 55.5416L52.1678 55.5414L51.5233 56.3059ZM51.5219 56.3048L50.8769 57.0689L50.8774 57.0694L51.5219 56.3048ZM38.7205 44.4566L37.9581 45.1037L37.9582 45.1038L38.7205 44.4566ZM37.2944 21.5303L36.5473 20.8656L36.5473 20.8656L37.2944 21.5303ZM58.4758 23.0191L57.6625 23.6009L57.6626 23.6011L58.4758 23.0191ZM59.0697 23.9017L58.2247 24.4365L59.0691 25.7709L59.9144 24.437L59.0697 23.9017ZM59.6637 23.0191L60.4769 23.6011L60.477 23.6009L59.6637 23.0191ZM96.2188 67.5624L95.5604 68.3151L95.5821 68.3341L95.6049 68.3518L96.2188 67.5624ZM97.2968 68.7343L96.4394 69.2489L96.4515 69.2692L96.4646 69.2889L97.2968 68.7343ZM89.8909 68.0313L89.156 67.3531L89.1454 67.3646L89.1351 67.3765L89.8909 68.0313ZM79.2501 80.3126L80.0025 80.9713L80.0059 80.9674L79.2501 80.3126ZM78.922 80.6874L79.6641 81.3577L79.6693 81.3519L79.6744 81.3461L78.922 80.6874ZM74.5627 73.5157H75.5627V73.5066L75.5626 73.4975L74.5627 73.5157ZM57.2659 67.3281L56.6065 68.0799L56.6124 68.085L56.6183 68.0901L57.2659 67.3281ZM37.0627 66.2501L36.4922 65.4288L36.0627 65.7272V66.2501H37.0627ZM37.0627 95.0781H36.0627V95.8418L36.7996 96.0428L37.0627 95.0781ZM85.344 90.4374L84.544 89.8374L84.544 89.8374L85.344 90.4374ZM96.5941 75.4374L95.7986 74.8315L95.7942 74.8374L96.5941 75.4374ZM81.5924 20.8657C78.8013 17.7288 74.9249 16 70.6984 16V18C74.3595 18 77.6903 19.489 80.0982 22.1952L81.5924 20.8657ZM85.6708 31.967C85.6708 27.782 84.2336 23.8342 81.5924 20.8657L80.0982 22.1952C82.3908 24.7718 83.6708 28.2367 83.6708 31.967H85.6708ZM76.0153 49.431C80.8746 44.8463 85.6708 39.3892 85.6708 31.967H83.6708C83.6708 38.4702 79.4876 43.4053 74.6428 47.9762L76.0153 49.431ZM67.2666 57.0658C70.5929 54.2581 73.4936 51.8101 76.0153 49.431L74.6428 47.9762C72.1694 50.3098 69.3144 52.72 65.9765 55.5374L67.2666 57.0658ZM67.2604 57.0709L67.2665 57.0658L65.9766 55.5374L65.9705 55.5425L67.2604 57.0709ZM61.2596 62.1832C63.3621 60.3611 65.3412 58.6906 67.2604 57.071L65.9705 55.5425C64.0522 57.1613 62.0635 58.8399 59.9498 60.6718L61.2596 62.1832ZM59.0697 63.0002C59.8495 63.0002 60.6314 62.7276 61.2596 62.1832L59.9498 60.6718C59.697 60.8908 59.3843 61.0002 59.0697 61.0002V63.0002ZM56.8798 62.1832C57.508 62.7276 58.2897 63.0002 59.0697 63.0002V61.0002C58.755 61.0002 58.4423 60.8908 58.1896 60.6718L56.8798 62.1832ZM50.8905 57.0804C52.806 58.6972 54.7814 60.3646 56.8797 62.1832L58.1896 60.6718C56.08 58.8434 54.0949 57.168 52.1805 55.5521L50.8905 57.0804ZM50.8785 57.0703L50.8907 57.0806L52.1803 55.5519L52.1681 55.5416L50.8785 57.0703ZM50.8774 57.0694L50.8788 57.0705L52.1678 55.5414L52.1664 55.5402L50.8774 57.0694ZM37.9582 45.1038C41.1499 48.8628 45.7074 52.7056 50.8769 57.0689L52.1669 55.5406C46.9532 51.1399 42.5433 47.4138 39.4827 43.8093L37.9582 45.1038ZM32.4688 31.9669C32.4688 36.5661 34.2669 40.7557 37.9581 45.1037L39.4828 43.8094C36.0084 39.7168 34.4688 35.9692 34.4688 31.9669H32.4688ZM36.5473 20.8656C33.9061 23.834 32.4688 27.7818 32.4688 31.9669H34.4688C34.4688 28.2366 35.7489 24.7716 38.0415 22.195L36.5473 20.8656ZM47.4411 16C43.2147 16 39.3383 17.7288 36.5473 20.8656L38.0415 22.195C40.4492 19.489 43.78 18 47.4411 18V16ZM59.2891 22.4372C56.3061 18.2676 52.2014 16 47.4411 16V18C51.4845 18 55.0114 19.8952 57.6625 23.6009L59.2891 22.4372ZM59.9147 23.367C59.7202 23.0597 59.512 22.7487 59.289 22.437L57.6626 23.6011C57.862 23.8797 58.0491 24.1591 58.2247 24.4365L59.9147 23.367ZM58.8506 22.4371C58.6274 22.7488 58.4193 23.0598 58.225 23.3664L59.9144 24.437C60.0904 24.1592 60.2776 23.8796 60.4769 23.6011L58.8506 22.4371ZM70.6984 16C65.9381 16 61.8334 18.2676 58.8504 22.4372L60.477 23.6009C63.1282 19.8952 66.655 18 70.6984 18V16ZM95.6049 68.3518C95.9626 68.63 96.2402 68.9171 96.4394 69.2489L98.1542 68.2197C97.7909 67.6143 97.3188 67.1511 96.8328 66.7731L95.6049 68.3518ZM90.6257 68.7096C91.9689 67.2543 94.2603 67.1777 95.5604 68.3151L96.8772 66.8098C94.7258 64.9278 91.2019 65.1365 89.156 67.3531L90.6257 68.7096ZM80.0059 80.9674L90.6466 68.6862L89.1351 67.3765L78.4943 79.6578L80.0059 80.9674ZM79.6744 81.3461L80.0025 80.9713L78.4977 79.6539L78.1695 80.0288L79.6744 81.3461ZM73.7659 83.9376C76.0038 83.9376 78.1533 83.0306 79.6641 81.3577L78.1798 80.0172C77.066 81.2505 75.4651 81.9376 73.7659 81.9376V83.9376ZM55.5784 83.9376H73.7659V81.9376H55.5784V83.9376ZM52.2346 80.5938C52.2346 82.4584 53.7133 83.9376 55.5784 83.9376V81.9376C54.8181 81.9376 54.2346 81.354 54.2346 80.5938H52.2346ZM55.5784 77.2501C53.7134 77.2501 52.2346 78.7289 52.2346 80.5938H54.2346C54.2346 79.8335 54.818 79.2501 55.5784 79.2501V77.2501ZM69.8752 77.2501H55.5784V79.2501H69.8752V77.2501ZM73.5627 73.5626C73.5627 75.5884 71.9011 77.2501 69.8752 77.2501V79.2501C73.0057 79.2501 75.5627 76.693 75.5627 73.5626H73.5627ZM73.5627 73.5157V73.5626H75.5627V73.5157H73.5627ZM69.8752 69.8751C71.8977 69.8751 73.5258 71.4904 73.5629 73.5339L75.5626 73.4975C75.506 70.3848 73.009 67.8751 69.8752 67.8751V69.8751ZM61.3909 69.8751H69.8752V67.8751H61.3909V69.8751ZM56.6183 68.0901C58.0133 69.2756 59.7494 69.8751 61.3909 69.8751V67.8751C60.2211 67.8751 58.9447 67.4424 57.9134 66.5661L56.6183 68.0901ZM37.6333 67.0714C43.4067 63.0607 51.2424 63.3751 56.6065 68.0799L57.9253 66.5763C51.8522 61.2497 43 60.908 36.4922 65.4288L37.6333 67.0714ZM38.0627 95.0781V66.2501H36.0627V95.0781H38.0627ZM51.3126 96.0001C46.5755 96.0001 41.8827 95.3562 37.3259 94.1133L36.7996 96.0428C41.524 97.3314 46.3937 98.0001 51.3126 98.0001V96.0001ZM72.219 96.0001H51.3126V98.0001H72.219V96.0001ZM84.544 89.8374C81.6391 93.7106 77.0603 96.0001 72.219 96.0001V98.0001C77.6899 98.0001 82.8614 95.4142 86.144 91.0374L84.544 89.8374ZM95.7942 74.8374L84.544 89.8374L86.144 91.0374L97.3941 76.0374L95.7942 74.8374ZM96.4646 69.2889C96.8374 69.8483 97.0525 70.7422 96.9628 71.7904C96.8744 72.8239 96.4952 73.917 95.7986 74.8315L97.3897 76.0434C98.3342 74.8033 98.8374 73.3419 98.9556 71.9609C99.0725 70.5947 98.8183 69.2143 98.1289 68.1798L96.4646 69.2889ZM20.3437 65.1875H25.3437V63.1875H20.3437V65.1875ZM19 66.5312C19 65.7881 19.6006 65.1875 20.3437 65.1875V63.1875C18.496 63.1875 17 64.6835 17 66.5312H19ZM19 94.6562V66.5312H17V94.6562H19ZM20.3437 96C19.6006 96 19 95.3994 19 94.6562H17C17 96.504 18.496 98 20.3437 98V96ZM25.3437 96H20.3437V98H25.3437V96ZM31.375 89.9688C31.375 93.2936 28.6687 96 25.3437 96V98C29.7732 98 33.375 94.3982 33.375 89.9688H31.375ZM31.375 71.2188V89.9688H33.375V71.2188H31.375ZM25.3437 65.1875C28.6688 65.1875 31.375 67.8938 31.375 71.2188H33.375C33.375 66.7893 29.7734 63.1875 25.3437 63.1875V65.1875Z" fill="url(#paint1_linear)" mask="url(#path-1-outside-1)"/>
</g>
<defs>
<filter id="filter0_dd" x="0" y="0" width="119.983" height="121" filterUnits="userSpaceOnUse" color-interpolation-filters="sRGB">
<feFlood flood-opacity="0" result="BackgroundImageFix"/>
<feColorMatrix in="SourceAlpha" type="matrix" values="0 0 0 0 0 0 0 0 0 0 0 0 0 0 0 0 0 0 127 0"/>
<feOffset dx="-2" dy="-1"/>
<feGaussianBlur stdDeviation="7.5"/>
<feColorMatrix type="matrix" values="0 0 0 0 1 0 0 0 0 1 0 0 0 0 1 0 0 0 0.82 0"/>
<feBlend mode="normal" in2="BackgroundImageFix" result="effect1_dropShadow"/>
<feColorMatrix in="SourceAlpha" type="matrix" values="0 0 0 0 0 0 0 0 0 0 0 0 0 0 0 0 0 0 127 0"/>
<feOffset dx="6" dy="8"/>
<feGaussianBlur stdDeviation="7.5"/>
<feColorMatrix type="matrix" values="0 0 0 0 0 0 0 0 0 0 0 0 0 0 0 0 0 0 0.04 0"/>
<feBlend mode="normal" in2="effect1_dropShadow" result="effect2_dropShadow"/>
<feBlend mode="normal" in="SourceGraphic" in2="effect2_dropShadow" result="shape"/>
</filter>
<linearGradient id="paint0_linear" x1="18" y1="17" x2="98" y2="97" gradientUnits="userSpaceOnUse">
<stop stop-color="#ECECEC"/>
<stop offset="1" stop-color="#D7D7D7"/>
</linearGradient>
<linearGradient id="paint1_linear" x1="18" y1="17" x2="98" y2="97" gradientUnits="userSpaceOnUse">
<stop stop-color="white"/>
<stop offset="1" stop-color="white" stop-opacity="0"/>
</linearGradient>
</defs>
</svg>
