<svg width="120" height="121" viewBox="0 0 120 121" fill="none" xmlns="http://www.w3.org/2000/svg">
<g filter="url(#filter0_dd)">
<path d="M86.6251 87.6255V87.1255H86.1251H29.8751H29.3751V87.6255V94.6563C29.3751 96.2268 30.6483 97.4999 32.2188 97.4999H83.7813C85.3518 97.4999 86.6251 96.2268 86.6251 94.6563V87.6255Z" fill="url(#paint0_linear)" stroke="url(#paint1_linear)"/>
<path d="M67.8751 17.0044V16.5044H67.3751H48.6251H48.1251V17.0044V24.1914C48.1251 29.6367 52.5546 34.066 58.0001 34.066C63.4456 34.066 67.8751 29.6368 67.8751 24.1914V17.0044Z" fill="url(#paint2_linear)" stroke="url(#paint3_linear)"/>
<path d="M58.4072 51.2401L58.0001 50.6687L57.5929 51.2401C56.1341 53.2871 54.3621 55.9981 52.9525 58.7178C51.5543 61.4156 50.4688 64.2026 50.4688 66.3751C50.4688 70.5283 53.8469 73.9064 58.0001 73.9064C62.1532 73.9064 65.5313 70.5283 65.5313 66.3751C65.5313 64.2026 64.4459 61.4156 63.0477 58.7179C61.6381 55.9983 59.8661 53.2873 58.4072 51.2401Z" fill="url(#paint4_linear)" stroke="url(#paint5_linear)"/>
<path d="M80.0521 16.62L80.0521 16.6199C80.0389 16.6161 80.0257 16.6121 80.0122 16.608C79.9218 16.5807 79.8208 16.5501 79.6462 16.5321C79.4723 16.5142 79.2139 16.5066 78.7527 16.5029C78.2241 16.4987 77.3986 16.4998 76.072 16.5015C75.0584 16.5028 73.7523 16.5045 72.0625 16.5045H71.5625V17.0045V24.1915C71.5625 31.669 65.478 37.7533 58 37.7533C50.5221 37.7533 44.4375 31.669 44.4375 24.1915V17.0045V16.5045H43.9375C42.2819 16.5045 41.0026 16.5028 40.0101 16.5015C38.7171 16.4998 37.9108 16.4988 37.3934 16.5029C36.941 16.5065 36.6864 16.514 36.5143 16.5315C36.3409 16.5493 36.2404 16.5793 36.1496 16.6065C36.1367 16.6104 36.1239 16.6142 36.1111 16.6179C36.1111 16.6179 36.1111 16.6179 36.1111 16.6179L19.5486 21.4412L19.5486 21.4412C18.3348 21.7947 17.5 22.907 17.5 24.1714V47.4715C17.5 49.0421 18.7733 50.3151 20.3438 50.3151H29.375V82.9383V83.4383H29.875H86.125H86.625V82.9383V50.3151H95.6563C97.2267 50.3151 98.5 49.0421 98.5 47.4715V24.1714C98.5 22.9097 97.6687 21.7991 96.4584 21.4432L80.0521 16.62ZM79.9111 17.0996L79.9111 17.0996L79.9111 17.0996ZM51.7424 53.397L51.3166 53.135L51.7424 53.397C54.1189 49.5351 56.4669 46.5901 56.5604 46.4733C57.2977 45.5517 58.7022 45.5512 59.4399 46.4733C59.5334 46.5901 61.8814 49.5351 64.2579 53.397C67.587 58.807 69.2188 63.1626 69.2188 66.375C69.2188 72.5606 64.1856 77.5937 58 77.5937C51.8144 77.5937 46.7813 72.5606 46.7813 66.375C46.7813 63.1626 48.413 58.8071 51.7424 53.397Z" fill="url(#paint6_linear)" stroke="url(#paint7_linear)"/>
</g>
<defs>
<filter id="filter0_dd" x="0" y="0" width="120" height="121" filterUnits="userSpaceOnUse" color-interpolation-filters="sRGB">
<feFlood flood-opacity="0" result="BackgroundImageFix"/>
<feColorMatrix in="SourceAlpha" type="matrix" values="0 0 0 0 0 0 0 0 0 0 0 0 0 0 0 0 0 0 127 0"/>
<feOffset dx="-2" dy="-1"/>
<feGaussianBlur stdDeviation="7.5"/>
<feColorMatrix type="matrix" values="0 0 0 0 1 0 0 0 0 1 0 0 0 0 1 0 0 0 0.82 0"/>
<feBlend mode="normal" in2="BackgroundImageFix" result="effect1_dropShadow"/>
<feColorMatrix in="SourceAlpha" type="matrix" values="0 0 0 0 0 0 0 0 0 0 0 0 0 0 0 0 0 0 127 0"/>
<feOffset dx="6" dy="8"/>
<feGaussianBlur stdDeviation="7.5"/>
<feColorMatrix type="matrix" values="0 0 0 0 0 0 0 0 0 0 0 0 0 0 0 0 0 0 0.04 0"/>
<feBlend mode="normal" in2="effect1_dropShadow" result="effect2_dropShadow"/>
<feBlend mode="normal" in="SourceGraphic" in2="effect2_dropShadow" result="shape"/>
</filter>
<linearGradient id="paint0_linear" x1="29.8751" y1="87.6255" x2="32.9146" y2="105.868" gradientUnits="userSpaceOnUse">
<stop stop-color="#ECECEC"/>
<stop offset="1" stop-color="#D7D7D7"/>
</linearGradient>
<linearGradient id="paint1_linear" x1="29.8751" y1="87.6255" x2="32.9146" y2="105.868" gradientUnits="userSpaceOnUse">
<stop stop-color="white"/>
<stop offset="1" stop-color="white" stop-opacity="0"/>
</linearGradient>
<linearGradient id="paint2_linear" x1="48.6251" y1="17.0044" x2="65.0594" y2="35.6144" gradientUnits="userSpaceOnUse">
<stop stop-color="#ECECEC"/>
<stop offset="1" stop-color="#D7D7D7"/>
</linearGradient>
<linearGradient id="paint3_linear" x1="48.6251" y1="17.0044" x2="65.0594" y2="35.6144" gradientUnits="userSpaceOnUse">
<stop stop-color="white"/>
<stop offset="1" stop-color="white" stop-opacity="0"/>
</linearGradient>
<linearGradient id="paint4_linear" x1="50.9688" y1="51.5303" x2="70.8719" y2="64.3272" gradientUnits="userSpaceOnUse">
<stop stop-color="#ECECEC"/>
<stop offset="1" stop-color="#D7D7D7"/>
</linearGradient>
<linearGradient id="paint5_linear" x1="50.9688" y1="51.5303" x2="70.8719" y2="64.3272" gradientUnits="userSpaceOnUse">
<stop stop-color="white"/>
<stop offset="1" stop-color="white" stop-opacity="0"/>
</linearGradient>
<linearGradient id="paint6_linear" x1="18" y1="17" x2="82.7225" y2="95.5417" gradientUnits="userSpaceOnUse">
<stop stop-color="#ECECEC"/>
<stop offset="1" stop-color="#D7D7D7"/>
</linearGradient>
<linearGradient id="paint7_linear" x1="18" y1="17" x2="82.7225" y2="95.5417" gradientUnits="userSpaceOnUse">
<stop stop-color="white"/>
<stop offset="1" stop-color="white" stop-opacity="0"/>
</linearGradient>
</defs>
</svg>
