<svg width="25" height="32" viewBox="0 0 25 32" fill="none" xmlns="http://www.w3.org/2000/svg">
<path d="M17.42 0H0.836C0.374286 0 0 0.374286 0 1.10057V31.4286C0 31.6257 0.374286 32 0.836 32H23.7354C24.1971 32 24.5714 31.6257 24.5714 31.4286V7.416C24.5714 7.01829 24.5183 6.89029 24.4246 6.796L17.7754 0.146857C17.6811 0.0531429 17.5531 0 17.42 0Z" fill="#E9E9E0"/>
<path d="M17.7139 0.0861816V6.85704H24.4847L17.7139 0.0861816Z" fill="#D9D7CA"/>
<path d="M6.62629 18.5233C6.42744 18.5233 6.23658 18.4588 6.07372 18.337C5.47887 17.8908 5.39887 17.3942 5.43658 17.0559C5.54058 16.1256 6.69087 15.1519 8.85658 14.1599C9.71601 12.2765 10.5337 9.95589 11.0212 8.01704C10.4509 6.7759 9.89658 5.16561 10.3006 4.22104C10.4423 3.89018 10.6189 3.63647 10.9486 3.52675C11.0789 3.48332 11.408 3.42847 11.5292 3.42847C11.8172 3.42847 12.0703 3.79932 12.2497 4.0279C12.4183 4.24275 12.8006 4.69818 12.0366 7.91475C12.8069 9.50561 13.8983 11.1262 14.944 12.2359C15.6932 12.1005 16.3377 12.0313 16.8629 12.0313C17.7577 12.0313 18.3 12.2399 18.5212 12.6696C18.704 13.025 18.6291 13.4405 18.2983 13.9039C17.98 14.349 17.5412 14.5845 17.0297 14.5845C16.3349 14.5845 15.5257 14.1456 14.6234 13.2788C13.0023 13.6176 11.1092 14.2222 9.57887 14.8913C9.10115 15.905 8.64344 16.7216 8.21715 17.3205C7.63144 18.1405 7.12629 18.5233 6.62629 18.5233ZM8.14744 15.5942C6.92629 16.2805 6.42858 16.8445 6.39258 17.1622C6.38687 17.2148 6.37144 17.353 6.63887 17.5576C6.72401 17.5308 7.22115 17.3039 8.14744 15.5942ZM15.94 13.0559C16.4057 13.4142 16.5194 13.5953 16.824 13.5953C16.9577 13.5953 17.3389 13.5896 17.5154 13.3433C17.6006 13.2239 17.6337 13.1473 17.6469 13.1062C17.5766 13.069 17.4834 12.9936 16.9754 12.9936C16.6869 12.9942 16.324 13.0068 15.94 13.0559ZM11.6714 9.29475C11.2629 10.7085 10.7234 12.2348 10.1434 13.617C11.3377 13.1536 12.636 12.749 13.8554 12.4628C13.084 11.5668 12.3132 10.4479 11.6714 9.29475ZM11.3246 4.45932C11.2686 4.47818 10.5646 5.46332 11.3794 6.29704C11.9217 5.08847 11.3492 4.45132 11.3246 4.45932Z" fill="#CC4B4C"/>
<path d="M23.7354 31.9999H0.836C0.374286 31.9999 0 31.6256 0 31.1639V22.2856H24.5714V31.1639C24.5714 31.6256 24.1971 31.9999 23.7354 31.9999Z" fill="#CC4B4C"/>
<path d="M6.21994 30.2855H5.28223V24.5278H6.93823C7.1828 24.5278 7.42508 24.5667 7.66451 24.645C7.90394 24.7233 8.1188 24.8404 8.30908 24.9964C8.49937 25.1524 8.65308 25.3415 8.77023 25.5627C8.88737 25.7838 8.94623 26.0324 8.94623 26.309C8.94623 26.601 8.89651 26.865 8.79765 27.1021C8.6988 27.3393 8.56051 27.5387 8.38337 27.6998C8.20623 27.861 7.99251 27.9861 7.7428 28.0747C7.49308 28.1633 7.21651 28.2073 6.9148 28.2073H6.21937V30.2855H6.21994ZM6.21994 25.2387V27.5198H7.07937C7.19365 27.5198 7.3068 27.5004 7.41937 27.461C7.53137 27.4221 7.63423 27.3581 7.72794 27.2695C7.82165 27.181 7.89708 27.0575 7.95423 26.8987C8.01137 26.7398 8.03994 26.5433 8.03994 26.309C8.03994 26.2153 8.0268 26.1067 8.00108 25.985C7.9748 25.8627 7.92165 25.7455 7.84108 25.6335C7.75994 25.5215 7.6468 25.4278 7.50108 25.3524C7.35537 25.277 7.16223 25.2393 6.9228 25.2393H6.21994V25.2387Z" fill="white"/>
<path d="M14.6964 27.2467C14.6964 27.7204 14.6456 28.1255 14.5439 28.4615C14.4421 28.7975 14.3136 29.0787 14.157 29.3055C14.0004 29.5324 13.825 29.7107 13.6296 29.841C13.4341 29.9713 13.2456 30.0684 13.0633 30.1341C12.881 30.1993 12.7141 30.241 12.5633 30.2593C12.4124 30.2764 12.3004 30.2855 12.2273 30.2855H10.0479V24.5278H11.7821C12.2667 24.5278 12.6924 24.605 13.0593 24.7581C13.4261 24.9113 13.7313 25.1164 13.9736 25.3713C14.2159 25.6261 14.3964 25.917 14.5164 26.2421C14.6364 26.5678 14.6964 26.9027 14.6964 27.2467ZM11.9153 29.5981C12.5507 29.5981 13.009 29.3953 13.2901 28.989C13.5713 28.5827 13.7119 27.9941 13.7119 27.2233C13.7119 26.9838 13.6833 26.7467 13.6261 26.5124C13.5684 26.2781 13.4581 26.0661 13.2941 25.8758C13.1301 25.6855 12.9073 25.5318 12.6261 25.4147C12.345 25.2975 11.9804 25.2387 11.5324 25.2387H10.9856V29.5981H11.9153Z" fill="white"/>
<path d="M17.0088 25.2387V27.0513H19.4151V27.6918H17.0088V30.2855H16.0557V24.5278H19.6568V25.2387H17.0088Z" fill="white"/>
</svg>
