<svg width="120" height="121" viewBox="0 0 120 121" fill="none" xmlns="http://www.w3.org/2000/svg">
<g filter="url(#filter0_dd)">
<path d="M34.3435 24.1667H35.2004L32.665 26.0747C30.6223 27.7511 28.7489 29.6252 27.0728 31.6678C27.0131 31.7407 26.9581 31.8171 26.903 31.8936C26.8544 31.9611 26.8058 32.0286 26.7541 32.0936M34.3435 24.1667C34.5743 23.9976 34.8074 23.8308 35.0428 23.6667H33C28.4037 23.6667 24.6667 27.4053 24.6667 32V34.0428C24.8308 33.8071 24.9976 33.5738 25.1667 33.3426M34.3435 24.1667H33C28.68 24.1667 25.1667 27.6814 25.1667 32V33.3426M34.3435 24.1667C33.8242 24.5471 33.3157 24.9392 32.8149 25.3383M25.1667 33.3426V34.2003C25.6729 33.4803 26.2054 32.7805 26.7541 32.0936M25.1667 33.3426C25.5547 32.8121 25.955 32.2928 26.3632 31.7818M26.7541 32.0936L26.3634 31.7815C26.3633 31.7816 26.3632 31.7817 26.3632 31.7818M26.7541 32.0936L26.3629 31.7822C26.363 31.782 26.3631 31.7819 26.3632 31.7818M26.3632 31.7818C26.4071 31.7267 26.449 31.6685 26.4995 31.5983L26.507 31.5879C26.5584 31.5166 26.6187 31.4331 26.686 31.351L26.6863 31.3506C28.3831 29.2827 30.2798 27.3854 32.3478 25.6882L32.3484 25.6877C32.436 25.616 32.5254 25.5514 32.6027 25.4957L32.6147 25.4871C32.6904 25.4325 32.7543 25.3865 32.8149 25.3383M32.8149 25.3383L33.1261 25.7296L32.8144 25.3387C32.8146 25.3386 32.8148 25.3384 32.8149 25.3383ZM33.5 89.8333V89.8334H34.3435C33.8242 89.4531 33.3157 89.061 32.8149 88.6619C32.7544 88.6137 32.6905 88.5677 32.6148 88.5132L32.6026 88.5045C32.5254 88.4488 32.4359 88.3841 32.3482 88.3123L32.3478 88.312C30.2798 86.6146 28.3833 84.7175 26.6863 82.6495L26.6859 82.6491C26.6188 82.5671 26.5584 82.4836 26.5071 82.4124L26.4998 82.4023C26.4493 82.3321 26.4073 82.2738 26.3634 82.2186C26.3632 82.2184 26.3631 82.2182 26.3629 82.218L26.7541 81.9066C26.2054 81.2196 25.6729 80.5198 25.1667 79.7997L33.5 89.8333ZM33.5 89.8333H33C28.6798 89.8333 25.1667 86.3186 25.1667 82V80.6575L33.5 89.8333ZM83.6531 88.311L83.6526 88.3115C83.563 88.3848 83.4715 88.451 83.3922 88.5081L83.3786 88.5179C83.3017 88.5733 83.2363 88.6204 83.1741 88.6698M83.6531 88.311L80.7993 89.8333C81.504 89.3371 82.189 88.8153 82.8625 88.2787L83.1735 88.6702C83.1737 88.6701 83.1739 88.67 83.1741 88.6698M83.6531 88.311C85.7204 86.6144 87.6162 84.7179 89.3126 82.6509L89.3127 82.6508C89.3824 82.5658 89.445 82.4791 89.4984 82.4049L89.5071 82.3928C89.5592 82.3204 89.6028 82.2598 89.6483 82.2025C90.0523 81.6963 90.4488 81.1821 90.8333 80.6569M83.6531 88.311L90.8333 80.6569M83.1741 88.6698C82.6767 89.0661 82.1717 89.4555 81.6561 89.8333H83C87.32 89.8333 90.8333 86.3186 90.8333 82V80.6569M83.1741 88.6698L90.8333 80.6569M83.1741 25.3302C82.6767 24.9339 82.1717 24.5445 81.6561 24.1667H83C87.3202 24.1667 90.8333 27.6814 90.8333 32V33.3433C90.4489 32.8182 90.0525 32.3041 89.6488 31.7981M83.1741 25.3302L82.8625 25.7213L83.1735 25.3298C83.1737 25.3299 83.1739 25.33 83.1741 25.3302ZM83.1741 25.3302C83.2363 25.3796 83.3018 25.4268 83.379 25.4823L83.3922 25.4919C83.4715 25.549 83.563 25.6152 83.6526 25.6885L83.6532 25.689C85.7202 27.3855 87.6162 29.2819 89.3126 31.3491L89.3129 31.3494C89.3824 31.4343 89.445 31.5209 89.4984 31.5951L89.507 31.6072C89.5593 31.6798 89.603 31.7406 89.6488 31.7981M89.6488 31.7981C89.6486 31.7979 89.6485 31.7977 89.6483 31.7975L89.2575 32.1094L89.6488 31.7982C89.6488 31.7981 89.6488 31.7981 89.6488 31.7981ZM95.1667 40.9574V32C95.1667 25.2915 89.7085 19.8333 83 19.8333H74.0428C69.1193 17.6996 63.6997 16.5 58 16.5C52.3003 16.5 46.8807 17.6996 41.9572 19.8333H33C26.2915 19.8333 20.8333 25.2915 20.8333 32V40.9574C18.6996 45.881 17.5 51.3004 17.5 57C17.5 62.6996 18.6996 68.119 20.8333 73.0426V82C20.8333 88.7085 26.2915 94.1667 33 94.1667H41.9572C46.8807 96.3004 52.3003 97.5 58 97.5C63.6997 97.5 69.1193 96.3004 74.0428 94.1667H83C89.7085 94.1667 95.1667 88.7085 95.1667 82V73.0426C97.3004 68.119 98.5 62.6996 98.5 57C98.5 51.3004 97.3004 45.881 95.1667 40.9574ZM65.6254 34.4246L67.1157 25.4937C77.8914 28.6175 86.3832 37.1092 89.5065 47.8857L80.5757 49.3748C78.1992 42.3583 72.6414 36.8011 65.6254 34.4246ZM35.4243 49.3748L26.4935 47.8857C29.6168 37.1092 38.1086 28.6175 48.8843 25.4937L50.3746 34.4246C43.3586 36.8011 37.8008 42.3583 35.4243 49.3748ZM50.3746 79.5753L48.8843 88.5063C38.1087 85.3825 29.6168 76.8909 26.4935 66.1146L35.4243 64.6253C37.8008 71.6418 43.3586 77.1989 50.3746 79.5753ZM41.8333 57C41.8333 48.0866 49.0866 40.8333 58 40.8333C66.9134 40.8333 74.1667 48.0868 74.1667 57C74.1667 65.9132 66.9134 73.1667 58 73.1667C49.0866 73.1667 41.8333 65.9134 41.8333 57ZM89.5064 66.1148C86.3832 76.8909 77.8913 85.3825 67.1157 88.5063L65.6254 79.5754C72.6414 77.1989 78.1992 71.6418 80.5757 64.6255L89.5064 66.1148Z" fill="url(#paint0_linear)" stroke="url(#paint1_linear)"/>
</g>
<defs>
<filter id="filter0_dd" x="0" y="0" width="120" height="121" filterUnits="userSpaceOnUse" color-interpolation-filters="sRGB">
<feFlood flood-opacity="0" result="BackgroundImageFix"/>
<feColorMatrix in="SourceAlpha" type="matrix" values="0 0 0 0 0 0 0 0 0 0 0 0 0 0 0 0 0 0 127 0"/>
<feOffset dx="-2" dy="-1"/>
<feGaussianBlur stdDeviation="7.5"/>
<feColorMatrix type="matrix" values="0 0 0 0 1 0 0 0 0 1 0 0 0 0 1 0 0 0 0.82 0"/>
<feBlend mode="normal" in2="BackgroundImageFix" result="effect1_dropShadow"/>
<feColorMatrix in="SourceAlpha" type="matrix" values="0 0 0 0 0 0 0 0 0 0 0 0 0 0 0 0 0 0 127 0"/>
<feOffset dx="6" dy="8"/>
<feGaussianBlur stdDeviation="7.5"/>
<feColorMatrix type="matrix" values="0 0 0 0 0 0 0 0 0 0 0 0 0 0 0 0 0 0 0.04 0"/>
<feBlend mode="normal" in2="effect1_dropShadow" result="effect2_dropShadow"/>
<feBlend mode="normal" in="SourceGraphic" in2="effect2_dropShadow" result="shape"/>
</filter>
<linearGradient id="paint0_linear" x1="18" y1="17" x2="97.9999" y2="97.017" gradientUnits="userSpaceOnUse">
<stop stop-color="#ECECEC"/>
<stop offset="1" stop-color="#D7D7D7"/>
</linearGradient>
<linearGradient id="paint1_linear" x1="18" y1="17" x2="97.9999" y2="97.017" gradientUnits="userSpaceOnUse">
<stop stop-color="white"/>
<stop offset="1" stop-color="white" stop-opacity="0"/>
</linearGradient>
</defs>
</svg>
