<svg width="708" height="119" viewBox="0 0 708 119" fill="none" xmlns="http://www.w3.org/2000/svg">
<path d="M27.5078 22.0664C27.8359 22.3398 28.1732 22.8776 28.5195 23.6797C28.8659 24.4818 29.0391 25.4206 29.0391 26.4961C29.0391 27.681 28.7201 28.9206 28.082 30.2148C27.4622 31.4909 26.5781 32.8854 25.4297 34.3984C23.3698 37.0964 21.4375 39.1107 19.6328 40.4414C17.8464 41.7539 16.3242 42.4102 15.0664 42.4102C14.1732 42.4102 13.1979 42.0091 12.1406 41.207C11.0833 40.3867 10.2812 39.6302 9.73438 38.9375C9.47917 39.2839 9.16927 39.694 8.80469 40.168C8.45833 40.6419 8.10286 41.0339 7.73828 41.3438C7.39193 41.6536 7.01823 41.8086 6.61719 41.8086C6.17969 41.8086 5.76953 41.6628 5.38672 41.3711C5.00391 41.0794 4.57552 40.651 4.10156 40.0859C3.6276 39.5208 3.34505 39.1927 3.25391 39.1016C3.03516 38.8828 2.65234 38.5729 2.10547 38.1719C1.55859 37.7708 1.13932 37.3424 0.847656 36.8867C0.55599 36.431 0.410156 35.8385 0.410156 35.1094C0.410156 34.3984 0.647135 33.569 1.12109 32.6211C1.94141 30.9987 2.7526 29.3672 3.55469 27.7266C4.35677 26.0677 5.29557 24.0898 6.37109 21.793C7.44661 19.4779 8.30339 17.6185 8.94141 16.2148C9.57943 14.8112 10.026 13.8086 10.2812 13.207C9.77083 12.7695 9.41536 12.4232 9.21484 12.168C9.01432 11.9128 8.86849 11.5482 8.77734 11.0742C8.6862 10.6003 8.6224 9.96224 8.58594 9.16016C8.56771 8.33984 8.55859 6.97266 8.55859 5.05859C8.55859 4.80339 8.65885 4.51172 8.85938 4.18359C9.0599 3.85547 9.29688 3.61849 9.57031 3.47266C10.1719 3.1263 11.1289 2.7526 12.4414 2.35156C13.7539 1.95052 15.276 1.6224 17.0078 1.36719C18.7396 1.11198 20.4714 0.984375 22.2031 0.984375C25.9583 0.984375 28.8841 1.8776 30.9805 3.66406C33.0768 5.43229 34.125 8.08464 34.125 11.6211C34.125 13.6263 33.4688 15.513 32.1562 17.2812C30.862 19.0312 29.3125 20.6263 27.5078 22.0664ZM24.2539 11.0742C24.2539 10.5638 23.7435 10.3086 22.7227 10.3086C22.2852 10.3086 21.8294 10.3906 21.3555 10.5547C20.6263 12.1953 19.9792 13.9089 19.4141 15.6953C20.3073 15.3672 21.3372 14.6471 22.5039 13.5352C23.6706 12.4232 24.2539 11.6029 24.2539 11.0742ZM18.7031 25.7578C18.7031 24.9375 18.2565 24.5273 17.3633 24.5273C16.8893 24.5273 16.4701 24.6276 16.1055 24.8281C15.9414 25.1198 15.7044 25.612 15.3945 26.3047C15.0846 26.9792 14.7018 27.8359 14.2461 28.875C13.7904 29.8958 13.4349 30.6888 13.1797 31.2539C13.7448 31.2539 14.4102 31.0443 15.1758 30.625C15.9596 30.1875 16.7253 29.4948 17.4727 28.5469C17.7279 28.2552 17.9922 27.8086 18.2656 27.207C18.5573 26.6055 18.7031 26.1224 18.7031 25.7578Z" fill="#FF7B17"/>
<path d="M51.0234 37.5703C49.4922 39.138 48.043 40.3958 46.6758 41.3438C45.3086 42.2917 43.9232 42.7656 42.5195 42.7656C41.4076 42.7656 40.168 42.5378 38.8008 42.082C37.4518 41.6445 36.3125 41.0612 35.3828 40.332C34.1068 39.3112 33.1771 38.1719 32.5938 36.9141C32.0104 35.6562 31.7188 34.2617 31.7188 32.7305C31.7188 28.7018 32.6484 24.9375 34.5078 21.4375C36.3672 17.9375 39.2292 14.7383 43.0938 11.8398C43.6589 11.4023 44.3151 11.1836 45.0625 11.1836C45.5729 11.1836 46.0104 11.2656 46.375 11.4297C46.7396 11.5755 47.0495 11.7852 47.3047 12.0586C47.5781 12.3138 47.8971 12.6966 48.2617 13.207C48.6263 13.6992 49.0911 14.3646 49.6562 15.2031C52.3906 15.513 54.0404 15.9323 54.6055 16.4609C55.6445 17.4635 56.1641 20.0156 56.1641 24.1172C56.1641 25.5391 55.9909 27.0703 55.6445 28.7109C55.2982 30.3516 54.7331 31.9466 53.9492 33.4961C53.1836 35.0273 52.2083 36.3854 51.0234 37.5703ZM42.3555 33.2227C43.0117 32.5664 43.7409 31.5911 44.543 30.2969C45.3451 28.9844 46.0195 27.681 46.5664 26.3867C47.1315 25.0742 47.4141 24.0807 47.4141 23.4062C47.4141 22.2396 47.1224 21.6562 46.5391 21.6562C46.3021 21.6562 46.0286 21.8294 45.7188 22.1758C44.7344 23.3789 43.8229 24.8646 42.9844 26.6328C42.1641 28.401 41.5534 30.1419 41.1523 31.8555C41.0794 32.1289 41.043 32.457 41.043 32.8398C41.043 33.4414 41.1979 33.7422 41.5078 33.7422C41.763 33.7422 42.0456 33.569 42.3555 33.2227Z" fill="#FF7B17"/>
<path d="M76.0703 42.957C75.5052 42.957 75.0039 42.8294 74.5664 42.5742C74.1471 42.319 73.6732 41.9909 73.1445 41.5898C72.6341 41.1888 72.306 40.9701 72.1602 40.9336C71.0664 40.6055 70.2005 40.2135 69.5625 39.7578C68.9427 39.2839 68.6328 38.5 68.6328 37.4062C68.6328 36.9141 68.7057 36.3398 68.8516 35.6836C69.0156 35.0091 69.3346 33.8607 69.8086 32.2383C70.2826 30.5977 70.6471 29.2852 70.9023 28.3008C71.1758 27.2982 71.3398 26.4961 71.3945 25.8945C70.6471 27.0794 69.918 28.3281 69.207 29.6406C68.4961 30.9349 67.8672 32.1745 67.3203 33.3594C66.7734 34.5443 66.2083 35.7656 65.625 37.0234C65.0599 38.263 64.6589 39.1198 64.4219 39.5938C64.1849 40.1042 63.7839 40.6055 63.2188 41.0977C62.6536 41.5898 62.0339 41.8359 61.3594 41.8359C60.7214 41.8359 60.1471 41.6992 59.6367 41.4258C59.1263 41.1341 58.5794 40.6328 57.9961 39.9219C57.7591 39.6302 57.3763 39.3477 56.8477 39.0742C56.319 38.7826 55.918 38.4909 55.6445 38.1992C55.3711 37.9076 55.2344 37.4609 55.2344 36.8594C55.2344 35.3464 55.8906 33.3958 57.2031 31.0078C58.5156 28.6198 60.4844 25.8763 63.1094 22.7773C65.7344 19.6602 68.9336 16.3516 72.707 12.8516C73.4909 12.1771 74.4115 11.8398 75.4688 11.8398C76.3255 11.8398 77.4466 12.3776 78.832 13.4531C79.5247 13.9818 80.0807 14.5195 80.5 15.0664C80.9193 15.6133 81.1289 16.3698 81.1289 17.3359C81.1289 18.1198 81.0195 19.5143 80.8008 21.5195C80.6003 23.5065 80.418 25.1654 80.2539 26.4961C80.1081 27.8086 79.9167 29.4857 79.6797 31.5273C79.4427 33.569 79.2148 35.7656 78.9961 38.1172C78.8503 39.7578 78.6042 40.9792 78.2578 41.7812C77.9297 42.5651 77.2005 42.957 76.0703 42.957Z" fill="#FF7B17"/>
<path d="M105.602 37.5703C104.07 39.138 102.621 40.3958 101.254 41.3438C99.8867 42.2917 98.5013 42.7656 97.0977 42.7656C95.9857 42.7656 94.7461 42.5378 93.3789 42.082C92.0299 41.6445 90.8906 41.0612 89.9609 40.332C88.6849 39.3112 87.7552 38.1719 87.1719 36.9141C86.5885 35.6562 86.2969 34.2617 86.2969 32.7305C86.2969 28.7018 87.2266 24.9375 89.0859 21.4375C90.9453 17.9375 93.8073 14.7383 97.6719 11.8398C98.237 11.4023 98.8932 11.1836 99.6406 11.1836C100.151 11.1836 100.589 11.2656 100.953 11.4297C101.318 11.5755 101.628 11.7852 101.883 12.0586C102.156 12.3138 102.475 12.6966 102.84 13.207C103.204 13.6992 103.669 14.3646 104.234 15.2031C106.969 15.513 108.618 15.9323 109.184 16.4609C110.223 17.4635 110.742 20.0156 110.742 24.1172C110.742 25.5391 110.569 27.0703 110.223 28.7109C109.876 30.3516 109.311 31.9466 108.527 33.4961C107.762 35.0273 106.786 36.3854 105.602 37.5703ZM96.9336 33.2227C97.5898 32.5664 98.319 31.5911 99.1211 30.2969C99.9232 28.9844 100.598 27.681 101.145 26.3867C101.71 25.0742 101.992 24.0807 101.992 23.4062C101.992 22.2396 101.701 21.6562 101.117 21.6562C100.88 21.6562 100.607 21.8294 100.297 22.1758C99.3125 23.3789 98.401 24.8646 97.5625 26.6328C96.7422 28.401 96.1315 30.1419 95.7305 31.8555C95.6576 32.1289 95.6211 32.457 95.6211 32.8398C95.6211 33.4414 95.776 33.7422 96.0859 33.7422C96.3411 33.7422 96.6237 33.569 96.9336 33.2227Z" fill="#FF7B17"/>
<path d="M130.648 42.4648C130.138 42.4648 129.719 42.3828 129.391 42.2188C129.081 42.0547 128.671 41.7812 128.16 41.3984C127.668 40.9974 127.212 40.6875 126.793 40.4688C125.189 39.612 124.387 38.5638 124.387 37.3242C124.387 36.6315 124.514 35.9479 124.77 35.2734C125.043 34.5807 125.417 33.6875 125.891 32.5938C126.365 31.5 126.647 30.6797 126.738 30.1328H124.441C123.986 31.0625 123.521 32.1016 123.047 33.25C122.573 34.3984 122.117 35.5469 121.68 36.6953C121.26 37.8438 120.741 39.2565 120.121 40.9336C119.793 41.681 119.301 42.0547 118.645 42.0547C118.189 42.0547 117.815 41.9453 117.523 41.7266C117.25 41.5078 116.822 41.125 116.238 40.5781C115.655 40.0312 115.181 39.7031 114.816 39.5938C113.012 39.1927 112.109 37.944 112.109 35.8477C112.109 34.9727 112.273 34.0703 112.602 33.1406C112.93 32.1927 113.404 31.099 114.023 29.8594C114.643 28.6198 115.008 27.7904 115.117 27.3711C115.062 27.1706 115.017 26.9974 114.98 26.8516C114.944 26.6875 114.917 26.5326 114.898 26.3867C114.898 26.2227 114.889 25.9948 114.871 25.7031C114.871 23.5885 115.117 22.1849 115.609 21.4922C116.12 20.7995 116.94 20.4531 118.07 20.4531C118.344 19.8516 118.717 19.0677 119.191 18.1016C119.665 17.1172 120.167 16.069 120.695 14.957C121.242 13.8451 121.643 13.0065 121.898 12.4414C122.281 11.5299 123.147 11.0742 124.496 11.0742C124.897 11.0742 125.225 11.1198 125.48 11.2109C125.736 11.3021 126.036 11.4844 126.383 11.7578C126.729 12.013 127.167 12.3411 127.695 12.7422C128.534 13.3438 129.108 13.8177 129.418 14.1641C129.728 14.4922 129.883 15.0391 129.883 15.8047C129.883 16.4062 129.773 16.9622 129.555 17.4727C129.336 17.9648 128.999 18.6576 128.543 19.5508C128.087 20.4258 127.786 21.1003 127.641 21.5742H129.801C130.585 20.3164 131.788 17.8646 133.41 14.2188C133.72 13.5625 134.03 13.0885 134.34 12.7969C134.65 12.487 135.124 12.332 135.762 12.332C136.71 12.332 137.475 12.5143 138.059 12.8789C138.642 13.2435 139.18 13.8268 139.672 14.6289C139.872 14.957 140.137 15.3307 140.465 15.75C140.811 16.151 141.048 16.5247 141.176 16.8711C141.303 17.1992 141.367 17.7096 141.367 18.4023C141.367 19.0586 141.176 19.8971 140.793 20.918C140.355 22.1758 139.781 23.5703 139.07 25.1016C138.359 26.6146 137.667 28.1003 136.992 29.5586C136.336 30.9987 135.734 32.5026 135.188 34.0703C134.641 35.6198 134.13 37.4336 133.656 39.5117C133.492 40.4414 133.237 41.1706 132.891 41.6992C132.544 42.2096 131.797 42.4648 130.648 42.4648Z" fill="#FF7B17"/>
<path d="M170.461 42.957C169.768 42.957 169.021 42.6654 168.219 42.082C167.435 41.4987 166.259 40.5052 164.691 39.1016C164.4 38.8281 164.254 38.3815 164.254 37.7617C164.254 37.3424 164.318 36.9688 164.445 36.6406C164.628 36.1302 165.12 34.8633 165.922 32.8398C166.742 30.8164 167.344 29.2852 167.727 28.2461C168.128 27.207 168.465 26.2044 168.738 25.2383C168.738 25.2201 168.747 25.1471 168.766 25.0195C168.802 24.8919 168.839 24.7279 168.875 24.5273C168.911 24.3086 168.93 24.1354 168.93 24.0078C168.93 23.4609 168.711 23.1875 168.273 23.1875C167.672 23.1875 166.833 23.7344 165.758 24.8281C164.135 30.4062 162.267 35.9115 160.152 41.3438C159.988 41.8906 159.514 42.1641 158.73 42.1641C158.493 42.1641 158.22 42.1094 157.91 42C157.6 41.9089 157.309 41.7995 157.035 41.6719C156.762 41.526 156.552 41.4167 156.406 41.3438C156.115 41.1979 155.704 41.0977 155.176 41.043C154.665 40.9883 154.31 40.9154 154.109 40.8242C153.872 40.7148 153.635 40.4779 153.398 40.1133C153.18 39.7487 152.906 39.2201 152.578 38.5273C152.268 37.8164 152.095 37.4245 152.059 37.3516C151.858 37.0417 151.758 36.7227 151.758 36.3945C151.758 35.9388 151.931 35.3646 152.277 34.6719C153.189 32.776 153.927 31.1172 154.492 29.6953C155.076 28.2552 155.723 26.569 156.434 24.6367C156.616 24.181 156.707 23.8073 156.707 23.5156C156.707 23.1693 156.57 22.9961 156.297 22.9961C156.042 22.9961 155.613 23.1693 155.012 23.5156C154.41 23.862 153.954 24.2357 153.645 24.6367C151.275 30.9987 149.233 36.3581 147.52 40.7148C147.301 41.1888 147.036 41.526 146.727 41.7266C146.435 41.9089 145.924 42 145.195 42C144.685 42 144.184 41.8359 143.691 41.5078C143.199 41.1615 142.743 40.7695 142.324 40.332C141.905 39.8763 141.632 39.5664 141.504 39.4023C140.72 38.4544 140.191 37.7435 139.918 37.2695C139.663 36.7773 139.535 36.2487 139.535 35.6836C139.535 35.1549 139.617 34.7266 139.781 34.3984C140.547 32.7031 141.422 30.7435 142.406 28.5195C143.409 26.2773 144.193 24.4727 144.758 23.1055C145.323 21.7383 145.879 20.2617 146.426 18.6758C146.991 17.0716 147.629 15.0482 148.34 12.6055C148.504 12.2773 148.659 12.0495 148.805 11.9219C148.969 11.7943 149.27 11.7305 149.707 11.7305C150.6 11.7305 151.512 12.0221 152.441 12.6055C153.371 13.1706 154.656 14.1185 156.297 15.4492C157.117 14.8112 158.156 14.2096 159.414 13.6445C160.672 13.0794 161.684 12.7969 162.449 12.7969C163.908 12.7969 165.357 13.8724 166.797 16.0234C167.271 15.5495 168.128 15.0573 169.367 14.5469C170.625 14.0365 171.655 13.7812 172.457 13.7812C173.259 13.7812 174.134 14.1185 175.082 14.793C176.048 15.4492 176.868 16.3698 177.543 17.5547C178.217 18.7214 178.555 20.043 178.555 21.5195C178.555 24.0898 177.06 29.2396 174.07 36.9688C173.943 37.2969 173.77 37.9167 173.551 38.8281C173.35 39.7396 173.214 40.3594 173.141 40.6875C173.086 40.9974 172.986 41.2799 172.84 41.5352C172.311 42.4831 171.518 42.957 170.461 42.957Z" fill="#FF7B17"/>
<path d="M207.184 21.2188C207.184 21.7474 206.956 22.7044 206.5 24.0898C206.062 25.457 205.525 26.5052 204.887 27.2344C204.066 28.2552 203.164 29.0573 202.18 29.6406C201.214 30.224 199.655 30.862 197.504 31.5547C196.72 31.7917 196.091 31.9102 195.617 31.9102C195.453 31.9102 195.289 31.8919 195.125 31.8555C194.961 31.819 194.888 31.8008 194.906 31.8008C194.286 31.8008 193.858 31.7005 193.621 31.5C192.527 30.5156 191.816 29.7865 191.488 29.3125C191.124 30.0417 190.941 30.7344 190.941 31.3906C190.941 32.4661 191.397 33.2682 192.309 33.7969C192.837 34.1068 193.366 34.2617 193.895 34.2617C194.15 34.2617 194.915 34.125 196.191 33.8516C197.486 33.5781 198.47 33.4414 199.145 33.4414C199.801 33.4414 200.238 33.5781 200.457 33.8516C200.73 34.1979 201.004 34.6354 201.277 35.1641C201.368 35.3464 201.414 35.6016 201.414 35.9297C201.414 36.0755 201.25 36.5221 200.922 37.2695C200.685 37.7617 200.484 38.2448 200.32 38.7188C200.174 39.1745 200.065 39.457 199.992 39.5664C199.609 40.1862 199.217 40.5872 198.816 40.7695C198.415 40.9336 197.586 41.1706 196.328 41.4805C195.307 41.7357 194.414 41.9271 193.648 42.0547C192.883 42.1823 191.99 42.2461 190.969 42.2461C188.945 42.2461 187.368 41.8906 186.238 41.1797C182.738 38.8281 180.988 35.8932 180.988 32.375C180.988 30.3333 181.444 28.1732 182.355 25.8945C183.267 23.6159 184.488 21.5104 186.02 19.5781C187.569 17.6458 189.255 16.0964 191.078 14.9297C192.391 14.1458 193.667 13.4896 194.906 12.9609C196.164 12.4141 197.212 12.1406 198.051 12.1406C198.78 12.1406 199.609 12.2865 200.539 12.5781C201.487 12.8698 202.362 13.2435 203.164 13.6992C203.984 14.1549 204.577 14.5651 204.941 14.9297C205.725 15.7135 206.29 16.5521 206.637 17.4453C207.001 18.3203 207.184 19.5781 207.184 21.2188ZM193.32 25.4844C195.471 25.2656 196.866 24.8281 197.504 24.1719C197.96 23.6797 198.324 23.0417 198.598 22.2578C198.889 21.474 199.035 20.8724 199.035 20.4531C199.035 20.1432 198.88 19.9883 198.57 19.9883C198.424 19.9883 198.251 20.0521 198.051 20.1797C196.902 21.0729 195.991 21.9206 195.316 22.7227C194.66 23.5247 193.995 24.4453 193.32 25.4844Z" fill="#FF7B17"/>
<path d="M229.195 35.2188C227.227 37.7344 225.349 39.6211 223.562 40.8789C221.776 42.1367 220.473 42.7656 219.652 42.7656C219.306 42.7656 219.005 42.7109 218.75 42.6016C218.495 42.5104 218.23 42.3464 217.957 42.1094C217.684 41.8724 217.301 41.4987 216.809 40.9883C216.316 40.4596 215.724 39.849 215.031 39.1562C214.776 39.6667 214.348 40.5781 213.746 41.8906C213.163 43.2031 212.68 44.2878 212.297 45.1445C211.932 46.0195 211.413 47.1862 210.738 48.6445C210.082 50.1211 209.572 51.2148 209.207 51.9258C208.879 52.7826 208.387 53.2109 207.73 53.2109C207.53 53.2109 207.147 53.0195 206.582 52.6367C206.017 52.2539 205.652 52.0352 205.488 51.9805C205.087 51.8346 204.695 51.7344 204.312 51.6797C203.93 51.625 203.62 51.5521 203.383 51.4609C203.146 51.3698 202.818 51.1419 202.398 50.7773C201.943 50.3581 201.642 49.9206 201.496 49.4648C201.35 49.0091 201.277 48.3893 201.277 47.6055C201.277 46.4388 201.396 45.5729 201.633 45.0078C201.779 44.6979 202.462 43.2396 203.684 40.6328C204.905 38.026 205.999 35.6836 206.965 33.6055C207.949 31.5273 208.915 29.3581 209.863 27.0977C210.829 24.819 211.786 22.3854 212.734 19.7969C212.716 19.487 212.671 19.1771 212.598 18.8672C212.543 18.5573 212.488 18.293 212.434 18.0742C212.397 17.8372 212.361 17.5547 212.324 17.2266C212.288 16.8802 212.27 16.5794 212.27 16.3242C212.27 16.0143 212.361 15.7591 212.543 15.5586C212.743 15.3581 213.081 15.1211 213.555 14.8477C214.029 14.556 214.448 14.2826 214.812 14.0273C215.122 12.9518 215.387 12.1315 215.605 11.5664C215.842 10.9831 216.125 10.5273 216.453 10.1992C216.799 9.87109 217.228 9.70703 217.738 9.70703C218.267 9.70703 218.686 9.81641 218.996 10.0352C219.324 10.2539 219.844 10.6914 220.555 11.3477C221.266 12.0039 222.059 12.6055 222.934 13.1523C223.225 13.0612 223.544 12.9609 223.891 12.8516C224.237 12.7422 224.638 12.6602 225.094 12.6055C225.549 12.5326 226.087 12.4961 226.707 12.4961C227.655 12.4961 228.393 12.724 228.922 13.1797C229.469 13.6354 230.389 14.6836 231.684 16.3242C232.358 17.1081 232.932 18.1745 233.406 19.5234C233.898 20.8724 234.145 22.1302 234.145 23.2969C234.145 25.1927 233.634 27.2435 232.613 29.4492C231.592 31.6549 230.453 33.5781 229.195 35.2188ZM225.066 22.6406C225.066 21.7292 224.538 21.2734 223.48 21.2734C223.007 21.2734 222.533 21.4375 222.059 21.7656C221.658 22.7682 221.229 23.8164 220.773 24.9102C220.336 26.0039 219.826 27.2526 219.242 28.6562C218.659 30.0599 218.158 31.263 217.738 32.2656C218.923 31.7917 220.072 30.8984 221.184 29.5859C222.296 28.2552 223.216 26.8789 223.945 25.457C224.693 24.0352 225.066 23.0964 225.066 22.6406Z" fill="#FF7B17"/>
<path d="M258.289 40.8789C258.18 42.1732 257.368 42.8203 255.855 42.8203C254.926 42.8203 253.905 42.6198 252.793 42.2188C251.699 41.8359 250.697 41.3893 249.785 40.8789C249.402 40.6419 249.147 40.4232 249.02 40.2227C248.892 40.0221 248.828 39.7305 248.828 39.3477C247.99 39.7122 247.206 40.1497 246.477 40.6602C245.766 41.1523 245.21 41.4896 244.809 41.6719C244.426 41.8542 243.861 41.9453 243.113 41.9453C241.71 41.9453 240.297 41.0977 238.875 39.4023C237.727 38.0169 236.961 36.8047 236.578 35.7656C236.214 34.7083 236.031 33.5599 236.031 32.3203C236.031 29.6406 236.615 27.0794 237.781 24.6367C238.948 22.194 240.233 20.1888 241.637 18.6211C242.73 17.3815 244.052 16.1875 245.602 15.0391C247.151 13.8724 248.582 12.9609 249.895 12.3047C251.225 11.6484 252.173 11.3203 252.738 11.3203C253.121 11.3203 253.422 11.4479 253.641 11.7031C253.878 11.9401 254.415 12.7148 255.254 14.0273C255.746 12.8607 256.165 12.0677 256.512 11.6484C256.876 11.2292 257.451 11.0195 258.234 11.0195C258.836 11.0195 259.447 11.1562 260.066 11.4297C260.686 11.6849 261.47 12.2318 262.418 13.0703C262.582 13.1979 262.965 13.4896 263.566 13.9453C264.168 14.401 264.615 14.8112 264.906 15.1758C265.216 15.5221 265.371 15.8867 265.371 16.2695C265.371 16.5977 265.207 17.026 264.879 17.5547C263.913 19.1953 262.947 21.1732 261.98 23.4883C261.033 25.7852 260.203 28.4284 259.492 31.418C258.799 34.4076 258.398 37.5612 258.289 40.8789ZM246.586 31.8008C246.914 31.8008 247.479 31.5182 248.281 30.9531C249.083 30.388 249.721 29.7865 250.195 29.1484C250.323 28.7839 250.688 27.6445 251.289 25.7305C251.909 23.8164 252.273 22.5677 252.383 21.9844C251.417 22.1302 250.432 22.7773 249.43 23.9258C248.445 25.0742 247.616 26.3503 246.941 27.7539C246.285 29.1576 245.957 30.1693 245.957 30.7891C245.957 31.4635 246.167 31.8008 246.586 31.8008Z" fill="#FF7B17"/>
<path d="M285.633 23.6523C286.49 22.4674 288.632 19.6146 292.059 15.0938C293.134 13.6719 294.219 12.9609 295.312 12.9609C295.987 12.9609 296.525 13.0977 296.926 13.3711C297.345 13.6263 297.764 13.9635 298.184 14.3828C299.332 15.3854 300.052 16.0872 300.344 16.4883C300.635 16.8893 300.781 17.3906 300.781 17.9922C300.781 18.2292 300.59 19.7422 300.207 22.5312C299.824 25.3021 299.569 27.1615 299.441 28.1094C299.314 29.0391 299.086 30.8164 298.758 33.4414C298.448 36.0664 298.238 38.1081 298.129 39.5664C298.092 39.8763 297.947 40.2773 297.691 40.7695C297.436 41.2617 297.081 41.6901 296.625 42.0547C296.188 42.4193 295.686 42.6016 295.121 42.6016C294.72 42.6016 294.082 42.4284 293.207 42.082C292.35 41.7357 291.612 41.3893 290.992 41.043C290.409 40.7148 289.898 40.4232 289.461 40.168C289.023 39.8945 288.714 39.612 288.531 39.3203C288.367 39.0286 288.285 38.582 288.285 37.9805C288.285 37.4154 288.395 36.6589 288.613 35.7109C288.832 34.7448 289.06 33.7969 289.297 32.8672C289.534 31.9375 289.707 31.2266 289.816 30.7344C289.944 30.2422 290.008 29.7865 290.008 29.3672C289.315 30.2604 288.714 31.1081 288.203 31.9102C287.711 32.7122 287.21 33.5781 286.699 34.5078C286.207 35.4193 285.76 36.2852 285.359 37.1055C284.958 37.9076 284.539 38.7279 284.102 39.5664C283.737 40.2591 283.4 40.7786 283.09 41.125C282.78 41.4714 282.333 41.6445 281.75 41.6445C280.565 41.6445 279.462 41.2161 278.441 40.3594C277.676 39.7396 277.165 39.3203 276.91 39.1016C276.673 38.8646 276.491 38.5547 276.363 38.1719C276.236 37.7708 276.172 37.1784 276.172 36.3945C276.172 35.9753 276.336 35.1549 276.664 33.9336C277.01 32.694 277.284 31.6458 277.484 30.7891C277.703 29.9323 277.822 28.9844 277.84 27.9453C277.129 28.9661 276.5 29.9688 275.953 30.9531C275.424 31.9375 274.586 33.5781 273.438 35.875C272.289 38.1719 271.669 39.4023 271.578 39.5664C271.286 40.0951 270.977 40.4779 270.648 40.7148C270.32 40.9336 269.81 41.043 269.117 41.043C268.552 41.0247 268.051 40.9062 267.613 40.6875C267.194 40.4505 266.665 40.0404 266.027 39.457C265.736 39.1836 265.371 38.8919 264.934 38.582C264.496 38.2721 264.177 37.9258 263.977 37.543C263.776 37.1602 263.676 36.6224 263.676 35.9297C263.676 34.4714 264.031 32.9766 264.742 31.4453C265.471 29.9141 266.565 28.0911 268.023 25.9766C269.5 23.862 270.967 21.7565 272.426 19.6602C273.902 17.5456 275.197 15.513 276.309 13.5625C276.655 12.9427 277.12 12.4961 277.703 12.2227C278.286 11.931 278.842 11.7852 279.371 11.7852C280.064 11.7852 280.647 11.8945 281.121 12.1133C281.595 12.3138 282.434 12.7513 283.637 13.4258C284.512 13.8815 285.113 14.3555 285.441 14.8477C285.77 15.3216 285.934 15.9779 285.934 16.8164C285.934 17.7643 285.879 18.9674 285.77 20.4258C285.678 21.8841 285.633 22.9596 285.633 23.6523Z" fill="#FF7B17"/>
<path d="M318.281 30.0234C319.521 26.6328 320.66 23.707 321.699 21.2461C322.757 18.7852 323.923 16.4336 325.199 14.1914C325.309 13.9909 325.527 13.8086 325.855 13.6445C326.202 13.4622 326.667 13.3711 327.25 13.3711C328.07 13.3711 328.727 13.6263 329.219 14.1367C329.438 14.3555 329.638 14.638 329.82 14.9844C330.021 15.3307 330.148 15.5404 330.203 15.6133C330.495 15.9049 330.768 16.1146 331.023 16.2422C331.279 16.3698 331.57 16.5156 331.898 16.6797C332.245 16.8438 332.473 16.9805 332.582 17.0898C332.965 17.4362 333.156 18.0104 333.156 18.8125C333.156 19.25 333.02 19.8151 332.746 20.5078C332.691 20.6172 332.199 21.638 331.27 23.5703C330.34 25.5026 329.501 27.362 328.754 29.1484C328.007 30.9167 327.314 32.776 326.676 34.7266C326.056 36.6771 325.5 38.7826 325.008 41.043C324.826 41.918 324.607 42.5469 324.352 42.9297C324.096 43.3307 323.714 43.5312 323.203 43.5312C322.747 43.5312 321.982 43.3125 320.906 42.875C319.849 42.4557 318.865 42.082 317.953 41.7539C316.987 41.3529 316.413 40.4688 316.23 39.1016C315.793 39.375 315.1 39.8307 314.152 40.4688C313.223 41.0885 312.439 41.5534 311.801 41.8633C311.181 42.1549 310.634 42.3008 310.16 42.3008C308.902 42.3008 307.736 41.6263 306.66 40.2773C306.259 39.7487 305.822 38.8372 305.348 37.543C304.892 36.2487 304.664 34.9818 304.664 33.7422C304.664 31.1354 307.161 24.582 312.156 14.082C312.685 12.8971 313.378 12.3047 314.234 12.3047C314.672 12.3047 315.392 12.569 316.395 13.0977C317.415 13.6263 318.345 14.3099 319.184 15.1484C320.004 15.9141 320.414 16.7161 320.414 17.5547C320.414 17.9193 320.195 18.5391 319.758 19.4141C318.044 22.5859 316.495 26.2591 315.109 30.4336C315 30.7253 314.945 30.9805 314.945 31.1992C314.945 31.5456 315.1 31.7188 315.41 31.7188C315.975 31.7188 316.932 31.1536 318.281 30.0234Z" fill="#FF7B17"/>
<path d="M365.148 42.4648C364.638 42.4648 364.219 42.3828 363.891 42.2188C363.581 42.0547 363.171 41.7812 362.66 41.3984C362.168 40.9974 361.712 40.6875 361.293 40.4688C359.689 39.612 358.887 38.5638 358.887 37.3242C358.887 36.6315 359.014 35.9479 359.27 35.2734C359.543 34.5807 359.917 33.6875 360.391 32.5938C360.865 31.5 361.147 30.6797 361.238 30.1328H358.941C358.486 31.0625 358.021 32.1016 357.547 33.25C357.073 34.3984 356.617 35.5469 356.18 36.6953C355.76 37.8438 355.241 39.2565 354.621 40.9336C354.293 41.681 353.801 42.0547 353.145 42.0547C352.689 42.0547 352.315 41.9453 352.023 41.7266C351.75 41.5078 351.322 41.125 350.738 40.5781C350.155 40.0312 349.681 39.7031 349.316 39.5938C347.512 39.1927 346.609 37.944 346.609 35.8477C346.609 34.9727 346.773 34.0703 347.102 33.1406C347.43 32.1927 347.904 31.099 348.523 29.8594C349.143 28.6198 349.508 27.7904 349.617 27.3711C349.562 27.1706 349.517 26.9974 349.48 26.8516C349.444 26.6875 349.417 26.5326 349.398 26.3867C349.398 26.2227 349.389 25.9948 349.371 25.7031C349.371 23.5885 349.617 22.1849 350.109 21.4922C350.62 20.7995 351.44 20.4531 352.57 20.4531C352.844 19.8516 353.217 19.0677 353.691 18.1016C354.165 17.1172 354.667 16.069 355.195 14.957C355.742 13.8451 356.143 13.0065 356.398 12.4414C356.781 11.5299 357.647 11.0742 358.996 11.0742C359.397 11.0742 359.725 11.1198 359.98 11.2109C360.236 11.3021 360.536 11.4844 360.883 11.7578C361.229 12.013 361.667 12.3411 362.195 12.7422C363.034 13.3438 363.608 13.8177 363.918 14.1641C364.228 14.4922 364.383 15.0391 364.383 15.8047C364.383 16.4062 364.273 16.9622 364.055 17.4727C363.836 17.9648 363.499 18.6576 363.043 19.5508C362.587 20.4258 362.286 21.1003 362.141 21.5742H364.301C365.085 20.3164 366.288 17.8646 367.91 14.2188C368.22 13.5625 368.53 13.0885 368.84 12.7969C369.15 12.487 369.624 12.332 370.262 12.332C371.21 12.332 371.975 12.5143 372.559 12.8789C373.142 13.2435 373.68 13.8268 374.172 14.6289C374.372 14.957 374.637 15.3307 374.965 15.75C375.311 16.151 375.548 16.5247 375.676 16.8711C375.803 17.1992 375.867 17.7096 375.867 18.4023C375.867 19.0586 375.676 19.8971 375.293 20.918C374.855 22.1758 374.281 23.5703 373.57 25.1016C372.859 26.6146 372.167 28.1003 371.492 29.5586C370.836 30.9987 370.234 32.5026 369.688 34.0703C369.141 35.6198 368.63 37.4336 368.156 39.5117C367.992 40.4414 367.737 41.1706 367.391 41.6992C367.044 42.2096 366.297 42.4648 365.148 42.4648Z" fill="#FF7B17"/>
<path d="M401.543 21.2188C401.543 21.7474 401.315 22.7044 400.859 24.0898C400.422 25.457 399.884 26.5052 399.246 27.2344C398.426 28.2552 397.523 29.0573 396.539 29.6406C395.573 30.224 394.014 30.862 391.863 31.5547C391.079 31.7917 390.451 31.9102 389.977 31.9102C389.812 31.9102 389.648 31.8919 389.484 31.8555C389.32 31.819 389.247 31.8008 389.266 31.8008C388.646 31.8008 388.217 31.7005 387.98 31.5C386.887 30.5156 386.176 29.7865 385.848 29.3125C385.483 30.0417 385.301 30.7344 385.301 31.3906C385.301 32.4661 385.757 33.2682 386.668 33.7969C387.197 34.1068 387.725 34.2617 388.254 34.2617C388.509 34.2617 389.275 34.125 390.551 33.8516C391.845 33.5781 392.829 33.4414 393.504 33.4414C394.16 33.4414 394.598 33.5781 394.816 33.8516C395.09 34.1979 395.363 34.6354 395.637 35.1641C395.728 35.3464 395.773 35.6016 395.773 35.9297C395.773 36.0755 395.609 36.5221 395.281 37.2695C395.044 37.7617 394.844 38.2448 394.68 38.7188C394.534 39.1745 394.424 39.457 394.352 39.5664C393.969 40.1862 393.577 40.5872 393.176 40.7695C392.775 40.9336 391.945 41.1706 390.688 41.4805C389.667 41.7357 388.773 41.9271 388.008 42.0547C387.242 42.1823 386.349 42.2461 385.328 42.2461C383.305 42.2461 381.728 41.8906 380.598 41.1797C377.098 38.8281 375.348 35.8932 375.348 32.375C375.348 30.3333 375.803 28.1732 376.715 25.8945C377.626 23.6159 378.848 21.5104 380.379 19.5781C381.928 17.6458 383.615 16.0964 385.438 14.9297C386.75 14.1458 388.026 13.4896 389.266 12.9609C390.523 12.4141 391.572 12.1406 392.41 12.1406C393.139 12.1406 393.969 12.2865 394.898 12.5781C395.846 12.8698 396.721 13.2435 397.523 13.6992C398.344 14.1549 398.936 14.5651 399.301 14.9297C400.085 15.7135 400.65 16.5521 400.996 17.4453C401.361 18.3203 401.543 19.5781 401.543 21.2188ZM387.68 25.4844C389.831 25.2656 391.225 24.8281 391.863 24.1719C392.319 23.6797 392.684 23.0417 392.957 22.2578C393.249 21.474 393.395 20.8724 393.395 20.4531C393.395 20.1432 393.24 19.9883 392.93 19.9883C392.784 19.9883 392.611 20.0521 392.41 20.1797C391.262 21.0729 390.35 21.9206 389.676 22.7227C389.02 23.5247 388.354 24.4453 387.68 25.4844Z" fill="#FF7B17"/>
<path d="M437.719 35.2188C435.75 37.7344 433.872 39.6211 432.086 40.8789C430.299 42.1367 428.996 42.7656 428.176 42.7656C427.829 42.7656 427.529 42.7109 427.273 42.6016C427.018 42.5104 426.754 42.3464 426.48 42.1094C426.207 41.8724 425.824 41.4987 425.332 40.9883C424.84 40.4596 424.247 39.849 423.555 39.1562C423.299 39.6667 422.871 40.5781 422.27 41.8906C421.686 43.2031 421.203 44.2878 420.82 45.1445C420.456 46.0195 419.936 47.1862 419.262 48.6445C418.605 50.1211 418.095 51.2148 417.73 51.9258C417.402 52.7826 416.91 53.2109 416.254 53.2109C416.053 53.2109 415.671 53.0195 415.105 52.6367C414.54 52.2539 414.176 52.0352 414.012 51.9805C413.611 51.8346 413.219 51.7344 412.836 51.6797C412.453 51.625 412.143 51.5521 411.906 51.4609C411.669 51.3698 411.341 51.1419 410.922 50.7773C410.466 50.3581 410.165 49.9206 410.02 49.4648C409.874 49.0091 409.801 48.3893 409.801 47.6055C409.801 46.4388 409.919 45.5729 410.156 45.0078C410.302 44.6979 410.986 43.2396 412.207 40.6328C413.428 38.026 414.522 35.6836 415.488 33.6055C416.473 31.5273 417.439 29.3581 418.387 27.0977C419.353 24.819 420.31 22.3854 421.258 19.7969C421.24 19.487 421.194 19.1771 421.121 18.8672C421.066 18.5573 421.012 18.293 420.957 18.0742C420.921 17.8372 420.884 17.5547 420.848 17.2266C420.811 16.8802 420.793 16.5794 420.793 16.3242C420.793 16.0143 420.884 15.7591 421.066 15.5586C421.267 15.3581 421.604 15.1211 422.078 14.8477C422.552 14.556 422.971 14.2826 423.336 14.0273C423.646 12.9518 423.91 12.1315 424.129 11.5664C424.366 10.9831 424.648 10.5273 424.977 10.1992C425.323 9.87109 425.751 9.70703 426.262 9.70703C426.79 9.70703 427.21 9.81641 427.52 10.0352C427.848 10.2539 428.367 10.6914 429.078 11.3477C429.789 12.0039 430.582 12.6055 431.457 13.1523C431.749 13.0612 432.068 12.9609 432.414 12.8516C432.76 12.7422 433.161 12.6602 433.617 12.6055C434.073 12.5326 434.611 12.4961 435.23 12.4961C436.178 12.4961 436.917 12.724 437.445 13.1797C437.992 13.6354 438.913 14.6836 440.207 16.3242C440.882 17.1081 441.456 18.1745 441.93 19.5234C442.422 20.8724 442.668 22.1302 442.668 23.2969C442.668 25.1927 442.158 27.2435 441.137 29.4492C440.116 31.6549 438.977 33.5781 437.719 35.2188ZM433.59 22.6406C433.59 21.7292 433.061 21.2734 432.004 21.2734C431.53 21.2734 431.056 21.4375 430.582 21.7656C430.181 22.7682 429.753 23.8164 429.297 24.9102C428.859 26.0039 428.349 27.2526 427.766 28.6562C427.182 30.0599 426.681 31.263 426.262 32.2656C427.447 31.7917 428.595 30.8984 429.707 29.5859C430.819 28.2552 431.74 26.8789 432.469 25.457C433.216 24.0352 433.59 23.0964 433.59 22.6406Z" fill="#FF7B17"/>
<path d="M463.859 37.5703C462.328 39.138 460.879 40.3958 459.512 41.3438C458.145 42.2917 456.759 42.7656 455.355 42.7656C454.243 42.7656 453.004 42.5378 451.637 42.082C450.288 41.6445 449.148 41.0612 448.219 40.332C446.943 39.3112 446.013 38.1719 445.43 36.9141C444.846 35.6562 444.555 34.2617 444.555 32.7305C444.555 28.7018 445.484 24.9375 447.344 21.4375C449.203 17.9375 452.065 14.7383 455.93 11.8398C456.495 11.4023 457.151 11.1836 457.898 11.1836C458.409 11.1836 458.846 11.2656 459.211 11.4297C459.576 11.5755 459.885 11.7852 460.141 12.0586C460.414 12.3138 460.733 12.6966 461.098 13.207C461.462 13.6992 461.927 14.3646 462.492 15.2031C465.227 15.513 466.876 15.9323 467.441 16.4609C468.48 17.4635 469 20.0156 469 24.1172C469 25.5391 468.827 27.0703 468.48 28.7109C468.134 30.3516 467.569 31.9466 466.785 33.4961C466.02 35.0273 465.044 36.3854 463.859 37.5703ZM455.191 33.2227C455.848 32.5664 456.577 31.5911 457.379 30.2969C458.181 28.9844 458.855 27.681 459.402 26.3867C459.967 25.0742 460.25 24.0807 460.25 23.4062C460.25 22.2396 459.958 21.6562 459.375 21.6562C459.138 21.6562 458.865 21.8294 458.555 22.1758C457.57 23.3789 456.659 24.8646 455.82 26.6328C455 28.401 454.389 30.1419 453.988 31.8555C453.915 32.1289 453.879 32.457 453.879 32.8398C453.879 33.4414 454.034 33.7422 454.344 33.7422C454.599 33.7422 454.882 33.569 455.191 33.2227Z" fill="#FF7B17"/>
<path d="M500.637 20.5352C500.947 20.2982 501.676 19.3685 502.824 17.7461C503.973 16.1055 505.012 14.7839 505.941 13.7812C506.889 12.7604 507.755 12.25 508.539 12.25C509.56 12.25 510.289 12.4596 510.727 12.8789C511.182 13.2799 511.611 13.8359 512.012 14.5469C512.85 15.8594 513.27 17.026 513.27 18.0469C513.27 18.5755 512.914 19.4232 512.203 20.5898C511.492 21.7565 510.453 23.0234 509.086 24.3906C507.719 25.7396 506.06 27.0247 504.109 28.2461C504.109 29.8503 504.228 31.1719 504.465 32.2109C504.72 33.25 505.066 34.2435 505.504 35.1914C505.941 36.1393 506.26 36.9505 506.461 37.625C506.68 38.2812 506.789 39.1289 506.789 40.168C506.789 40.5508 506.598 40.8516 506.215 41.0703C505.832 41.2708 505.367 41.4349 504.82 41.5625C504.273 41.6719 503.69 41.7812 503.07 41.8906C502.815 41.9453 502.241 42.1549 501.348 42.5195C500.454 42.8841 499.671 43.0664 498.996 43.0664C497.993 43.0664 497.146 42.3464 496.453 40.9062C495.779 39.4479 495.359 36.2669 495.195 31.3633C494.63 32.2383 493.983 33.7878 493.254 36.0117C492.525 38.2174 492.033 39.5208 491.777 39.9219C491.486 40.4141 491.003 40.806 490.328 41.0977C489.672 41.3893 489.052 41.5352 488.469 41.5352C488.104 41.5352 487.812 41.4805 487.594 41.3711C487.393 41.2435 487.165 41.0794 486.91 40.8789C486.673 40.6602 486.427 40.5052 486.172 40.4141C485.898 40.3047 485.488 40.2318 484.941 40.1953C484.413 40.1589 484.039 40.0768 483.82 39.9492C482.763 39.4206 482.234 38.7279 482.234 37.8711C482.234 37.4518 482.389 36.8594 482.699 36.0938C483.027 35.3099 483.483 34.2253 484.066 32.8398C484.65 31.4544 485.005 30.5977 485.133 30.2695C484.148 31.3268 482.371 33.1042 479.801 35.6016C477.23 38.099 475.736 39.4661 475.316 39.7031C474.478 40.1953 473.767 40.569 473.184 40.8242C472.6 41.0612 472.09 41.1797 471.652 41.1797C470.704 41.1797 469.975 40.9154 469.465 40.3867C468.973 39.8398 468.727 38.7096 468.727 36.9961C468.727 35.0273 468.891 33.5964 469.219 32.7031C469.547 31.8099 469.993 31.1536 470.559 30.7344C471.124 30.2969 472.564 29.3581 474.879 27.918C477.194 26.4596 479.272 25.0013 481.113 23.543C481.113 22.7591 481.104 21.9935 481.086 21.2461C481.086 20.4987 481.077 19.651 481.059 18.7031C481.059 16.5703 481.569 14.8841 482.59 13.6445C483.629 12.3867 484.759 11.5391 485.98 11.1016C487.202 10.6641 488.195 10.4453 488.961 10.4453C489.599 10.4453 490.046 10.6549 490.301 11.0742C490.574 11.4753 490.711 12.1497 490.711 13.0977C490.711 14.2096 490.51 15.668 490.109 17.4727C489.727 19.2591 489.535 20.4896 489.535 21.1641C491.668 17.0807 494.329 11.0651 497.52 3.11719C498.121 1.73177 499.379 1.03906 501.293 1.03906C502.022 1.03906 502.651 1.1849 503.18 1.47656C503.708 1.76823 504.255 2.19661 504.82 2.76172C505.477 3.39974 505.932 3.95573 506.188 4.42969C506.461 4.88542 506.598 5.41406 506.598 6.01562C506.598 6.45312 506.306 7.3737 505.723 8.77734C505.139 10.1628 504.301 12.0859 503.207 14.5469C502.113 17.0078 501.257 19.0039 500.637 20.5352Z" fill="#FF7B17"/>
<path d="M537.66 24.1172C537.66 25.1745 537.615 25.9674 537.523 26.4961C537.341 27.4987 536.822 29.1667 535.965 31.5C535.108 33.8151 534.051 36.2669 532.793 38.8555C531.553 41.444 530.068 43.9961 528.336 46.5117C526.604 49.0456 524.79 51.1237 522.895 52.7461C522.421 53.1471 521.764 53.5573 520.926 53.9766C520.087 54.4141 519.13 54.806 518.055 55.1523C516.979 55.4987 515.949 55.763 514.965 55.9453C513.98 56.1276 513.105 56.2188 512.34 56.2188C511.319 56.2188 510.462 56.1276 509.77 55.9453C509.095 55.763 508.484 55.5078 507.938 55.1797C507.409 54.8516 506.734 54.3958 505.914 53.8125C504.456 52.7917 503.727 51.8984 503.727 51.1328C503.727 50.2396 504.036 49.319 504.656 48.3711C505.148 47.6784 505.832 46.8854 506.707 45.9922C507.564 45.099 508.202 44.6523 508.621 44.6523C508.895 44.6523 509.432 44.8802 510.234 45.3359C511.036 45.7917 511.802 46.0195 512.531 46.0195C514.555 46.0195 516.241 45.6823 517.59 45.0078C518.355 44.625 518.957 44.1419 519.395 43.5586C519.85 42.9753 520.452 42.1003 521.199 40.9336C521.09 40.9701 520.78 41.0885 520.27 41.2891C519.777 41.4714 519.258 41.6354 518.711 41.7812C518.164 41.9271 517.69 42 517.289 42C516.688 42 516.214 41.9271 515.867 41.7812C515.539 41.6172 515.22 41.3529 514.91 40.9883C514.6 40.6055 514.035 39.8216 513.215 38.6367C512.868 38.1263 512.559 37.4974 512.285 36.75C512.012 36.0026 511.875 35.2188 511.875 34.3984C511.875 32.1562 512.367 29.8411 513.352 27.4531C514.336 25.0469 515.703 22.8229 517.453 20.7812C519.221 18.7214 521.154 17.0807 523.25 15.8594C524.07 15.3672 525.164 14.8294 526.531 14.2461C527.898 13.6628 529.238 13.1706 530.551 12.7695C531.882 12.3685 532.93 12.1589 533.695 12.1406C534.333 12.1406 535.081 12.651 535.938 13.6719C536.812 14.6745 537.387 15.4583 537.66 16.0234C538.243 17.1172 538.535 17.9284 538.535 18.457C538.535 18.931 538.326 19.3229 537.906 19.6328C537.487 19.9427 536.658 20.2982 535.418 20.6992C536.184 21.4102 536.703 21.9297 536.977 22.2578C537.268 22.5677 537.451 22.8411 537.523 23.0781C537.615 23.2969 537.66 23.6432 537.66 24.1172ZM525.191 31.3906C526.048 29.9688 526.732 28.6927 527.242 27.5625C527.771 26.4141 528.29 25.0286 528.801 23.4062C527.671 23.9349 526.54 24.8281 525.41 26.0859C524.28 27.3438 523.359 28.5924 522.648 29.832C521.956 31.0716 521.609 31.9648 521.609 32.5117C521.609 32.8945 521.71 33.0859 521.91 33.0859C522.147 33.0859 522.612 32.9128 523.305 32.5664C524.016 32.2201 524.645 31.8281 525.191 31.3906Z" fill="#FF7B17"/>
<path d="M564.266 40.8789C564.156 42.1732 563.345 42.8203 561.832 42.8203C560.902 42.8203 559.882 42.6198 558.77 42.2188C557.676 41.8359 556.673 41.3893 555.762 40.8789C555.379 40.6419 555.124 40.4232 554.996 40.2227C554.868 40.0221 554.805 39.7305 554.805 39.3477C553.966 39.7122 553.182 40.1497 552.453 40.6602C551.742 41.1523 551.186 41.4896 550.785 41.6719C550.402 41.8542 549.837 41.9453 549.09 41.9453C547.686 41.9453 546.273 41.0977 544.852 39.4023C543.703 38.0169 542.938 36.8047 542.555 35.7656C542.19 34.7083 542.008 33.5599 542.008 32.3203C542.008 29.6406 542.591 27.0794 543.758 24.6367C544.924 22.194 546.21 20.1888 547.613 18.6211C548.707 17.3815 550.029 16.1875 551.578 15.0391C553.128 13.8724 554.559 12.9609 555.871 12.3047C557.202 11.6484 558.15 11.3203 558.715 11.3203C559.098 11.3203 559.398 11.4479 559.617 11.7031C559.854 11.9401 560.392 12.7148 561.23 14.0273C561.723 12.8607 562.142 12.0677 562.488 11.6484C562.853 11.2292 563.427 11.0195 564.211 11.0195C564.812 11.0195 565.423 11.1562 566.043 11.4297C566.663 11.6849 567.447 12.2318 568.395 13.0703C568.559 13.1979 568.941 13.4896 569.543 13.9453C570.145 14.401 570.591 14.8112 570.883 15.1758C571.193 15.5221 571.348 15.8867 571.348 16.2695C571.348 16.5977 571.184 17.026 570.855 17.5547C569.889 19.1953 568.923 21.1732 567.957 23.4883C567.009 25.7852 566.18 28.4284 565.469 31.418C564.776 34.4076 564.375 37.5612 564.266 40.8789ZM552.562 31.8008C552.891 31.8008 553.456 31.5182 554.258 30.9531C555.06 30.388 555.698 29.7865 556.172 29.1484C556.299 28.7839 556.664 27.6445 557.266 25.7305C557.885 23.8164 558.25 22.5677 558.359 21.9844C557.393 22.1302 556.409 22.7773 555.406 23.9258C554.422 25.0742 553.592 26.3503 552.918 27.7539C552.262 29.1576 551.934 30.1693 551.934 30.7891C551.934 31.4635 552.143 31.8008 552.562 31.8008Z" fill="#FF7B17"/>
<path d="M606.184 37.6797C605.09 38.7734 604.133 39.6576 603.312 40.332C602.51 41.0065 601.617 41.599 600.633 42.1094C599.667 42.6198 598.682 42.875 597.68 42.875C596.531 42.875 595.283 42.6471 593.934 42.1914C592.603 41.7357 591.473 41.1432 590.543 40.4141C589.176 39.375 588.173 38.0898 587.535 36.5586C586.897 35.0273 586.578 33.4232 586.578 31.7461C585.247 31.7461 584.263 31.8555 583.625 32.0742C582.495 34.207 581.201 37.0872 579.742 40.7148C579.523 41.2799 579.296 41.6992 579.059 41.9727C578.822 42.2279 578.521 42.3555 578.156 42.3555C577.919 42.3555 577.673 42.3008 577.418 42.1914C577.181 42.082 576.889 41.918 576.543 41.6992C576.215 41.4805 575.887 41.2617 575.559 41.043C575.322 40.8971 575.003 40.8151 574.602 40.7969C574.201 40.7604 573.845 40.724 573.535 40.6875C573.225 40.6328 572.997 40.5143 572.852 40.332C572.141 39.4023 571.676 38.6732 571.457 38.1445C571.238 37.6159 571.129 36.9688 571.129 36.2031C571.129 35.474 571.266 34.7174 571.539 33.9336C571.831 33.1315 572.259 32.1562 572.824 31.0078C573.389 29.8594 573.809 28.9388 574.082 28.2461C573.772 27.5169 573.617 26.5143 573.617 25.2383C573.635 24.4909 573.818 24.0169 574.164 23.8164C574.529 23.6159 575.303 23.3971 576.488 23.1602C577.309 21.4466 578.074 19.5143 578.785 17.3633C579.496 15.194 580.016 13.7995 580.344 13.1797C580.69 12.5417 581.219 12.2135 581.93 12.1953C582.513 12.1953 583.133 12.4323 583.789 12.9062C584.445 13.3802 585.266 14.0456 586.25 14.9023C586.286 14.9388 586.578 15.1484 587.125 15.5312C587.69 15.9141 588.073 16.2969 588.273 16.6797C588.492 17.0625 588.602 17.5911 588.602 18.2656C588.602 18.5026 588.529 18.8672 588.383 19.3594C588.255 19.8516 588.073 20.4622 587.836 21.1914C587.599 21.9023 587.435 22.4219 587.344 22.75C588.018 22.75 588.52 22.6589 588.848 22.4766C589.65 20.9635 590.579 19.487 591.637 18.0469C592.712 16.6068 593.824 15.3216 594.973 14.1914C596.139 13.043 597.224 12.2227 598.227 11.7305C598.883 11.4206 599.548 11.2656 600.223 11.2656C600.733 11.2656 601.171 11.3477 601.535 11.5117C601.918 11.6758 602.255 11.9128 602.547 12.2227C602.839 12.5143 603.148 12.8971 603.477 13.3711C603.805 13.8268 604.251 14.474 604.816 15.3125C605.746 15.4036 606.703 15.5495 607.688 15.75C608.672 15.9323 609.365 16.2057 609.766 16.5703C610.805 17.5729 611.324 20.125 611.324 24.2266C611.324 25.6302 611.151 27.1523 610.805 28.793C610.458 30.4336 609.884 32.0378 609.082 33.6055C608.298 35.1732 607.332 36.5312 606.184 37.6797ZM597.516 33.332C598.591 32.2383 599.703 30.5794 600.852 28.3555C602 26.1315 602.574 24.5182 602.574 23.5156C602.574 22.349 602.283 21.7656 601.699 21.7656C601.462 21.7656 601.189 21.9388 600.879 22.2852C599.895 23.4883 598.992 24.9375 598.172 26.6328C597.37 28.3281 596.75 30.1055 596.312 31.9648C596.24 32.2383 596.203 32.5573 596.203 32.9219C596.203 33.5417 596.358 33.8516 596.668 33.8516C596.887 33.8516 597.169 33.6784 597.516 33.332Z" fill="#FF7B17"/>
<path d="M643.125 42.957C642.432 42.957 641.685 42.6654 640.883 42.082C640.099 41.4987 638.923 40.5052 637.355 39.1016C637.064 38.8281 636.918 38.3815 636.918 37.7617C636.918 37.3424 636.982 36.9688 637.109 36.6406C637.292 36.1302 637.784 34.8633 638.586 32.8398C639.406 30.8164 640.008 29.2852 640.391 28.2461C640.792 27.207 641.129 26.2044 641.402 25.2383C641.402 25.2201 641.411 25.1471 641.43 25.0195C641.466 24.8919 641.503 24.7279 641.539 24.5273C641.576 24.3086 641.594 24.1354 641.594 24.0078C641.594 23.4609 641.375 23.1875 640.938 23.1875C640.336 23.1875 639.497 23.7344 638.422 24.8281C636.799 30.4062 634.931 35.9115 632.816 41.3438C632.652 41.8906 632.178 42.1641 631.395 42.1641C631.158 42.1641 630.884 42.1094 630.574 42C630.264 41.9089 629.973 41.7995 629.699 41.6719C629.426 41.526 629.216 41.4167 629.07 41.3438C628.779 41.1979 628.368 41.0977 627.84 41.043C627.329 40.9883 626.974 40.9154 626.773 40.8242C626.536 40.7148 626.299 40.4779 626.062 40.1133C625.844 39.7487 625.57 39.2201 625.242 38.5273C624.932 37.8164 624.759 37.4245 624.723 37.3516C624.522 37.0417 624.422 36.7227 624.422 36.3945C624.422 35.9388 624.595 35.3646 624.941 34.6719C625.853 32.776 626.591 31.1172 627.156 29.6953C627.74 28.2552 628.387 26.569 629.098 24.6367C629.28 24.181 629.371 23.8073 629.371 23.5156C629.371 23.1693 629.234 22.9961 628.961 22.9961C628.706 22.9961 628.277 23.1693 627.676 23.5156C627.074 23.862 626.618 24.2357 626.309 24.6367C623.939 30.9987 621.897 36.3581 620.184 40.7148C619.965 41.1888 619.701 41.526 619.391 41.7266C619.099 41.9089 618.589 42 617.859 42C617.349 42 616.848 41.8359 616.355 41.5078C615.863 41.1615 615.408 40.7695 614.988 40.332C614.569 39.8763 614.296 39.5664 614.168 39.4023C613.384 38.4544 612.855 37.7435 612.582 37.2695C612.327 36.7773 612.199 36.2487 612.199 35.6836C612.199 35.1549 612.281 34.7266 612.445 34.3984C613.211 32.7031 614.086 30.7435 615.07 28.5195C616.073 26.2773 616.857 24.4727 617.422 23.1055C617.987 21.7383 618.543 20.2617 619.09 18.6758C619.655 17.0716 620.293 15.0482 621.004 12.6055C621.168 12.2773 621.323 12.0495 621.469 11.9219C621.633 11.7943 621.934 11.7305 622.371 11.7305C623.264 11.7305 624.176 12.0221 625.105 12.6055C626.035 13.1706 627.32 14.1185 628.961 15.4492C629.781 14.8112 630.82 14.2096 632.078 13.6445C633.336 13.0794 634.348 12.7969 635.113 12.7969C636.572 12.7969 638.021 13.8724 639.461 16.0234C639.935 15.5495 640.792 15.0573 642.031 14.5469C643.289 14.0365 644.319 13.7812 645.121 13.7812C645.923 13.7812 646.798 14.1185 647.746 14.793C648.712 15.4492 649.533 16.3698 650.207 17.5547C650.882 18.7214 651.219 20.043 651.219 21.5195C651.219 24.0898 649.724 29.2396 646.734 36.9688C646.607 37.2969 646.434 37.9167 646.215 38.8281C646.014 39.7396 645.878 40.3594 645.805 40.6875C645.75 40.9974 645.65 41.2799 645.504 41.5352C644.975 42.4831 644.182 42.957 643.125 42.957Z" fill="#FF7B17"/>
<path d="M670.715 30.543C671.207 30.543 671.763 30.8711 672.383 31.5273C673.021 32.1654 673.34 32.7852 673.34 33.3867C673.34 34.7539 673.085 35.9388 672.574 36.9414C672.064 37.944 671.48 38.7096 670.824 39.2383C670.095 39.8581 668.928 40.5052 667.324 41.1797C665.738 41.8359 664.262 42.1641 662.895 42.1641C661.345 42.1641 660.033 41.8086 658.957 41.0977C657.9 40.3867 656.915 39.4661 656.004 38.3359C654.618 36.5495 653.926 34.4622 653.926 32.0742C653.926 28.793 654.801 25.7214 656.551 22.8594C658.319 19.9974 660.188 17.7279 662.156 16.0508C663.122 15.2669 664.398 14.4922 665.984 13.7266C667.57 12.9427 669.12 12.5508 670.633 12.5508C671.581 12.5508 672.684 12.7878 673.941 13.2617C675.217 13.7357 676.339 14.556 677.305 15.7227C678.289 16.8893 678.781 18.4115 678.781 20.2891C678.781 20.9818 678.581 21.8294 678.18 22.832C677.779 23.8346 677.332 24.582 676.84 25.0742C676.53 25.3841 676.047 25.7214 675.391 26.0859C674.753 26.4323 674.215 26.6055 673.777 26.6055C673.103 26.6055 672.155 26.3503 670.934 25.8398C669.986 25.4935 669.512 24.9831 669.512 24.3086C669.512 24.0716 669.557 23.8438 669.648 23.625C669.74 23.388 669.84 23.1419 669.949 22.8867C670.077 22.6315 670.168 22.4219 670.223 22.2578C670.296 22.0755 670.332 21.9115 670.332 21.7656C670.332 21.4922 670.177 21.3555 669.867 21.3555C669.721 21.3555 669.621 21.3737 669.566 21.4102C669.512 21.4284 669.357 21.5469 669.102 21.7656C667.953 22.8594 666.987 24.0625 666.203 25.375C665.438 26.6693 664.882 27.8359 664.535 28.875C664.189 29.9141 664.016 30.6068 664.016 30.9531C664.016 31.4453 664.198 31.8464 664.562 32.1562C664.927 32.4661 665.337 32.6211 665.793 32.6211C666.376 32.6211 666.932 32.4479 667.461 32.1016C667.99 31.7552 668.518 31.4089 669.047 31.0625C669.576 30.7161 670.132 30.543 670.715 30.543Z" fill="#FF7B17"/>
<path d="M691.879 34.6719C688.816 37.4245 686.483 39.3568 684.879 40.4688C683.275 41.5625 681.853 42.1094 680.613 42.1094C679.757 42.1094 679 41.7721 678.344 41.0977C677.688 40.4049 677.359 39.4115 677.359 38.1172C677.359 37.7708 677.268 37.3971 677.086 36.9961C676.904 36.5951 676.767 36.2669 676.676 36.0117C676.585 35.7565 676.539 35.3099 676.539 34.6719C676.539 33.5052 677.223 32.7852 678.59 32.5117C679.447 32.3659 680.158 32.2018 680.723 32.0195C681.306 31.8372 682.281 31.4727 683.648 30.9258C685.034 30.3789 685.754 30.0964 685.809 30.0781C684.587 29.6224 683.694 28.8203 683.129 27.6719C682.582 26.5234 682.309 25.3385 682.309 24.1172C682.309 22.4948 683.01 20.8815 684.414 19.2773C685.836 17.6549 687.622 16.2148 689.773 14.957C691.924 13.681 694.121 12.6784 696.363 11.9492C698.605 11.2018 700.51 10.8281 702.078 10.8281C702.917 10.8281 703.564 11.0651 704.02 11.5391C704.493 11.9948 704.904 12.6419 705.25 13.4805C705.615 14.319 705.815 14.7565 705.852 14.793C705.979 15.0117 706.253 15.2943 706.672 15.6406C707.109 15.987 707.438 16.3151 707.656 16.625C707.875 16.9167 707.984 17.3451 707.984 17.9102C707.984 18.9674 707.729 19.9518 707.219 20.8633C706.107 22.8867 705.004 25.1836 703.91 27.7539C702.835 30.306 701.777 33.0859 700.738 36.0938C700.483 37.1146 700.237 38.099 700 39.0469C699.763 39.9948 699.408 40.8151 698.934 41.5078C698.46 42.1823 697.776 42.5195 696.883 42.5195C696.062 42.5195 695.461 42.4102 695.078 42.1914C694.695 41.9909 694.103 41.5898 693.301 40.9883C693.21 40.9154 692.872 40.724 692.289 40.4141C691.724 40.1042 691.314 39.8216 691.059 39.5664C690.822 39.3112 690.703 38.9831 690.703 38.582C690.703 38.2539 690.758 37.9258 690.867 37.5977C690.995 37.2513 691.186 36.75 691.441 36.0938C691.697 35.4193 691.842 34.9453 691.879 34.6719ZM698.66 18.8125C698.277 18.8125 697.594 19.1771 696.609 19.9062C695.643 20.6172 694.768 21.4375 693.984 22.3672C693.219 23.2969 692.836 24.1172 692.836 24.8281C692.836 25.612 693.438 26.1589 694.641 26.4688C694.932 25.8672 695.315 25.0286 695.789 23.9531C696.281 22.8776 696.719 21.9753 697.102 21.2461C697.503 20.4987 698.022 19.6875 698.66 18.8125Z" fill="#FF7B17"/>
<path d="M147.594 81.6016C147.01 82.9505 146.436 84.2812 145.871 85.5938C145.324 86.9062 144.777 88.2917 144.23 89.75C143.702 91.1901 143.283 92.4479 142.973 93.5234C143.775 92.1927 144.814 90.6341 146.09 88.8477C147.366 87.043 148.678 85.2474 150.027 83.4609C151.395 81.6745 153.236 79.2865 155.551 76.2969C156.098 75.5495 156.645 75.1758 157.191 75.1758C157.592 75.1758 157.957 75.2943 158.285 75.5312C158.632 75.75 159.096 76.1419 159.68 76.707C161.284 78.1654 162.305 79.2044 162.742 79.8242C163.18 80.4258 163.398 81.0365 163.398 81.6562C163.398 81.9479 163.143 82.6589 162.633 83.7891C161.685 85.8854 160.746 87.9818 159.816 90.0781C158.887 92.1562 157.93 94.444 156.945 96.9414C155.979 99.4388 155.132 101.954 154.402 104.488C153.691 107.004 153.172 109.465 152.844 111.871C152.497 114.66 151.276 116.055 149.18 116.055C148.688 116.055 148.223 115.991 147.785 115.863C147.366 115.736 146.883 115.535 146.336 115.262C145.789 114.988 145.361 114.779 145.051 114.633C143.428 113.885 142.617 112.828 142.617 111.461C142.617 110.641 142.882 109.447 143.41 107.879C143.939 106.311 144.704 104.242 145.707 101.672C146.728 99.1016 147.257 97.7617 147.293 97.6523C146.09 99.2565 144.932 100.861 143.82 102.465C142.708 104.069 141.724 105.546 140.867 106.895C140.01 108.243 139.272 109.428 138.652 110.449C138.033 111.47 137.285 112.71 136.41 114.168C136.155 114.678 135.872 115.079 135.562 115.371C135.253 115.663 134.852 115.809 134.359 115.809C133.448 115.809 132.637 115.298 131.926 114.277C131.579 113.749 131.042 113.174 130.312 112.555C129.583 111.917 129.064 111.406 128.754 111.023C128.444 110.641 128.289 110.158 128.289 109.574C128.289 108.736 128.426 107.833 128.699 106.867C129.939 102.893 131.023 99.5208 131.953 96.75C132.883 93.9792 133.794 91.3633 134.688 88.9023C135.581 86.4232 136.465 84.1081 137.34 81.957C138.215 79.7878 139.008 77.974 139.719 76.5156C140.211 75.4948 140.967 74.9844 141.988 74.9844C142.754 74.9844 144.285 75.6133 146.582 76.8711C147.111 77.1445 147.484 77.4544 147.703 77.8008C147.94 78.1471 148.059 78.6667 148.059 79.3594C148.059 80.0703 147.904 80.8177 147.594 81.6016Z" fill="#0191B6"/>
<path d="M195.199 115.234C195.199 115.49 195.099 115.772 194.898 116.082C194.698 116.41 194.424 116.674 194.078 116.875C192.747 117.586 191.635 117.941 190.742 117.941C190.396 117.941 189.986 117.814 189.512 117.559C189.038 117.322 188.464 116.975 187.789 116.52C187.133 116.064 186.522 115.654 185.957 115.289C184.845 114.615 184.289 113.557 184.289 112.117C184.289 111.497 184.553 109.665 185.082 106.621C185.629 103.577 186.076 101.408 186.422 100.113C185.948 100.934 185.365 102.073 184.672 103.531C183.997 104.99 183.314 106.503 182.621 108.07C181.947 109.638 181.391 110.987 180.953 112.117C180.516 113.247 180.233 114.013 180.105 114.414C179.996 114.742 179.814 115.034 179.559 115.289C179.322 115.526 179.03 115.645 178.684 115.645C178.137 115.645 177.663 115.553 177.262 115.371C176.861 115.189 176.296 114.842 175.566 114.332C174.837 113.822 174.172 113.375 173.57 112.992C173.115 112.682 172.714 112.19 172.367 111.516C172.021 110.841 171.848 110.076 171.848 109.219C171.848 108.617 172.085 106.63 172.559 103.258C173.033 99.8672 173.324 97.3698 173.434 95.7656C172.941 96.9688 172.458 98.3633 171.984 99.9492C171.529 101.517 170.982 103.486 170.344 105.855C169.724 108.225 169.141 110.34 168.594 112.199C168.065 114.04 167.555 115.599 167.062 116.875C166.971 117.112 166.753 117.367 166.406 117.641C166.06 117.932 165.65 118.078 165.176 118.078C164.957 118.078 164.583 117.941 164.055 117.668C163.526 117.413 162.997 117.285 162.469 117.285C161.174 117.285 160.09 116.893 159.215 116.109C158.996 115.909 158.732 115.581 158.422 115.125C158.112 114.669 157.839 114.15 157.602 113.566C157.383 112.965 157.273 112.382 157.273 111.816C157.273 111.434 157.31 111.06 157.383 110.695C157.474 110.312 157.592 109.866 157.738 109.355C157.884 108.845 158.003 108.426 158.094 108.098C160.008 103.194 161.594 99.2292 162.852 96.2031C164.109 93.1589 165.495 90.0508 167.008 86.8789C168.539 83.707 170.189 80.5898 171.957 77.5273C173.014 76.2331 174.117 75.5859 175.266 75.5859C175.758 75.5859 176.232 75.7135 176.688 75.9688C177.143 76.224 177.59 76.4883 178.027 76.7617C178.173 76.8346 178.592 77.026 179.285 77.3359C179.996 77.6458 180.452 77.901 180.652 78.1016C181.126 78.4661 181.473 78.7578 181.691 78.9766C181.928 79.1771 182.138 79.5508 182.32 80.0977C182.521 80.6263 182.685 81.5195 182.812 82.7773C182.958 84.0169 183.059 85.6302 183.113 87.6172C183.46 87.2161 184.253 86.1589 185.492 84.4453C186.732 82.7135 187.862 81.2005 188.883 79.9062C189.904 78.5938 190.924 77.4453 191.945 76.4609C192.966 75.4766 193.796 74.9844 194.434 74.9844C195.855 74.9844 197.733 76.5156 200.066 79.5781C200.613 80.2526 200.887 81.1823 200.887 82.3672C200.887 82.7865 200.796 83.3607 200.613 84.0898C200.431 84.819 200.249 85.4661 200.066 86.0312C199.173 89.7135 198.535 92.375 198.152 94.0156C197.77 95.638 197.359 97.6706 196.922 100.113C196.484 102.556 196.111 105.053 195.801 107.605C195.509 110.139 195.309 112.682 195.199 115.234Z" fill="#0191B6"/>
<path d="M222.625 81.6016C222.042 82.9505 221.467 84.2812 220.902 85.5938C220.355 86.9062 219.809 88.2917 219.262 89.75C218.733 91.1901 218.314 92.4479 218.004 93.5234C218.806 92.1927 219.845 90.6341 221.121 88.8477C222.397 87.043 223.71 85.2474 225.059 83.4609C226.426 81.6745 228.267 79.2865 230.582 76.2969C231.129 75.5495 231.676 75.1758 232.223 75.1758C232.624 75.1758 232.988 75.2943 233.316 75.5312C233.663 75.75 234.128 76.1419 234.711 76.707C236.315 78.1654 237.336 79.2044 237.773 79.8242C238.211 80.4258 238.43 81.0365 238.43 81.6562C238.43 81.9479 238.174 82.6589 237.664 83.7891C236.716 85.8854 235.777 87.9818 234.848 90.0781C233.918 92.1562 232.961 94.444 231.977 96.9414C231.01 99.4388 230.163 101.954 229.434 104.488C228.723 107.004 228.203 109.465 227.875 111.871C227.529 114.66 226.307 116.055 224.211 116.055C223.719 116.055 223.254 115.991 222.816 115.863C222.397 115.736 221.914 115.535 221.367 115.262C220.82 114.988 220.392 114.779 220.082 114.633C218.46 113.885 217.648 112.828 217.648 111.461C217.648 110.641 217.913 109.447 218.441 107.879C218.97 106.311 219.736 104.242 220.738 101.672C221.759 99.1016 222.288 97.7617 222.324 97.6523C221.121 99.2565 219.964 100.861 218.852 102.465C217.74 104.069 216.755 105.546 215.898 106.895C215.042 108.243 214.303 109.428 213.684 110.449C213.064 111.47 212.316 112.71 211.441 114.168C211.186 114.678 210.904 115.079 210.594 115.371C210.284 115.663 209.883 115.809 209.391 115.809C208.479 115.809 207.668 115.298 206.957 114.277C206.611 113.749 206.073 113.174 205.344 112.555C204.615 111.917 204.095 111.406 203.785 111.023C203.475 110.641 203.32 110.158 203.32 109.574C203.32 108.736 203.457 107.833 203.73 106.867C204.97 102.893 206.055 99.5208 206.984 96.75C207.914 93.9792 208.826 91.3633 209.719 88.9023C210.612 86.4232 211.496 84.1081 212.371 81.957C213.246 79.7878 214.039 77.974 214.75 76.5156C215.242 75.4948 215.999 74.9844 217.02 74.9844C217.785 74.9844 219.316 75.6133 221.613 76.8711C222.142 77.1445 222.516 77.4544 222.734 77.8008C222.971 78.1471 223.09 78.6667 223.09 79.3594C223.09 80.0703 222.935 80.8177 222.625 81.6016Z" fill="#0191B6"/>
<path d="M271.078 84.6094C270.604 84.6094 270.23 84.7461 269.957 85.0195C268.462 86.7331 267.132 88.5833 265.965 90.5703C264.798 92.5391 263.868 94.3893 263.176 96.1211C262.501 97.8346 262 99.3021 261.672 100.523C261.362 101.727 261.207 102.602 261.207 103.148C261.207 104.88 261.745 105.746 262.82 105.746C263.513 105.746 264.37 105.527 265.391 105.09C266.43 104.634 267.223 104.197 267.77 103.777C268.79 103.085 269.674 102.738 270.422 102.738C271.279 102.738 271.871 103.112 272.199 103.859C272.363 104.133 272.518 104.397 272.664 104.652C272.828 104.889 272.974 105.208 273.102 105.609C273.247 106.01 273.32 106.484 273.32 107.031C273.32 107.906 273.047 108.891 272.5 109.984C271.953 111.06 271.443 111.762 270.969 112.09C270.294 112.546 269.556 113.001 268.754 113.457C267.952 113.913 267.113 114.368 266.238 114.824C265.382 115.262 264.734 115.617 264.297 115.891C263.385 116.51 262.064 116.82 260.332 116.82C259.548 116.82 258.846 116.711 258.227 116.492C257.625 116.292 256.987 115.964 256.312 115.508C255.638 115.034 255.009 114.533 254.426 114.004C253.861 113.457 253.059 112.664 252.02 111.625C250.671 110.185 249.996 108.225 249.996 105.746C249.996 103.103 250.415 100.268 251.254 97.2422C252.092 94.1979 253.25 91.2995 254.727 88.5469C256.203 85.7943 257.853 83.4792 259.676 81.6016C261.007 80.2344 262.474 79.0495 264.078 78.0469C265.701 77.026 267.214 76.2604 268.617 75.75C270.021 75.2396 271.06 74.9844 271.734 74.9844C273.43 74.9844 275.453 75.7773 277.805 77.3633C278.424 77.7826 279.062 78.3841 279.719 79.168C280.375 79.9518 280.703 80.9544 280.703 82.1758C280.703 83.5065 280.484 85.0013 280.047 86.6602C279.609 88.319 279.19 89.3672 278.789 89.8047C278.333 90.2786 277.385 90.7708 275.945 91.2812C274.505 91.7917 273.411 92.0469 272.664 92.0469C272.081 92.0469 271.397 91.7279 270.613 91.0898C269.848 90.4336 269.465 89.7044 269.465 88.9023C269.465 88.5195 269.684 87.8542 270.121 86.9062C270.467 86.3411 270.786 85.5755 271.078 84.6094Z" fill="#0191B6"/>
<path d="M294.156 115.18C293.938 116.073 293.391 116.52 292.516 116.52C291.859 116.52 291.048 116.191 290.082 115.535C289.043 114.824 288.241 114.204 287.676 113.676C287.129 113.129 286.737 112.546 286.5 111.926C286.263 111.288 286.145 110.522 286.145 109.629C286.145 109.137 286.299 108.326 286.609 107.195C287.247 104.862 287.803 103.012 288.277 101.645C288.77 100.277 289.335 98.8464 289.973 97.3516C290.611 95.8568 291.267 94.2161 291.941 92.4297C292.634 90.6432 293.354 88.5651 294.102 86.1953C293.518 86.2135 292.771 86.3594 291.859 86.6328C290.948 86.888 290.355 87.0156 290.082 87.0156C289.827 87.0156 289.617 86.9701 289.453 86.8789C289.307 86.7695 289.225 86.5417 289.207 86.1953C289.134 85.4479 288.952 84.2721 288.66 82.668C288.368 81.0456 288.223 79.9609 288.223 79.4141C288.223 78.6667 288.651 78.1198 289.508 77.7734C290.128 77.5 292.206 77.1172 295.742 76.625C299.297 76.1328 302.132 75.8867 304.246 75.8867C305.158 75.8867 305.969 76.151 306.68 76.6797C307.409 77.1901 308.475 78.4115 309.879 80.3438C310.335 81.0182 310.562 81.6745 310.562 82.3125C310.562 82.7865 310.307 83.3789 309.797 84.0898C309.214 84.9102 308.466 85.3203 307.555 85.3203C307.354 85.3203 307.026 85.3021 306.57 85.2656C306.133 85.2109 305.695 85.1836 305.258 85.1836C304.602 85.1836 303.9 85.2839 303.152 85.4844C303.152 85.9766 303.198 86.3776 303.289 86.6875C303.38 86.9792 303.426 87.2708 303.426 87.5625C303.426 87.9635 303.289 88.5469 303.016 89.3125C298.513 100.87 295.56 109.492 294.156 115.18Z" fill="#0191B6"/>
<path d="M329.84 113.156C329.038 115.872 327.807 117.23 326.148 117.23C325.365 117.23 324.535 116.993 323.66 116.52C323.223 116.264 322.776 115.964 322.32 115.617C321.883 115.253 321.564 115.007 321.363 114.879C321.309 114.842 320.98 114.678 320.379 114.387C319.796 114.095 319.367 113.812 319.094 113.539C318.839 113.266 318.711 112.883 318.711 112.391C318.711 111.844 319.076 110.668 319.805 108.863C320.552 107.059 320.971 105.901 321.062 105.391C320.57 105.391 319.896 105.464 319.039 105.609C318.201 105.755 317.444 105.938 316.77 106.156C316.514 106.648 315.977 107.924 315.156 109.984C314.354 112.044 313.707 113.503 313.215 114.359C312.905 114.906 312.604 115.307 312.312 115.562C312.021 115.818 311.538 115.945 310.863 115.945C310.462 115.945 309.961 115.854 309.359 115.672C308.776 115.471 308.329 115.262 308.02 115.043C307.236 114.423 306.37 113.448 305.422 112.117C305.294 111.953 305.103 111.707 304.848 111.379C304.592 111.051 304.392 110.723 304.246 110.395C304.118 110.048 304.055 109.674 304.055 109.273C304.055 108.891 304.118 108.526 304.246 108.18C304.392 107.833 304.592 107.432 304.848 106.977C305.121 106.503 305.276 106.211 305.312 106.102C305.823 105.172 306.078 104.461 306.078 103.969C306.078 102.766 306.051 101.818 305.996 101.125C305.96 100.432 305.941 100.077 305.941 100.059C305.941 99.694 306.188 99.3477 306.68 99.0195C307.19 98.6732 307.701 98.418 308.211 98.2539C308.648 98.1081 308.977 97.8893 309.195 97.5977C309.414 97.2878 309.733 96.7682 310.152 96.0391C313.014 90.9531 315.348 87.0794 317.152 84.418C318.975 81.7383 321.482 78.849 324.672 75.75C325.255 75.2396 325.884 74.9844 326.559 74.9844C327.069 74.9844 327.671 75.1758 328.363 75.5586C329.056 75.9232 330.068 76.543 331.398 77.418C332.273 77.9648 332.866 78.3568 333.176 78.5938C333.486 78.8307 333.641 79.2044 333.641 79.7148C333.641 80.4805 333.34 81.2643 332.738 82.0664C333.467 82.5221 334.096 82.987 334.625 83.4609C335.172 83.9349 335.454 84.5365 335.473 85.2656C335.473 86.3958 335.464 87.125 335.445 87.4531C335.336 89.349 334.908 92.0651 334.16 95.6016C333.431 99.1198 332.684 102.383 331.918 105.391C331.152 108.398 330.46 110.987 329.84 113.156ZM323.496 96.6406C324.389 94.2526 325.128 91.6367 325.711 88.793C324.708 89.9779 323.779 91.2812 322.922 92.7031C322.065 94.1068 321.345 95.4648 320.762 96.7773C320.926 96.8503 321.245 96.8867 321.719 96.8867C322.484 96.8867 323.077 96.8047 323.496 96.6406Z" fill="#0191B6"/>
<path d="M362.68 106.84C362.443 107.733 362.197 108.973 361.941 110.559C361.704 112.145 361.477 113.366 361.258 114.223C361.057 115.079 360.72 115.827 360.246 116.465C359.772 117.103 359.125 117.422 358.305 117.422C357.94 117.422 357.603 117.367 357.293 117.258C357.001 117.167 356.719 117.03 356.445 116.848C356.19 116.684 355.862 116.465 355.461 116.191C355.078 115.918 354.395 115.553 353.41 115.098C352.426 114.642 351.733 114.223 351.332 113.84C350.949 113.439 350.758 112.865 350.758 112.117C350.758 111.497 350.967 110.44 351.387 108.945C351.806 107.432 352.316 105.71 352.918 103.777C353.52 101.845 353.82 100.824 353.82 100.715C353.82 100.569 353.684 100.496 353.41 100.496C353.173 100.496 352.954 100.551 352.754 100.66C352.663 100.715 352.362 100.788 351.852 100.879C351.341 100.952 350.94 101.034 350.648 101.125C350.357 101.216 350.12 101.398 349.938 101.672C349.883 101.854 349.664 102.674 349.281 104.133C348.917 105.573 348.434 107.35 347.832 109.465C347.23 111.561 346.656 113.311 346.109 114.715C345.581 116.118 345.161 116.82 344.852 116.82C344.232 116.82 343.102 116.52 341.461 115.918C339.82 115.298 339.027 114.988 339.082 114.988C338.754 114.897 338.243 114.186 337.551 112.855C336.876 111.507 336.539 110.431 336.539 109.629C336.539 108.772 337.733 105.19 340.121 98.8828C340.249 98.5547 340.312 98.1992 340.312 97.8164C340.312 97.5247 340.221 96.9414 340.039 96.0664C339.875 95.1914 339.793 94.4987 339.793 93.9883C339.793 93.4961 339.921 93.168 340.176 93.0039C340.449 92.8398 340.951 92.6484 341.68 92.4297C342.409 92.1927 342.855 91.901 343.02 91.5547C343.749 89.6771 344.861 87.0339 346.355 83.625C347.868 80.1979 348.826 78.0104 349.227 77.0625C349.555 76.3698 349.901 75.8411 350.266 75.4766C350.63 75.112 351.204 74.9297 351.988 74.9297C352.626 74.9297 353.848 75.6589 355.652 77.1172C356.345 77.6458 357.001 78.2839 357.621 79.0312C358.241 79.7786 358.551 80.3802 358.551 80.8359C358.551 81.474 358.332 82.1758 357.895 82.9414C356.509 85.5299 355.424 87.7174 354.641 89.5039C354.641 89.5586 354.613 89.668 354.559 89.832C354.504 89.9961 354.477 90.0872 354.477 90.1055C354.477 90.3789 354.668 90.5156 355.051 90.5156C356.09 90.5156 356.855 90.4336 357.348 90.2695C357.84 90.1055 358.204 89.7682 358.441 89.2578C358.824 88.474 359.398 87.2799 360.164 85.6758C360.948 84.0716 361.586 82.7591 362.078 81.7383C362.57 80.7174 363.363 79.0404 364.457 76.707C364.493 76.6523 364.557 76.5339 364.648 76.3516C364.758 76.1693 364.858 76.0143 364.949 75.8867C365.04 75.7591 365.204 75.6224 365.441 75.4766C365.678 75.3125 365.934 75.2305 366.207 75.2305C366.608 75.2305 367.283 75.6315 368.23 76.4336C369.178 77.2357 369.807 77.8919 370.117 78.4023C370.227 78.5482 370.354 78.8763 370.5 79.3867C370.646 79.8971 370.792 80.2982 370.938 80.5898C371.539 81.7018 371.84 82.7409 371.84 83.707C371.84 84.7461 371.539 85.6576 370.938 86.4414C369.826 88.7018 368.786 90.8802 367.82 92.9766C366.854 95.0729 365.924 97.2878 365.031 99.6211C364.156 101.936 363.372 104.342 362.68 106.84Z" fill="#0191B6"/>
<path d="M392.812 78.8398C393.141 78.6393 393.642 78.4206 394.316 78.1836C395.009 77.9466 395.629 77.8281 396.176 77.8281C396.467 77.8281 396.914 78.2292 397.516 79.0312C398.117 79.8333 398.664 81.082 399.156 82.7773C399.648 84.4727 399.895 86.6328 399.895 89.2578C399.895 90.8438 399.758 92.5208 399.484 94.2891C398.737 97.4609 397.607 100.496 396.094 103.395C394.581 106.293 392.712 108.827 390.488 110.996C388.283 113.147 385.776 114.779 382.969 115.891C381.984 116.328 381.082 116.547 380.262 116.547C379.441 116.547 378.63 116.328 377.828 115.891C376.88 115.38 375.941 114.742 375.012 113.977C374.1 113.193 373.262 112.354 372.496 111.461C371.749 110.568 371.211 109.757 370.883 109.027C370.354 107.952 370.09 106.694 370.09 105.254C370.09 104.251 370.254 102.857 370.582 101.07C371.275 97.6979 372.195 94.6628 373.344 91.9648C374.492 89.2487 375.714 86.9883 377.008 85.1836C378.302 83.3607 379.505 81.875 380.617 80.7266C381.729 79.5599 383.197 78.1562 385.02 76.5156C386.314 75.4948 387.38 74.9844 388.219 74.9844C388.693 74.9844 389.203 75.2122 389.75 75.668C390.315 76.1055 391.336 77.1628 392.812 78.8398ZM381.191 105.555C382.322 104.406 383.507 102.902 384.746 101.043C385.986 99.1654 387.061 97.3151 387.973 95.4922C388.884 93.651 389.422 92.1471 389.586 90.9805C389.732 90.1784 389.805 89.4674 389.805 88.8477C389.805 88.1185 389.668 87.6445 389.395 87.4258C389.322 87.3529 389.203 87.3164 389.039 87.3164C388.583 87.3164 388.091 87.7266 387.562 88.5469C385.831 91.3724 384.327 94.1615 383.051 96.9141C381.793 99.6484 380.882 102.173 380.316 104.488C380.225 104.871 380.18 105.227 380.18 105.555C380.18 105.901 380.262 106.074 380.426 106.074C380.59 106.074 380.845 105.901 381.191 105.555Z" fill="#0191B6"/>
<path d="M427.84 96.0664C428.168 96.3398 428.505 96.8776 428.852 97.6797C429.198 98.4818 429.371 99.4206 429.371 100.496C429.371 101.681 429.052 102.921 428.414 104.215C427.794 105.491 426.91 106.885 425.762 108.398C423.702 111.096 421.77 113.111 419.965 114.441C418.178 115.754 416.656 116.41 415.398 116.41C414.505 116.41 413.53 116.009 412.473 115.207C411.415 114.387 410.613 113.63 410.066 112.938C409.811 113.284 409.501 113.694 409.137 114.168C408.79 114.642 408.435 115.034 408.07 115.344C407.724 115.654 407.35 115.809 406.949 115.809C406.512 115.809 406.102 115.663 405.719 115.371C405.336 115.079 404.908 114.651 404.434 114.086C403.96 113.521 403.677 113.193 403.586 113.102C403.367 112.883 402.984 112.573 402.438 112.172C401.891 111.771 401.471 111.342 401.18 110.887C400.888 110.431 400.742 109.839 400.742 109.109C400.742 108.398 400.979 107.569 401.453 106.621C402.273 104.999 403.085 103.367 403.887 101.727C404.689 100.068 405.628 98.0898 406.703 95.793C407.779 93.4779 408.635 91.6185 409.273 90.2148C409.911 88.8112 410.358 87.8086 410.613 87.207C410.103 86.7695 409.747 86.4232 409.547 86.168C409.346 85.9128 409.201 85.5482 409.109 85.0742C409.018 84.6003 408.954 83.9622 408.918 83.1602C408.9 82.3398 408.891 80.9727 408.891 79.0586C408.891 78.8034 408.991 78.5117 409.191 78.1836C409.392 77.8555 409.629 77.6185 409.902 77.4727C410.504 77.1263 411.461 76.7526 412.773 76.3516C414.086 75.9505 415.608 75.6224 417.34 75.3672C419.072 75.112 420.803 74.9844 422.535 74.9844C426.29 74.9844 429.216 75.8776 431.312 77.6641C433.409 79.4323 434.457 82.0846 434.457 85.6211C434.457 87.6263 433.801 89.513 432.488 91.2812C431.194 93.0312 429.645 94.6263 427.84 96.0664ZM424.586 85.0742C424.586 84.5638 424.076 84.3086 423.055 84.3086C422.617 84.3086 422.161 84.3906 421.688 84.5547C420.958 86.1953 420.311 87.9089 419.746 89.6953C420.639 89.3672 421.669 88.6471 422.836 87.5352C424.003 86.4232 424.586 85.6029 424.586 85.0742ZM419.035 99.7578C419.035 98.9375 418.589 98.5273 417.695 98.5273C417.221 98.5273 416.802 98.6276 416.438 98.8281C416.273 99.1198 416.036 99.612 415.727 100.305C415.417 100.979 415.034 101.836 414.578 102.875C414.122 103.896 413.767 104.689 413.512 105.254C414.077 105.254 414.742 105.044 415.508 104.625C416.292 104.188 417.057 103.495 417.805 102.547C418.06 102.255 418.324 101.809 418.598 101.207C418.889 100.605 419.035 100.122 419.035 99.7578Z" fill="#0191B6"/>
<path d="M459.422 113.594C459.294 114.961 458.902 115.954 458.246 116.574C457.59 117.212 456.842 117.531 456.004 117.531C454.983 117.531 453.844 117.021 452.586 116C452.312 115.781 451.766 115.544 450.945 115.289C450.143 115.034 449.542 114.733 449.141 114.387C448.758 114.022 448.566 113.421 448.566 112.582C448.566 111.835 448.685 111.142 448.922 110.504C449.177 109.848 449.678 108.663 450.426 106.949C451.191 105.217 451.656 103.951 451.82 103.148C451.109 104.206 450.161 105.372 448.977 106.648C447.81 107.924 446.379 109.355 444.684 110.941C443.007 112.509 441.092 114.232 438.941 116.109C438.03 116.893 437.273 117.395 436.672 117.613C436.089 117.832 435.469 117.941 434.812 117.941C433.792 117.941 433.035 117.695 432.543 117.203C432.051 116.711 431.732 116.118 431.586 115.426C431.44 114.715 431.34 114.195 431.285 113.867C431.176 113.466 430.939 112.956 430.574 112.336C430.228 111.716 429.991 111.27 429.863 110.996C429.736 110.723 429.663 110.322 429.645 109.793C429.645 108.371 430.273 107.505 431.531 107.195C432.242 107.013 433.181 106.539 434.348 105.773C435.514 105.008 436.836 104.051 438.312 102.902C439.807 101.736 441.193 100.642 442.469 99.6211C443.745 98.582 444.793 97.7708 445.613 97.1875C444.428 96.6589 443.471 96.1484 442.742 95.6562C442.031 95.1641 441.448 94.4258 440.992 93.4414C440.536 92.4388 440.309 91.0716 440.309 89.3398C440.309 87.2435 441.102 85.2292 442.688 83.2969C444.292 81.3646 446.324 79.6602 448.785 78.1836C451.264 76.6888 453.762 75.5404 456.277 74.7383C458.793 73.918 460.889 73.5078 462.566 73.5078C464.827 73.5078 466.285 73.7174 466.941 74.1367C467.598 74.556 468.245 75.3307 468.883 76.4609C469.102 76.8255 469.466 77.2266 469.977 77.6641C470.505 78.0833 470.897 78.4479 471.152 78.7578C471.408 79.0495 471.535 79.4688 471.535 80.0156C471.535 80.526 471.435 81.0638 471.234 81.6289C471.052 82.1758 470.615 83.2695 469.922 84.9102C469.466 85.9857 468.591 88.0456 467.297 91.0898C466.003 94.1341 464.818 97.0143 463.742 99.7305C462.667 102.447 461.71 105.117 460.871 107.742C460.033 110.349 459.549 112.299 459.422 113.594ZM454.172 92.8125C454.773 92.8125 455.311 92.612 455.785 92.2109C456.241 91.2083 456.742 90.1146 457.289 88.9297C457.854 87.7266 458.319 86.7057 458.684 85.8672C459.066 85.0104 459.477 83.9622 459.914 82.7227C458.273 83.1784 456.842 83.9076 455.621 84.9102C454.418 85.9128 453.507 86.9245 452.887 87.9453C452.285 88.9479 451.966 89.7227 451.93 90.2695C451.93 91.0898 452.167 91.7188 452.641 92.1562C453.115 92.5938 453.625 92.8125 454.172 92.8125Z" fill="#0191B6"/>
<path d="M483.156 115.18C482.938 116.073 482.391 116.52 481.516 116.52C480.859 116.52 480.048 116.191 479.082 115.535C478.043 114.824 477.241 114.204 476.676 113.676C476.129 113.129 475.737 112.546 475.5 111.926C475.263 111.288 475.145 110.522 475.145 109.629C475.145 109.137 475.299 108.326 475.609 107.195C476.247 104.862 476.803 103.012 477.277 101.645C477.77 100.277 478.335 98.8464 478.973 97.3516C479.611 95.8568 480.267 94.2161 480.941 92.4297C481.634 90.6432 482.354 88.5651 483.102 86.1953C482.518 86.2135 481.771 86.3594 480.859 86.6328C479.948 86.888 479.355 87.0156 479.082 87.0156C478.827 87.0156 478.617 86.9701 478.453 86.8789C478.307 86.7695 478.225 86.5417 478.207 86.1953C478.134 85.4479 477.952 84.2721 477.66 82.668C477.368 81.0456 477.223 79.9609 477.223 79.4141C477.223 78.6667 477.651 78.1198 478.508 77.7734C479.128 77.5 481.206 77.1172 484.742 76.625C488.297 76.1328 491.132 75.8867 493.246 75.8867C494.158 75.8867 494.969 76.151 495.68 76.6797C496.409 77.1901 497.475 78.4115 498.879 80.3438C499.335 81.0182 499.562 81.6745 499.562 82.3125C499.562 82.7865 499.307 83.3789 498.797 84.0898C498.214 84.9102 497.466 85.3203 496.555 85.3203C496.354 85.3203 496.026 85.3021 495.57 85.2656C495.133 85.2109 494.695 85.1836 494.258 85.1836C493.602 85.1836 492.9 85.2839 492.152 85.4844C492.152 85.9766 492.198 86.3776 492.289 86.6875C492.38 86.9792 492.426 87.2708 492.426 87.5625C492.426 87.9635 492.289 88.5469 492.016 89.3125C487.513 100.87 484.56 109.492 483.156 115.18Z" fill="#0191B6"/>
<path d="M515.969 84.6094C515.495 84.6094 515.121 84.7461 514.848 85.0195C513.353 86.7331 512.022 88.5833 510.855 90.5703C509.689 92.5391 508.759 94.3893 508.066 96.1211C507.392 97.8346 506.891 99.3021 506.562 100.523C506.253 101.727 506.098 102.602 506.098 103.148C506.098 104.88 506.635 105.746 507.711 105.746C508.404 105.746 509.26 105.527 510.281 105.09C511.32 104.634 512.113 104.197 512.66 103.777C513.681 103.085 514.565 102.738 515.312 102.738C516.169 102.738 516.762 103.112 517.09 103.859C517.254 104.133 517.409 104.397 517.555 104.652C517.719 104.889 517.865 105.208 517.992 105.609C518.138 106.01 518.211 106.484 518.211 107.031C518.211 107.906 517.938 108.891 517.391 109.984C516.844 111.06 516.333 111.762 515.859 112.09C515.185 112.546 514.447 113.001 513.645 113.457C512.842 113.913 512.004 114.368 511.129 114.824C510.272 115.262 509.625 115.617 509.188 115.891C508.276 116.51 506.954 116.82 505.223 116.82C504.439 116.82 503.737 116.711 503.117 116.492C502.516 116.292 501.878 115.964 501.203 115.508C500.529 115.034 499.9 114.533 499.316 114.004C498.751 113.457 497.949 112.664 496.91 111.625C495.561 110.185 494.887 108.225 494.887 105.746C494.887 103.103 495.306 100.268 496.145 97.2422C496.983 94.1979 498.141 91.2995 499.617 88.5469C501.094 85.7943 502.743 83.4792 504.566 81.6016C505.897 80.2344 507.365 79.0495 508.969 78.0469C510.591 77.026 512.104 76.2604 513.508 75.75C514.911 75.2396 515.951 74.9844 516.625 74.9844C518.32 74.9844 520.344 75.7773 522.695 77.3633C523.315 77.7826 523.953 78.3841 524.609 79.168C525.266 79.9518 525.594 80.9544 525.594 82.1758C525.594 83.5065 525.375 85.0013 524.938 86.6602C524.5 88.319 524.081 89.3672 523.68 89.8047C523.224 90.2786 522.276 90.7708 520.836 91.2812C519.396 91.7917 518.302 92.0469 517.555 92.0469C516.971 92.0469 516.288 91.7279 515.504 91.0898C514.738 90.4336 514.355 89.7044 514.355 88.9023C514.355 88.5195 514.574 87.8542 515.012 86.9062C515.358 86.3411 515.677 85.5755 515.969 84.6094Z" fill="#0191B6"/>
<path d="M550.969 113.594C550.841 114.961 550.449 115.954 549.793 116.574C549.137 117.212 548.389 117.531 547.551 117.531C546.53 117.531 545.391 117.021 544.133 116C543.859 115.781 543.312 115.544 542.492 115.289C541.69 115.034 541.089 114.733 540.688 114.387C540.305 114.022 540.113 113.421 540.113 112.582C540.113 111.835 540.232 111.142 540.469 110.504C540.724 109.848 541.225 108.663 541.973 106.949C542.738 105.217 543.203 103.951 543.367 103.148C542.656 104.206 541.708 105.372 540.523 106.648C539.357 107.924 537.926 109.355 536.23 110.941C534.553 112.509 532.639 114.232 530.488 116.109C529.577 116.893 528.82 117.395 528.219 117.613C527.635 117.832 527.016 117.941 526.359 117.941C525.339 117.941 524.582 117.695 524.09 117.203C523.598 116.711 523.279 116.118 523.133 115.426C522.987 114.715 522.887 114.195 522.832 113.867C522.723 113.466 522.486 112.956 522.121 112.336C521.775 111.716 521.538 111.27 521.41 110.996C521.283 110.723 521.21 110.322 521.191 109.793C521.191 108.371 521.82 107.505 523.078 107.195C523.789 107.013 524.728 106.539 525.895 105.773C527.061 105.008 528.383 104.051 529.859 102.902C531.354 101.736 532.74 100.642 534.016 99.6211C535.292 98.582 536.34 97.7708 537.16 97.1875C535.975 96.6589 535.018 96.1484 534.289 95.6562C533.578 95.1641 532.995 94.4258 532.539 93.4414C532.083 92.4388 531.855 91.0716 531.855 89.3398C531.855 87.2435 532.648 85.2292 534.234 83.2969C535.839 81.3646 537.871 79.6602 540.332 78.1836C542.811 76.6888 545.309 75.5404 547.824 74.7383C550.34 73.918 552.436 73.5078 554.113 73.5078C556.374 73.5078 557.832 73.7174 558.488 74.1367C559.145 74.556 559.792 75.3307 560.43 76.4609C560.648 76.8255 561.013 77.2266 561.523 77.6641C562.052 78.0833 562.444 78.4479 562.699 78.7578C562.954 79.0495 563.082 79.4688 563.082 80.0156C563.082 80.526 562.982 81.0638 562.781 81.6289C562.599 82.1758 562.161 83.2695 561.469 84.9102C561.013 85.9857 560.138 88.0456 558.844 91.0898C557.549 94.1341 556.365 97.0143 555.289 99.7305C554.214 102.447 553.257 105.117 552.418 107.742C551.579 110.349 551.096 112.299 550.969 113.594ZM545.719 92.8125C546.32 92.8125 546.858 92.612 547.332 92.2109C547.788 91.2083 548.289 90.1146 548.836 88.9297C549.401 87.7266 549.866 86.7057 550.23 85.8672C550.613 85.0104 551.023 83.9622 551.461 82.7227C549.82 83.1784 548.389 83.9076 547.168 84.9102C545.965 85.9128 545.053 86.9245 544.434 87.9453C543.832 88.9479 543.513 89.7227 543.477 90.2695C543.477 91.0898 543.714 91.7188 544.188 92.1562C544.661 92.5938 545.172 92.8125 545.719 92.8125Z" fill="#0191B6"/>
<path d="M571.586 99.0742C571.349 99.7122 571.148 100.168 570.984 100.441C570.839 100.715 570.565 100.888 570.164 100.961C569.818 101.034 569.444 101.152 569.043 101.316C568.66 101.462 568.387 101.535 568.223 101.535C567.585 101.535 567.038 101.107 566.582 100.25C566.363 99.8125 566.053 99.3841 565.652 98.9648C565.251 98.5273 564.932 98.181 564.695 97.9258C564.477 97.6523 564.358 97.3424 564.34 96.9961C564.34 96.3034 564.431 95.7383 564.613 95.3008C567.767 86.8242 570.647 80.2344 573.254 75.5312C573.91 74.4193 574.648 73.8633 575.469 73.8633C575.979 73.8633 576.426 73.9453 576.809 74.1094C577.191 74.2734 577.611 74.5469 578.066 74.9297C578.54 75.2943 579.488 76.1419 580.91 77.4727C581.785 78.3477 582.223 79.1133 582.223 79.7695C582.223 80.4987 581.958 81.2461 581.43 82.0117C576.818 88.1367 573.536 93.8242 571.586 99.0742ZM565.871 114.523C565.78 114.888 565.47 115.134 564.941 115.262C564.431 115.389 563.109 115.453 560.977 115.453C560.594 115.453 560.275 115.398 560.02 115.289C559.783 115.161 559.546 114.961 559.309 114.688C559.09 114.414 558.716 113.904 558.188 113.156C557.531 112.245 557.203 111.26 557.203 110.203C557.203 109.492 557.522 108.344 558.16 106.758C558.816 105.154 559.354 104.042 559.773 103.422C560.029 103.003 560.229 102.72 560.375 102.574C560.539 102.428 560.849 102.355 561.305 102.355C561.833 102.355 562.435 102.501 563.109 102.793C563.784 103.066 565.178 103.796 567.293 104.98C568.077 105.418 568.469 106.138 568.469 107.141C568.469 107.396 568.423 107.669 568.332 107.961C568.259 108.234 568.159 108.49 568.031 108.727C567.922 108.964 567.849 109.128 567.812 109.219C567.065 110.878 566.418 112.646 565.871 114.523Z" fill="#0191B6"/>
</svg>
